solid OpenSCAD_Model
  facet normal 0.866026 -0 0.5
    outer loop
      vertex 4.04145 -40.5 7
      vertex 8.0829 0 0
      vertex 4.04145 0 7
    endloop
  endfacet
  facet normal 0.866026 0 0.5
    outer loop
      vertex 8.0829 0 0
      vertex 4.04145 -40.5 7
      vertex 8.0829 -40.5 0
    endloop
  endfacet
  facet normal -0 0 1
    outer loop
      vertex -4.04145 0 7
      vertex 4.04145 -40.5 7
      vertex 4.04145 0 7
    endloop
  endfacet
  facet normal 0 0 1
    outer loop
      vertex 4.04145 -40.5 7
      vertex -4.04145 0 7
      vertex -4.04145 -40.5 7
    endloop
  endfacet
  facet normal -0.866026 0 0.5
    outer loop
      vertex -8.0829 -40.5 0
      vertex -4.04145 0 7
      vertex -8.0829 0 0
    endloop
  endfacet
  facet normal -0.866026 0 0.5
    outer loop
      vertex -4.04145 0 7
      vertex -8.0829 -40.5 0
      vertex -4.04145 -40.5 7
    endloop
  endfacet
  facet normal -0.866026 0 -0.5
    outer loop
      vertex -4.04145 -40.5 -7
      vertex -8.0829 0 0
      vertex -4.04145 0 -7
    endloop
  endfacet
  facet normal -0.866026 -0 -0.5
    outer loop
      vertex -8.0829 0 0
      vertex -4.04145 -40.5 -7
      vertex -8.0829 -40.5 0
    endloop
  endfacet
  facet normal 0 0 -1
    outer loop
      vertex -4.04145 -40.5 -7
      vertex 4.04145 0 -7
      vertex 4.04145 -40.5 -7
    endloop
  endfacet
  facet normal -0 0 -1
    outer loop
      vertex 4.04145 0 -7
      vertex -4.04145 -40.5 -7
      vertex -4.04145 0 -7
    endloop
  endfacet
  facet normal 0.866026 0 -0.5
    outer loop
      vertex 8.0829 -40.5 0
      vertex 4.04145 0 -7
      vertex 8.0829 0 0
    endloop
  endfacet
  facet normal 0.866026 0 -0.5
    outer loop
      vertex 4.04145 0 -7
      vertex 8.0829 -40.5 0
      vertex 4.04145 -40.5 -7
    endloop
  endfacet
  facet normal 0 1 0
    outer loop
      vertex 8.0829 0 0
      vertex -4.04145 0 7
      vertex 4.04145 0 7
    endloop
  endfacet
  facet normal 0 1 0
    outer loop
      vertex 8.0829 0 0
      vertex -8.0829 0 0
      vertex -4.04145 0 7
    endloop
  endfacet
  facet normal 0 1 -0
    outer loop
      vertex 4.04145 0 -7
      vertex -8.0829 0 0
      vertex 8.0829 0 0
    endloop
  endfacet
  facet normal 0 1 0
    outer loop
      vertex -8.0829 0 0
      vertex 4.04145 0 -7
      vertex -4.04145 0 -7
    endloop
  endfacet
  facet normal 0 -1 0
    outer loop
      vertex -8.0829 -40.5 0
      vertex 4.04145 -40.5 7
      vertex -4.04145 -40.5 7
    endloop
  endfacet
  facet normal 0 -1 0
    outer loop
      vertex -8.0829 -40.5 0
      vertex 8.0829 -40.5 0
      vertex 4.04145 -40.5 7
    endloop
  endfacet
  facet normal 0 -1 0
    outer loop
      vertex -4.04145 -40.5 -7
      vertex 8.0829 -40.5 0
      vertex -8.0829 -40.5 0
    endloop
  endfacet
  facet normal 0 -1 0
    outer loop
      vertex 8.0829 -40.5 0
      vertex -4.04145 -40.5 -7
      vertex 4.04145 -40.5 -7
    endloop
  endfacet
endsolid OpenSCAD_Model
