solid OpenSCAD_Model
  facet normal 0.114707 3.84447e-21 -0.993399
    outer loop
      vertex -0.247508 -14 1.27622
      vertex -0.0497932 0 1.29905
      vertex -0.0497932 -14 1.29905
    endloop
  endfacet
  facet normal 0.114707 3.84447e-21 -0.993399
    outer loop
      vertex -0.0497932 0 1.29905
      vertex -0.247508 -14 1.27622
      vertex -0.247508 0 1.27622
    endloop
  endfacet
  facet normal 0.973706 -0 0.227808
    outer loop
      vertex -1.28476 -14 -0.198443
      vertex -1.23942 0 -0.392237
      vertex -1.28476 0 -0.198443
    endloop
  endfacet
  facet normal 0.973706 0 0.227808
    outer loop
      vertex -1.23942 0 -0.392237
      vertex -1.28476 -14 -0.198443
      vertex -1.23942 -14 -0.392237
    endloop
  endfacet
  facet normal 0.997064 -0 0.0765724
    outer loop
      vertex -1.3 -14 0
      vertex -1.28476 0 -0.198443
      vertex -1.3 0 0
    endloop
  endfacet
  facet normal 0.997064 0 0.0765724
    outer loop
      vertex -1.28476 0 -0.198443
      vertex -1.3 -14 0
      vertex -1.28476 -14 -0.198443
    endloop
  endfacet
  facet normal 0.927503 -0 0.373817
    outer loop
      vertex -1.23942 -14 -0.392237
      vertex -1.16502 0 -0.576836
      vertex -1.23942 0 -0.392237
    endloop
  endfacet
  facet normal 0.927503 0 0.373817
    outer loop
      vertex -1.16502 0 -0.576836
      vertex -1.23942 -14 -0.392237
      vertex -1.16502 -14 -0.576836
    endloop
  endfacet
  facet normal -0.477722 -2.8772e-19 0.878511
    outer loop
      vertex 0.531789 0 -1.18625
      vertex 0.706637 -14 -1.09117
      vertex 0.706637 0 -1.09117
    endloop
  endfacet
  facet normal -0.477722 -2.8772e-19 0.878511
    outer loop
      vertex 0.706637 -14 -1.09117
      vertex 0.531789 0 -1.18625
      vertex 0.531789 -14 -1.18625
    endloop
  endfacet
  facet normal -0.896171 0 0.443709
    outer loop
      vertex 1.11744 -14 -0.664324
      vertex 1.20575 0 -0.485962
      vertex 1.11744 0 -0.664324
    endloop
  endfacet
  facet normal -0.896171 0 0.443709
    outer loop
      vertex 1.20575 0 -0.485962
      vertex 1.11744 -14 -0.664324
      vertex 1.20575 -14 -0.485962
    endloop
  endfacet
  facet normal -0.33804 -4.4661e-20 0.941132
    outer loop
      vertex 0.344476 0 -1.25353
      vertex 0.531789 -14 -1.18625
      vertex 0.531789 0 -1.18625
    endloop
  endfacet
  facet normal -0.33804 -4.4661e-20 0.941132
    outer loop
      vertex 0.531789 -14 -1.18625
      vertex 0.344476 0 -1.25353
      vertex 0.344476 -14 -1.25353
    endloop
  endfacet
  facet normal 0.665324 -2.52291e-19 0.746554
    outer loop
      vertex -0.936678 0 -0.901462
      vertex -0.788093 -14 -1.03388
      vertex -0.788093 0 -1.03388
    endloop
  endfacet
  facet normal 0.665324 -2.52291e-19 0.746554
    outer loop
      vertex -0.788093 -14 -1.03388
      vertex -0.936678 0 -0.901462
      vertex -0.936678 -14 -0.901462
    endloop
  endfacet
  facet normal -0.81794 0 0.575303
    outer loop
      vertex 1.00294 -14 -0.827115
      vertex 1.11744 0 -0.664324
      vertex 1.00294 0 -0.827115
    endloop
  endfacet
  facet normal -0.81794 0 0.575303
    outer loop
      vertex 1.11744 0 -0.664324
      vertex 1.00294 -14 -0.827115
      vertex 1.11744 -14 -0.664324
    endloop
  endfacet
  facet normal -0.896171 0 -0.443709
    outer loop
      vertex 1.20575 -14 0.485962
      vertex 1.11744 0 0.664324
      vertex 1.20575 0 0.485962
    endloop
  endfacet
  facet normal -0.896171 -0 -0.443709
    outer loop
      vertex 1.11744 0 0.664324
      vertex 1.20575 -14 0.485962
      vertex 1.11744 -14 0.664324
    endloop
  endfacet
  facet normal 0.114707 -3.84447e-21 0.993399
    outer loop
      vertex -0.247508 0 -1.27622
      vertex -0.0497932 -14 -1.29905
      vertex -0.0497932 0 -1.29905
    endloop
  endfacet
  facet normal 0.114707 -3.84447e-21 0.993399
    outer loop
      vertex -0.0497932 -14 -1.29905
      vertex -0.247508 0 -1.27622
      vertex -0.247508 -14 -1.27622
    endloop
  endfacet
  facet normal 0.543585 2.9509e-19 -0.839354
    outer loop
      vertex -0.788093 -14 1.03388
      vertex -0.621036 0 1.14207
      vertex -0.621036 -14 1.14207
    endloop
  endfacet
  facet normal 0.543585 2.9509e-19 -0.839354
    outer loop
      vertex -0.621036 0 1.14207
      vertex -0.788093 -14 1.03388
      vertex -0.788093 0 1.03388
    endloop
  endfacet
  facet normal 0.543585 -2.9509e-19 0.839354
    outer loop
      vertex -0.788093 0 -1.03388
      vertex -0.621036 -14 -1.14207
      vertex -0.621036 0 -1.14207
    endloop
  endfacet
  facet normal 0.543585 -2.9509e-19 0.839354
    outer loop
      vertex -0.621036 -14 -1.14207
      vertex -0.788093 0 -1.03388
      vertex -0.788093 -14 -1.03388
    endloop
  endfacet
  facet normal -0.0383364 2.98391e-20 0.999265
    outer loop
      vertex -0.0497932 0 -1.29905
      vertex 0.149088 -14 -1.29142
      vertex 0.149088 0 -1.29142
    endloop
  endfacet
  facet normal -0.0383364 2.98391e-20 0.999265
    outer loop
      vertex 0.149088 -14 -1.29142
      vertex -0.0497932 0 -1.29905
      vertex -0.0497932 -14 -1.29905
    endloop
  endfacet
  facet normal -0.988274 0 -0.152691
    outer loop
      vertex 1.29619 -14 0.099514
      vertex 1.2658 0 0.296209
      vertex 1.29619 0 0.099514
    endloop
  endfacet
  facet normal -0.988274 -0 -0.152691
    outer loop
      vertex 1.2658 0 0.296209
      vertex 1.29619 -14 0.099514
      vertex 1.2658 -14 0.296209
    endloop
  endfacet
  facet normal 0.771487 0 -0.636246
    outer loop
      vertex -0.936678 -14 0.901462
      vertex -1.06331 0 0.747913
      vertex -0.936678 0 0.901462
    endloop
  endfacet
  facet normal 0.771487 0 -0.636246
    outer loop
      vertex -1.06331 0 0.747913
      vertex -0.936678 -14 0.901462
      vertex -1.06331 -14 0.747913
    endloop
  endfacet
  facet normal -0.72051 0 -0.693444
    outer loop
      vertex 1.00294 -14 0.827115
      vertex 0.864923 0 0.970519
      vertex 1.00294 0 0.827115
    endloop
  endfacet
  facet normal -0.72051 -0 -0.693444
    outer loop
      vertex 0.864923 0 0.970519
      vertex 1.00294 -14 0.827115
      vertex 0.864923 -14 0.970519
    endloop
  endfacet
  facet normal -0.0383364 -2.98391e-20 -0.999265
    outer loop
      vertex -0.0497932 -14 1.29905
      vertex 0.149088 0 1.29142
      vertex 0.149088 -14 1.29142
    endloop
  endfacet
  facet normal -0.0383364 -2.98391e-20 -0.999265
    outer loop
      vertex 0.149088 0 1.29142
      vertex -0.0497932 -14 1.29905
      vertex -0.0497932 0 1.29905
    endloop
  endfacet
  facet normal 0 1 0
    outer loop
      vertex 0.149088 -14 1.29142
      vertex -0.247508 -14 1.27622
      vertex -0.0497932 -14 1.29905
    endloop
  endfacet
  facet normal 0 1 0
    outer loop
      vertex 0.344476 -14 1.25353
      vertex -0.247508 -14 1.27622
      vertex 0.149088 -14 1.29142
    endloop
  endfacet
  facet normal 0 1 0
    outer loop
      vertex 0.344476 -14 1.25353
      vertex -0.439422 -14 1.22348
      vertex -0.247508 -14 1.27622
    endloop
  endfacet
  facet normal 0 1 0
    outer loop
      vertex 0.531789 -14 1.18625
      vertex -0.439422 -14 1.22348
      vertex 0.344476 -14 1.25353
    endloop
  endfacet
  facet normal 0 1 0
    outer loop
      vertex 0.531789 -14 1.18625
      vertex -0.621036 -14 1.14207
      vertex -0.439422 -14 1.22348
    endloop
  endfacet
  facet normal 0 1 0
    outer loop
      vertex 0.706637 -14 1.09117
      vertex -0.621036 -14 1.14207
      vertex 0.531789 -14 1.18625
    endloop
  endfacet
  facet normal 0 1 0
    outer loop
      vertex 0.706637 -14 1.09117
      vertex -0.788093 -14 1.03388
      vertex -0.621036 -14 1.14207
    endloop
  endfacet
  facet normal 0 1 0
    outer loop
      vertex 0.864923 -14 0.970519
      vertex -0.788093 -14 1.03388
      vertex 0.706637 -14 1.09117
    endloop
  endfacet
  facet normal 0 1 0
    outer loop
      vertex 0.864923 -14 0.970519
      vertex -0.936678 -14 0.901462
      vertex -0.788093 -14 1.03388
    endloop
  endfacet
  facet normal 0 1 0
    outer loop
      vertex 1.00294 -14 0.827115
      vertex -0.936678 -14 0.901462
      vertex 0.864923 -14 0.970519
    endloop
  endfacet
  facet normal 0 1 0
    outer loop
      vertex 1.00294 -14 0.827115
      vertex -1.06331 -14 0.747913
      vertex -0.936678 -14 0.901462
    endloop
  endfacet
  facet normal 0 1 0
    outer loop
      vertex 1.11744 -14 0.664324
      vertex -1.06331 -14 0.747913
      vertex 1.00294 -14 0.827115
    endloop
  endfacet
  facet normal 0 1 0
    outer loop
      vertex 1.11744 -14 0.664324
      vertex -1.16502 -14 0.576836
      vertex -1.06331 -14 0.747913
    endloop
  endfacet
  facet normal 0 1 0
    outer loop
      vertex 1.20575 -14 0.485962
      vertex -1.16502 -14 0.576836
      vertex 1.11744 -14 0.664324
    endloop
  endfacet
  facet normal 0 1 0
    outer loop
      vertex 1.20575 -14 0.485962
      vertex -1.23942 -14 0.392237
      vertex -1.16502 -14 0.576836
    endloop
  endfacet
  facet normal 0 1 0
    outer loop
      vertex 1.2658 -14 0.296209
      vertex -1.23942 -14 0.392237
      vertex 1.20575 -14 0.485962
    endloop
  endfacet
  facet normal 0 1 0
    outer loop
      vertex 1.2658 -14 0.296209
      vertex -1.28476 -14 0.198443
      vertex -1.23942 -14 0.392237
    endloop
  endfacet
  facet normal 0 1 0
    outer loop
      vertex 1.29619 -14 0.099514
      vertex -1.28476 -14 0.198443
      vertex 1.2658 -14 0.296209
    endloop
  endfacet
  facet normal 0 1 0
    outer loop
      vertex 1.29619 -14 0.099514
      vertex -1.3 -14 0
      vertex -1.28476 -14 0.198443
    endloop
  endfacet
  facet normal 0 1 -0
    outer loop
      vertex 1.29619 -14 -0.099514
      vertex -1.3 -14 0
      vertex 1.29619 -14 0.099514
    endloop
  endfacet
  facet normal 0 1 0
    outer loop
      vertex 1.29619 -14 -0.099514
      vertex -1.28476 -14 -0.198443
      vertex -1.3 -14 0
    endloop
  endfacet
  facet normal 0 1 -0
    outer loop
      vertex 1.2658 -14 -0.296209
      vertex -1.28476 -14 -0.198443
      vertex 1.29619 -14 -0.099514
    endloop
  endfacet
  facet normal 0 1 0
    outer loop
      vertex 1.2658 -14 -0.296209
      vertex -1.23942 -14 -0.392237
      vertex -1.28476 -14 -0.198443
    endloop
  endfacet
  facet normal 0 1 -0
    outer loop
      vertex 1.20575 -14 -0.485962
      vertex -1.23942 -14 -0.392237
      vertex 1.2658 -14 -0.296209
    endloop
  endfacet
  facet normal 0 1 0
    outer loop
      vertex 1.20575 -14 -0.485962
      vertex -1.16502 -14 -0.576836
      vertex -1.23942 -14 -0.392237
    endloop
  endfacet
  facet normal 0 1 -0
    outer loop
      vertex 1.11744 -14 -0.664324
      vertex -1.16502 -14 -0.576836
      vertex 1.20575 -14 -0.485962
    endloop
  endfacet
  facet normal 0 1 0
    outer loop
      vertex 1.11744 -14 -0.664324
      vertex -1.06331 -14 -0.747913
      vertex -1.16502 -14 -0.576836
    endloop
  endfacet
  facet normal 0 1 -0
    outer loop
      vertex 1.00294 -14 -0.827115
      vertex -1.06331 -14 -0.747913
      vertex 1.11744 -14 -0.664324
    endloop
  endfacet
  facet normal 0 1 0
    outer loop
      vertex 1.00294 -14 -0.827115
      vertex -0.936678 -14 -0.901462
      vertex -1.06331 -14 -0.747913
    endloop
  endfacet
  facet normal 0 1 -0
    outer loop
      vertex 0.864923 -14 -0.970519
      vertex -0.936678 -14 -0.901462
      vertex 1.00294 -14 -0.827115
    endloop
  endfacet
  facet normal 0 1 0
    outer loop
      vertex 0.864923 -14 -0.970519
      vertex -0.788093 -14 -1.03388
      vertex -0.936678 -14 -0.901462
    endloop
  endfacet
  facet normal 0 1 -0
    outer loop
      vertex 0.706637 -14 -1.09117
      vertex -0.788093 -14 -1.03388
      vertex 0.864923 -14 -0.970519
    endloop
  endfacet
  facet normal 0 1 0
    outer loop
      vertex 0.706637 -14 -1.09117
      vertex -0.621036 -14 -1.14207
      vertex -0.788093 -14 -1.03388
    endloop
  endfacet
  facet normal 0 1 -0
    outer loop
      vertex 0.531789 -14 -1.18625
      vertex -0.621036 -14 -1.14207
      vertex 0.706637 -14 -1.09117
    endloop
  endfacet
  facet normal 0 1 0
    outer loop
      vertex 0.531789 -14 -1.18625
      vertex -0.439422 -14 -1.22348
      vertex -0.621036 -14 -1.14207
    endloop
  endfacet
  facet normal 0 1 -0
    outer loop
      vertex 0.344476 -14 -1.25353
      vertex -0.439422 -14 -1.22348
      vertex 0.531789 -14 -1.18625
    endloop
  endfacet
  facet normal 0 1 0
    outer loop
      vertex 0.344476 -14 -1.25353
      vertex -0.247508 -14 -1.27622
      vertex -0.439422 -14 -1.22348
    endloop
  endfacet
  facet normal 0 1 -0
    outer loop
      vertex 0.149088 -14 -1.29142
      vertex -0.247508 -14 -1.27622
      vertex 0.344476 -14 -1.25353
    endloop
  endfacet
  facet normal 0 1 0
    outer loop
      vertex -0.247508 -14 -1.27622
      vertex 0.149088 -14 -1.29142
      vertex -0.0497932 -14 -1.29905
    endloop
  endfacet
  facet normal 0.665324 2.52291e-19 -0.746554
    outer loop
      vertex -0.936678 -14 0.901462
      vertex -0.788093 0 1.03388
      vertex -0.788093 -14 1.03388
    endloop
  endfacet
  facet normal 0.665324 2.52291e-19 -0.746554
    outer loop
      vertex -0.788093 0 1.03388
      vertex -0.936678 -14 0.901462
      vertex -0.936678 0 0.901462
    endloop
  endfacet
  facet normal 0.997064 0 -0.0765724
    outer loop
      vertex -1.28476 -14 0.198443
      vertex -1.3 0 0
      vertex -1.28476 0 0.198443
    endloop
  endfacet
  facet normal 0.997064 0 -0.0765724
    outer loop
      vertex -1.3 0 0
      vertex -1.28476 -14 0.198443
      vertex -1.3 -14 0
    endloop
  endfacet
  facet normal 0.409043 1.29128e-19 0.912515
    outer loop
      vertex -0.621036 0 -1.14207
      vertex -0.439422 -14 -1.22348
      vertex -0.439422 0 -1.22348
    endloop
  endfacet
  facet normal 0.409043 1.29128e-19 0.912515
    outer loop
      vertex -0.439422 -14 -1.22348
      vertex -0.621036 0 -1.14207
      vertex -0.621036 -14 -1.14207
    endloop
  endfacet
  facet normal -0.72051 0 0.693444
    outer loop
      vertex 0.864923 -14 -0.970519
      vertex 1.00294 0 -0.827115
      vertex 0.864923 0 -0.970519
    endloop
  endfacet
  facet normal -0.72051 0 0.693444
    outer loop
      vertex 1.00294 0 -0.827115
      vertex 0.864923 -14 -0.970519
      vertex 1.00294 -14 -0.827115
    endloop
  endfacet
  facet normal 0.264987 -1.33343e-19 0.964252
    outer loop
      vertex -0.439422 0 -1.22348
      vertex -0.247508 -14 -1.27622
      vertex -0.247508 0 -1.27622
    endloop
  endfacet
  facet normal 0.264987 -1.33343e-19 0.964252
    outer loop
      vertex -0.247508 -14 -1.27622
      vertex -0.439422 0 -1.22348
      vertex -0.439422 -14 -1.22348
    endloop
  endfacet
  facet normal -0.988274 0 0.152691
    outer loop
      vertex 1.2658 -14 -0.296209
      vertex 1.29619 0 -0.099514
      vertex 1.2658 0 -0.296209
    endloop
  endfacet
  facet normal -0.988274 0 0.152691
    outer loop
      vertex 1.29619 0 -0.099514
      vertex 1.2658 -14 -0.296209
      vertex 1.29619 -14 -0.099514
    endloop
  endfacet
  facet normal -0.606209 5.98229e-19 -0.795305
    outer loop
      vertex 0.706637 -14 1.09117
      vertex 0.864923 0 0.970519
      vertex 0.864923 -14 0.970519
    endloop
  endfacet
  facet normal -0.606209 5.98229e-19 -0.795305
    outer loop
      vertex 0.864923 0 0.970519
      vertex 0.706637 -14 1.09117
      vertex 0.706637 0 1.09117
    endloop
  endfacet
  facet normal -0.190375 -1.40217e-19 0.981711
    outer loop
      vertex 0.149088 0 -1.29142
      vertex 0.344476 -14 -1.25353
      vertex 0.344476 0 -1.25353
    endloop
  endfacet
  facet normal -0.190375 -1.40217e-19 0.981711
    outer loop
      vertex 0.344476 -14 -1.25353
      vertex 0.149088 0 -1.29142
      vertex 0.149088 -14 -1.29142
    endloop
  endfacet
  facet normal 0.771487 -0 0.636246
    outer loop
      vertex -1.06331 -14 -0.747913
      vertex -0.936678 0 -0.901462
      vertex -1.06331 0 -0.747913
    endloop
  endfacet
  facet normal 0.771487 0 0.636246
    outer loop
      vertex -0.936678 0 -0.901462
      vertex -1.06331 -14 -0.747913
      vertex -0.936678 -14 -0.901462
    endloop
  endfacet
  facet normal -0.81794 0 -0.575303
    outer loop
      vertex 1.11744 -14 0.664324
      vertex 1.00294 0 0.827115
      vertex 1.11744 0 0.664324
    endloop
  endfacet
  facet normal -0.81794 -0 -0.575303
    outer loop
      vertex 1.00294 0 0.827115
      vertex 1.11744 -14 0.664324
      vertex 1.00294 -14 0.827115
    endloop
  endfacet
  facet normal 0.859561 -0 0.511033
    outer loop
      vertex -1.16502 -14 -0.576836
      vertex -1.06331 0 -0.747913
      vertex -1.16502 0 -0.576836
    endloop
  endfacet
  facet normal 0.859561 0 0.511033
    outer loop
      vertex -1.06331 0 -0.747913
      vertex -1.16502 -14 -0.576836
      vertex -1.06331 -14 -0.747913
    endloop
  endfacet
  facet normal 0.409043 -1.29128e-19 -0.912515
    outer loop
      vertex -0.621036 -14 1.14207
      vertex -0.439422 0 1.22348
      vertex -0.439422 -14 1.22348
    endloop
  endfacet
  facet normal 0.409043 -1.29128e-19 -0.912515
    outer loop
      vertex -0.439422 0 1.22348
      vertex -0.621036 -14 1.14207
      vertex -0.621036 0 1.14207
    endloop
  endfacet
  facet normal 0.859561 0 -0.511033
    outer loop
      vertex -1.06331 -14 0.747913
      vertex -1.16502 0 0.576836
      vertex -1.06331 0 0.747913
    endloop
  endfacet
  facet normal 0.859561 0 -0.511033
    outer loop
      vertex -1.16502 0 0.576836
      vertex -1.06331 -14 0.747913
      vertex -1.16502 -14 0.576836
    endloop
  endfacet
  facet normal 0.264987 1.33343e-19 -0.964252
    outer loop
      vertex -0.439422 -14 1.22348
      vertex -0.247508 0 1.27622
      vertex -0.247508 -14 1.27622
    endloop
  endfacet
  facet normal 0.264987 1.33343e-19 -0.964252
    outer loop
      vertex -0.247508 0 1.27622
      vertex -0.439422 -14 1.22348
      vertex -0.439422 0 1.22348
    endloop
  endfacet
  facet normal -0.190375 1.40217e-19 -0.981711
    outer loop
      vertex 0.149088 -14 1.29142
      vertex 0.344476 0 1.25353
      vertex 0.344476 -14 1.25353
    endloop
  endfacet
  facet normal -0.190375 1.40217e-19 -0.981711
    outer loop
      vertex 0.344476 0 1.25353
      vertex 0.149088 -14 1.29142
      vertex 0.149088 0 1.29142
    endloop
  endfacet
  facet normal 0.927503 0 -0.373817
    outer loop
      vertex -1.16502 -14 0.576836
      vertex -1.23942 0 0.392237
      vertex -1.16502 0 0.576836
    endloop
  endfacet
  facet normal 0.927503 0 -0.373817
    outer loop
      vertex -1.23942 0 0.392237
      vertex -1.16502 -14 0.576836
      vertex -1.23942 -14 0.392237
    endloop
  endfacet
  facet normal 0.973706 0 -0.227808
    outer loop
      vertex -1.23942 -14 0.392237
      vertex -1.28476 0 0.198443
      vertex -1.23942 0 0.392237
    endloop
  endfacet
  facet normal 0.973706 0 -0.227808
    outer loop
      vertex -1.28476 0 0.198443
      vertex -1.23942 -14 0.392237
      vertex -1.28476 -14 0.198443
    endloop
  endfacet
  facet normal -0.953398 0 -0.301716
    outer loop
      vertex 1.2658 -14 0.296209
      vertex 1.20575 0 0.485962
      vertex 1.2658 0 0.296209
    endloop
  endfacet
  facet normal -0.953398 -0 -0.301716
    outer loop
      vertex 1.20575 0 0.485962
      vertex 1.2658 -14 0.296209
      vertex 1.20575 -14 0.485962
    endloop
  endfacet
  facet normal -1 0 0
    outer loop
      vertex 1.29619 -14 -0.099514
      vertex 1.29619 0 0.099514
      vertex 1.29619 0 -0.099514
    endloop
  endfacet
  facet normal -1 -0 0
    outer loop
      vertex 1.29619 0 0.099514
      vertex 1.29619 -14 -0.099514
      vertex 1.29619 -14 0.099514
    endloop
  endfacet
  facet normal -0.606209 -5.98229e-19 0.795305
    outer loop
      vertex 0.706637 0 -1.09117
      vertex 0.864923 -14 -0.970519
      vertex 0.864923 0 -0.970519
    endloop
  endfacet
  facet normal -0.606209 -5.98229e-19 0.795305
    outer loop
      vertex 0.864923 -14 -0.970519
      vertex 0.706637 0 -1.09117
      vertex 0.706637 -14 -1.09117
    endloop
  endfacet
  facet normal -0.477722 2.8772e-19 -0.878511
    outer loop
      vertex 0.531789 -14 1.18625
      vertex 0.706637 0 1.09117
      vertex 0.706637 -14 1.09117
    endloop
  endfacet
  facet normal -0.477722 2.8772e-19 -0.878511
    outer loop
      vertex 0.706637 0 1.09117
      vertex 0.531789 -14 1.18625
      vertex 0.531789 0 1.18625
    endloop
  endfacet
  facet normal -0.953398 0 0.301716
    outer loop
      vertex 1.20575 -14 -0.485962
      vertex 1.2658 0 -0.296209
      vertex 1.20575 0 -0.485962
    endloop
  endfacet
  facet normal -0.953398 0 0.301716
    outer loop
      vertex 1.2658 0 -0.296209
      vertex 1.20575 -14 -0.485962
      vertex 1.2658 -14 -0.296209
    endloop
  endfacet
  facet normal -0.33804 4.4661e-20 -0.941132
    outer loop
      vertex 0.344476 -14 1.25353
      vertex 0.531789 0 1.18625
      vertex 0.531789 -14 1.18625
    endloop
  endfacet
  facet normal -0.33804 4.4661e-20 -0.941132
    outer loop
      vertex 0.531789 0 1.18625
      vertex 0.344476 -14 1.25353
      vertex 0.344476 0 1.25353
    endloop
  endfacet
  facet normal -0.743146 0 0.669129
    outer loop
      vertex 0.635674 -37 -0.705987
      vertex 0.768566 -27 -0.558395
      vertex 0.635674 -27 -0.705987
    endloop
  endfacet
  facet normal -0.743146 0 0.669129
    outer loop
      vertex 0.768566 -27 -0.558395
      vertex 0.635674 -37 -0.705987
      vertex 0.768566 -37 -0.558395
    endloop
  endfacet
  facet normal 0.951057 0 -0.309016
    outer loop
      vertex -0.867867 -37 0.386399
      vertex -0.929239 -27 0.197515
      vertex -0.867867 -27 0.386399
    endloop
  endfacet
  facet normal 0.951057 0 -0.309016
    outer loop
      vertex -0.929239 -27 0.197515
      vertex -0.867867 -37 0.386399
      vertex -0.929239 -37 0.197515
    endloop
  endfacet
  facet normal 0.994521 0 -0.104535
    outer loop
      vertex -0.929239 -37 0.197515
      vertex -0.95 -27 0
      vertex -0.929239 -27 0.197515
    endloop
  endfacet
  facet normal 0.994521 0 -0.104535
    outer loop
      vertex -0.95 -27 0
      vertex -0.929239 -37 0.197515
      vertex -0.95 -37 0
    endloop
  endfacet
  facet normal 0.866027 0 -0.499996
    outer loop
      vertex -0.768566 -37 0.558395
      vertex -0.867867 -27 0.386399
      vertex -0.768566 -27 0.558395
    endloop
  endfacet
  facet normal 0.866027 0 -0.499996
    outer loop
      vertex -0.867867 -27 0.386399
      vertex -0.768566 -37 0.558395
      vertex -0.867867 -37 0.386399
    endloop
  endfacet
  facet normal 0.587781 2.62542e-20 -0.80902
    outer loop
      vertex -0.635674 -37 0.705987
      vertex -0.474999 -27 0.822723
      vertex -0.474999 -37 0.822723
    endloop
  endfacet
  facet normal 0.587781 2.62542e-20 -0.80902
    outer loop
      vertex -0.474999 -27 0.822723
      vertex -0.635674 -37 0.705987
      vertex -0.635674 -27 0.705987
    endloop
  endfacet
  facet normal 0.587781 -2.62542e-20 0.80902
    outer loop
      vertex -0.635674 -27 -0.705987
      vertex -0.474999 -37 -0.822723
      vertex -0.474999 -27 -0.822723
    endloop
  endfacet
  facet normal 0.587781 -2.62542e-20 0.80902
    outer loop
      vertex -0.474999 -37 -0.822723
      vertex -0.635674 -27 -0.705987
      vertex -0.635674 -37 -0.705987
    endloop
  endfacet
  facet normal -0.40674 -3.35693e-19 0.913544
    outer loop
      vertex 0.293566 -27 -0.903503
      vertex 0.474999 -37 -0.822723
      vertex 0.474999 -27 -0.822723
    endloop
  endfacet
  facet normal -0.40674 -3.35693e-19 0.913544
    outer loop
      vertex 0.474999 -37 -0.822723
      vertex 0.293566 -27 -0.903503
      vertex 0.293566 -37 -0.903503
    endloop
  endfacet
  facet normal 0.994521 -0 0.104535
    outer loop
      vertex -0.95 -37 0
      vertex -0.929239 -27 -0.197515
      vertex -0.95 -27 0
    endloop
  endfacet
  facet normal 0.994521 0 0.104535
    outer loop
      vertex -0.929239 -27 -0.197515
      vertex -0.95 -37 0
      vertex -0.929239 -37 -0.197515
    endloop
  endfacet
  facet normal 0.743146 0 -0.669129
    outer loop
      vertex -0.635674 -37 0.705987
      vertex -0.768566 -27 0.558395
      vertex -0.635674 -27 0.705987
    endloop
  endfacet
  facet normal 0.743146 0 -0.669129
    outer loop
      vertex -0.768566 -27 0.558395
      vertex -0.635674 -37 0.705987
      vertex -0.768566 -37 0.558395
    endloop
  endfacet
  facet normal -0.207915 3.96605e-19 0.978147
    outer loop
      vertex 0.0993013 -27 -0.944796
      vertex 0.293566 -37 -0.903503
      vertex 0.293566 -27 -0.903503
    endloop
  endfacet
  facet normal -0.207915 3.96605e-19 0.978147
    outer loop
      vertex 0.293566 -37 -0.903503
      vertex 0.0993013 -27 -0.944796
      vertex 0.0993013 -37 -0.944796
    endloop
  endfacet
  facet normal -0.207915 -3.96605e-19 -0.978147
    outer loop
      vertex 0.0993013 -37 0.944796
      vertex 0.293566 -27 0.903503
      vertex 0.293566 -37 0.903503
    endloop
  endfacet
  facet normal -0.207915 -3.96605e-19 -0.978147
    outer loop
      vertex 0.293566 -27 0.903503
      vertex 0.0993013 -37 0.944796
      vertex 0.0993013 -27 0.944796
    endloop
  endfacet
  facet normal -0.743146 0 -0.669129
    outer loop
      vertex 0.768566 -37 0.558395
      vertex 0.635674 -27 0.705987
      vertex 0.768566 -27 0.558395
    endloop
  endfacet
  facet normal -0.743146 -0 -0.669129
    outer loop
      vertex 0.635674 -27 0.705987
      vertex 0.768566 -37 0.558395
      vertex 0.635674 -37 0.705987
    endloop
  endfacet
  facet normal 0 0 -1
    outer loop
      vertex -0.0993013 -37 0.944796
      vertex 0.0993013 -27 0.944796
      vertex 0.0993013 -37 0.944796
    endloop
  endfacet
  facet normal -0 0 -1
    outer loop
      vertex 0.0993013 -27 0.944796
      vertex -0.0993013 -37 0.944796
      vertex -0.0993013 -27 0.944796
    endloop
  endfacet
  facet normal 0.951057 -0 0.309016
    outer loop
      vertex -0.929239 -37 -0.197515
      vertex -0.867867 -27 -0.386399
      vertex -0.929239 -27 -0.197515
    endloop
  endfacet
  facet normal 0.951057 0 0.309016
    outer loop
      vertex -0.867867 -27 -0.386399
      vertex -0.929239 -37 -0.197515
      vertex -0.867867 -37 -0.386399
    endloop
  endfacet
  facet normal 0.40674 3.35693e-19 0.913544
    outer loop
      vertex -0.474999 -27 -0.822723
      vertex -0.293566 -37 -0.903503
      vertex -0.293566 -27 -0.903503
    endloop
  endfacet
  facet normal 0.40674 3.35693e-19 0.913544
    outer loop
      vertex -0.293566 -37 -0.903503
      vertex -0.474999 -27 -0.822723
      vertex -0.474999 -37 -0.822723
    endloop
  endfacet
  facet normal -0.587781 2.62542e-20 0.80902
    outer loop
      vertex 0.474999 -27 -0.822723
      vertex 0.635674 -37 -0.705987
      vertex 0.635674 -27 -0.705987
    endloop
  endfacet
  facet normal -0.587781 2.62542e-20 0.80902
    outer loop
      vertex 0.635674 -37 -0.705987
      vertex 0.474999 -27 -0.822723
      vertex 0.474999 -37 -0.822723
    endloop
  endfacet
  facet normal -0.951057 0 -0.309016
    outer loop
      vertex 0.929239 -37 0.197515
      vertex 0.867867 -27 0.386399
      vertex 0.929239 -27 0.197515
    endloop
  endfacet
  facet normal -0.951057 -0 -0.309016
    outer loop
      vertex 0.867867 -27 0.386399
      vertex 0.929239 -37 0.197515
      vertex 0.867867 -37 0.386399
    endloop
  endfacet
  facet normal -0.587781 -2.62542e-20 -0.80902
    outer loop
      vertex 0.474999 -37 0.822723
      vertex 0.635674 -27 0.705987
      vertex 0.635674 -37 0.705987
    endloop
  endfacet
  facet normal -0.587781 -2.62542e-20 -0.80902
    outer loop
      vertex 0.635674 -27 0.705987
      vertex 0.474999 -37 0.822723
      vertex 0.474999 -27 0.822723
    endloop
  endfacet
  facet normal -0.951057 0 0.309016
    outer loop
      vertex 0.867867 -37 -0.386399
      vertex 0.929239 -27 -0.197515
      vertex 0.867867 -27 -0.386399
    endloop
  endfacet
  facet normal -0.951057 0 0.309016
    outer loop
      vertex 0.929239 -27 -0.197515
      vertex 0.867867 -37 -0.386399
      vertex 0.929239 -37 -0.197515
    endloop
  endfacet
  facet normal -0.40674 3.35693e-19 -0.913544
    outer loop
      vertex 0.293566 -37 0.903503
      vertex 0.474999 -27 0.822723
      vertex 0.474999 -37 0.822723
    endloop
  endfacet
  facet normal -0.40674 3.35693e-19 -0.913544
    outer loop
      vertex 0.474999 -27 0.822723
      vertex 0.293566 -37 0.903503
      vertex 0.293566 -27 0.903503
    endloop
  endfacet
  facet normal 0 -1 0
    outer loop
      vertex -0.293566 -27 0.903503
      vertex 0.0993013 -27 0.944796
      vertex -0.0993013 -27 0.944796
    endloop
  endfacet
  facet normal 0 -1 0
    outer loop
      vertex -0.293566 -27 0.903503
      vertex 0.293566 -27 0.903503
      vertex 0.0993013 -27 0.944796
    endloop
  endfacet
  facet normal 0 -1 0
    outer loop
      vertex -0.474999 -27 0.822723
      vertex 0.293566 -27 0.903503
      vertex -0.293566 -27 0.903503
    endloop
  endfacet
  facet normal 0 -1 0
    outer loop
      vertex -0.474999 -27 0.822723
      vertex 0.474999 -27 0.822723
      vertex 0.293566 -27 0.903503
    endloop
  endfacet
  facet normal 0 -1 0
    outer loop
      vertex -0.635674 -27 0.705987
      vertex 0.474999 -27 0.822723
      vertex -0.474999 -27 0.822723
    endloop
  endfacet
  facet normal 0 -1 0
    outer loop
      vertex -0.635674 -27 0.705987
      vertex 0.635674 -27 0.705987
      vertex 0.474999 -27 0.822723
    endloop
  endfacet
  facet normal 0 -1 0
    outer loop
      vertex -0.768566 -27 0.558395
      vertex 0.635674 -27 0.705987
      vertex -0.635674 -27 0.705987
    endloop
  endfacet
  facet normal 0 -1 0
    outer loop
      vertex -0.768566 -27 0.558395
      vertex 0.768566 -27 0.558395
      vertex 0.635674 -27 0.705987
    endloop
  endfacet
  facet normal 0 -1 0
    outer loop
      vertex -0.867867 -27 0.386399
      vertex 0.768566 -27 0.558395
      vertex -0.768566 -27 0.558395
    endloop
  endfacet
  facet normal 0 -1 0
    outer loop
      vertex -0.867867 -27 0.386399
      vertex 0.867867 -27 0.386399
      vertex 0.768566 -27 0.558395
    endloop
  endfacet
  facet normal 0 -1 0
    outer loop
      vertex -0.929239 -27 0.197515
      vertex 0.867867 -27 0.386399
      vertex -0.867867 -27 0.386399
    endloop
  endfacet
  facet normal 0 -1 0
    outer loop
      vertex -0.929239 -27 0.197515
      vertex 0.929239 -27 0.197515
      vertex 0.867867 -27 0.386399
    endloop
  endfacet
  facet normal 0 -1 0
    outer loop
      vertex -0.95 -27 0
      vertex 0.929239 -27 0.197515
      vertex -0.929239 -27 0.197515
    endloop
  endfacet
  facet normal 0 -1 0
    outer loop
      vertex -0.95 -27 0
      vertex 0.95 -27 0
      vertex 0.929239 -27 0.197515
    endloop
  endfacet
  facet normal 0 -1 0
    outer loop
      vertex -0.929239 -27 -0.197515
      vertex 0.95 -27 0
      vertex -0.95 -27 0
    endloop
  endfacet
  facet normal 0 -1 0
    outer loop
      vertex -0.929239 -27 -0.197515
      vertex 0.929239 -27 -0.197515
      vertex 0.95 -27 0
    endloop
  endfacet
  facet normal 0 -1 0
    outer loop
      vertex -0.867867 -27 -0.386399
      vertex 0.929239 -27 -0.197515
      vertex -0.929239 -27 -0.197515
    endloop
  endfacet
  facet normal 0 -1 0
    outer loop
      vertex -0.867867 -27 -0.386399
      vertex 0.867867 -27 -0.386399
      vertex 0.929239 -27 -0.197515
    endloop
  endfacet
  facet normal 0 -1 0
    outer loop
      vertex -0.768566 -27 -0.558395
      vertex 0.867867 -27 -0.386399
      vertex -0.867867 -27 -0.386399
    endloop
  endfacet
  facet normal 0 -1 0
    outer loop
      vertex -0.768566 -27 -0.558395
      vertex 0.768566 -27 -0.558395
      vertex 0.867867 -27 -0.386399
    endloop
  endfacet
  facet normal 0 -1 0
    outer loop
      vertex -0.635674 -27 -0.705987
      vertex 0.768566 -27 -0.558395
      vertex -0.768566 -27 -0.558395
    endloop
  endfacet
  facet normal 0 -1 0
    outer loop
      vertex -0.635674 -27 -0.705987
      vertex 0.635674 -27 -0.705987
      vertex 0.768566 -27 -0.558395
    endloop
  endfacet
  facet normal 0 -1 0
    outer loop
      vertex -0.474999 -27 -0.822723
      vertex 0.635674 -27 -0.705987
      vertex -0.635674 -27 -0.705987
    endloop
  endfacet
  facet normal 0 -1 0
    outer loop
      vertex -0.474999 -27 -0.822723
      vertex 0.474999 -27 -0.822723
      vertex 0.635674 -27 -0.705987
    endloop
  endfacet
  facet normal 0 -1 0
    outer loop
      vertex -0.293566 -27 -0.903503
      vertex 0.474999 -27 -0.822723
      vertex -0.474999 -27 -0.822723
    endloop
  endfacet
  facet normal 0 -1 0
    outer loop
      vertex -0.293566 -27 -0.903503
      vertex 0.293566 -27 -0.903503
      vertex 0.474999 -27 -0.822723
    endloop
  endfacet
  facet normal 0 -1 0
    outer loop
      vertex -0.0993013 -27 -0.944796
      vertex 0.293566 -27 -0.903503
      vertex -0.293566 -27 -0.903503
    endloop
  endfacet
  facet normal 0 -1 0
    outer loop
      vertex 0.293566 -27 -0.903503
      vertex -0.0993013 -27 -0.944796
      vertex 0.0993013 -27 -0.944796
    endloop
  endfacet
  facet normal 0.207915 -3.96605e-19 0.978147
    outer loop
      vertex -0.293566 -27 -0.903503
      vertex -0.0993013 -37 -0.944796
      vertex -0.0993013 -27 -0.944796
    endloop
  endfacet
  facet normal 0.207915 -3.96605e-19 0.978147
    outer loop
      vertex -0.0993013 -37 -0.944796
      vertex -0.293566 -27 -0.903503
      vertex -0.293566 -37 -0.903503
    endloop
  endfacet
  facet normal -0.994521 0 0.104535
    outer loop
      vertex 0.929239 -37 -0.197515
      vertex 0.95 -27 0
      vertex 0.929239 -27 -0.197515
    endloop
  endfacet
  facet normal -0.994521 0 0.104535
    outer loop
      vertex 0.95 -27 0
      vertex 0.929239 -37 -0.197515
      vertex 0.95 -37 0
    endloop
  endfacet
  facet normal -0.866027 0 0.499996
    outer loop
      vertex 0.768566 -37 -0.558395
      vertex 0.867867 -27 -0.386399
      vertex 0.768566 -27 -0.558395
    endloop
  endfacet
  facet normal -0.866027 0 0.499996
    outer loop
      vertex 0.867867 -27 -0.386399
      vertex 0.768566 -37 -0.558395
      vertex 0.867867 -37 -0.386399
    endloop
  endfacet
  facet normal -0.866027 0 -0.499996
    outer loop
      vertex 0.867867 -37 0.386399
      vertex 0.768566 -27 0.558395
      vertex 0.867867 -27 0.386399
    endloop
  endfacet
  facet normal -0.866027 -0 -0.499996
    outer loop
      vertex 0.768566 -27 0.558395
      vertex 0.867867 -37 0.386399
      vertex 0.768566 -37 0.558395
    endloop
  endfacet
  facet normal 0.866027 -0 0.499996
    outer loop
      vertex -0.867867 -37 -0.386399
      vertex -0.768566 -27 -0.558395
      vertex -0.867867 -27 -0.386399
    endloop
  endfacet
  facet normal 0.866027 0 0.499996
    outer loop
      vertex -0.768566 -27 -0.558395
      vertex -0.867867 -37 -0.386399
      vertex -0.768566 -37 -0.558395
    endloop
  endfacet
  facet normal 0.40674 -3.35693e-19 -0.913544
    outer loop
      vertex -0.474999 -37 0.822723
      vertex -0.293566 -27 0.903503
      vertex -0.293566 -37 0.903503
    endloop
  endfacet
  facet normal 0.40674 -3.35693e-19 -0.913544
    outer loop
      vertex -0.293566 -27 0.903503
      vertex -0.474999 -37 0.822723
      vertex -0.474999 -27 0.822723
    endloop
  endfacet
  facet normal 0.207915 3.96605e-19 -0.978147
    outer loop
      vertex -0.293566 -37 0.903503
      vertex -0.0993013 -27 0.944796
      vertex -0.0993013 -37 0.944796
    endloop
  endfacet
  facet normal 0.207915 3.96605e-19 -0.978147
    outer loop
      vertex -0.0993013 -27 0.944796
      vertex -0.293566 -37 0.903503
      vertex -0.293566 -27 0.903503
    endloop
  endfacet
  facet normal 0.743146 -0 0.669129
    outer loop
      vertex -0.768566 -37 -0.558395
      vertex -0.635674 -27 -0.705987
      vertex -0.768566 -27 -0.558395
    endloop
  endfacet
  facet normal 0.743146 0 0.669129
    outer loop
      vertex -0.635674 -27 -0.705987
      vertex -0.768566 -37 -0.558395
      vertex -0.635674 -37 -0.705987
    endloop
  endfacet
  facet normal -0 0 1
    outer loop
      vertex -0.0993013 -27 -0.944796
      vertex 0.0993013 -37 -0.944796
      vertex 0.0993013 -27 -0.944796
    endloop
  endfacet
  facet normal 0 0 1
    outer loop
      vertex 0.0993013 -37 -0.944796
      vertex -0.0993013 -27 -0.944796
      vertex -0.0993013 -37 -0.944796
    endloop
  endfacet
  facet normal -0.994521 0 -0.104535
    outer loop
      vertex 0.95 -37 0
      vertex 0.929239 -27 0.197515
      vertex 0.95 -27 0
    endloop
  endfacet
  facet normal -0.994521 -0 -0.104535
    outer loop
      vertex 0.929239 -27 0.197515
      vertex 0.95 -37 0
      vertex 0.929239 -37 0.197515
    endloop
  endfacet
  facet normal 0 -1 0
    outer loop
      vertex -1.5 -37 2.59808
      vertex 0.0493507 -37 1.09889
      vertex 1.5 -37 2.59808
    endloop
  endfacet
  facet normal 0 -1 0
    outer loop
      vertex -1.5 -37 2.59808
      vertex -0.147656 -37 1.09004
      vertex 0.0493507 -37 1.09889
    endloop
  endfacet
  facet normal 0 -1 0
    outer loop
      vertex -1.5 -37 2.59808
      vertex -0.339918 -37 1.04616
      vertex -0.147656 -37 1.09004
    endloop
  endfacet
  facet normal 0 -1 0
    outer loop
      vertex -1.5 -37 2.59808
      vertex -0.521255 -37 0.968655
      vertex -0.339918 -37 1.04616
    endloop
  endfacet
  facet normal 0 -1 0
    outer loop
      vertex -1.5 -37 2.59808
      vertex -0.685839 -37 0.860014
      vertex -0.521255 -37 0.968655
    endloop
  endfacet
  facet normal 0 -1 0
    outer loop
      vertex -1.5 -37 2.59808
      vertex -0.828378 -37 0.723732
      vertex -0.685839 -37 0.860014
    endloop
  endfacet
  facet normal 0 -1 0
    outer loop
      vertex -1.5 -37 2.59808
      vertex -0.944293 -37 0.564189
      vertex -0.828378 -37 0.723732
    endloop
  endfacet
  facet normal 0 -1 0
    outer loop
      vertex -3 -37 0
      vertex -0.944293 -37 0.564189
      vertex -1.5 -37 2.59808
    endloop
  endfacet
  facet normal 0 -1 0
    outer loop
      vertex -0.944293 -37 0.564189
      vertex -3 -37 0
      vertex -1.02986 -37 0.386512
    endloop
  endfacet
  facet normal 0 -1 0
    outer loop
      vertex -1.02986 -37 0.386512
      vertex -3 -37 0
      vertex -1.08232 -37 0.196412
    endloop
  endfacet
  facet normal 0 -1 0
    outer loop
      vertex -3 -37 0
      vertex -1.1 -37 0
      vertex -1.08232 -37 0.196412
    endloop
  endfacet
  facet normal 0 -1 0
    outer loop
      vertex -3 -37 0
      vertex -1.08232 -37 -0.196412
      vertex -1.1 -37 0
    endloop
  endfacet
  facet normal 0 -1 0
    outer loop
      vertex -3 -37 0
      vertex -1.02986 -37 -0.386512
      vertex -1.08232 -37 -0.196412
    endloop
  endfacet
  facet normal 0 -1 0
    outer loop
      vertex -3 -37 0
      vertex -0.944293 -37 -0.564189
      vertex -1.02986 -37 -0.386512
    endloop
  endfacet
  facet normal 0 -1 0
    outer loop
      vertex -1.5 -37 -2.59808
      vertex -0.944293 -37 -0.564189
      vertex -3 -37 0
    endloop
  endfacet
  facet normal 0 -1 -0
    outer loop
      vertex -0.944293 -37 -0.564189
      vertex -1.5 -37 -2.59808
      vertex -0.828378 -37 -0.723732
    endloop
  endfacet
  facet normal 0 -1 -0
    outer loop
      vertex -0.828378 -37 -0.723732
      vertex -1.5 -37 -2.59808
      vertex -0.685839 -37 -0.860014
    endloop
  endfacet
  facet normal 0 -1 -0
    outer loop
      vertex -0.685839 -37 -0.860014
      vertex -1.5 -37 -2.59808
      vertex -0.521255 -37 -0.968655
    endloop
  endfacet
  facet normal 0 -1 -0
    outer loop
      vertex -0.147656 -37 -1.09004
      vertex -1.5 -37 -2.59808
      vertex 0.0493507 -37 -1.09889
    endloop
  endfacet
  facet normal 0 -1 -0
    outer loop
      vertex -0.339918 -37 -1.04616
      vertex -1.5 -37 -2.59808
      vertex -0.147656 -37 -1.09004
    endloop
  endfacet
  facet normal 0 -1 -0
    outer loop
      vertex -0.521255 -37 -0.968655
      vertex -1.5 -37 -2.59808
      vertex -0.339918 -37 -1.04616
    endloop
  endfacet
  facet normal 0 -1 0
    outer loop
      vertex 0.244773 -37 1.07242
      vertex 1.5 -37 2.59808
      vertex 0.0493507 -37 1.09889
    endloop
  endfacet
  facet normal 0 -1 0
    outer loop
      vertex 0.432327 -37 1.01148
      vertex 1.5 -37 2.59808
      vertex 0.244773 -37 1.07242
    endloop
  endfacet
  facet normal 0 -1 0
    outer loop
      vertex 0.605987 -37 0.91803
      vertex 1.5 -37 2.59808
      vertex 0.432327 -37 1.01148
    endloop
  endfacet
  facet normal 0 -1 0
    outer loop
      vertex 0.760168 -37 0.795074
      vertex 1.5 -37 2.59808
      vertex 0.605987 -37 0.91803
    endloop
  endfacet
  facet normal 0 -1 0
    outer loop
      vertex 0.889918 -37 0.646564
      vertex 1.5 -37 2.59808
      vertex 0.760168 -37 0.795074
    endloop
  endfacet
  facet normal 0 -1 0
    outer loop
      vertex 0.991065 -37 0.477272
      vertex 1.5 -37 2.59808
      vertex 0.889918 -37 0.646564
    endloop
  endfacet
  facet normal 0 -1 0
    outer loop
      vertex 3 -37 0
      vertex 0.991065 -37 0.477272
      vertex 1.06036 -37 0.29264
    endloop
  endfacet
  facet normal 0 -1 0
    outer loop
      vertex 3 -37 0
      vertex 1.06036 -37 0.29264
      vertex 1.09557 -37 0.0986023
    endloop
  endfacet
  facet normal 0 -1 0
    outer loop
      vertex 0.991065 -37 0.477272
      vertex 3 -37 0
      vertex 1.5 -37 2.59808
    endloop
  endfacet
  facet normal 0 -1 0
    outer loop
      vertex 1.09557 -37 -0.0986023
      vertex 3 -37 0
      vertex 1.09557 -37 0.0986023
    endloop
  endfacet
  facet normal 0 -1 0
    outer loop
      vertex 1.06036 -37 -0.29264
      vertex 3 -37 0
      vertex 1.09557 -37 -0.0986023
    endloop
  endfacet
  facet normal 0 -1 0
    outer loop
      vertex 0.991065 -37 -0.477272
      vertex 3 -37 0
      vertex 1.06036 -37 -0.29264
    endloop
  endfacet
  facet normal 0 -1 0
    outer loop
      vertex 1.5 -37 -2.59808
      vertex 0.991065 -37 -0.477272
      vertex 0.889918 -37 -0.646564
    endloop
  endfacet
  facet normal 0 -1 0
    outer loop
      vertex 1.5 -37 -2.59808
      vertex 0.889918 -37 -0.646564
      vertex 0.760168 -37 -0.795074
    endloop
  endfacet
  facet normal 0 -1 0
    outer loop
      vertex 1.5 -37 -2.59808
      vertex 0.760168 -37 -0.795074
      vertex 0.605987 -37 -0.91803
    endloop
  endfacet
  facet normal 0 -1 0
    outer loop
      vertex 1.5 -37 -2.59808
      vertex 0.605987 -37 -0.91803
      vertex 0.432327 -37 -1.01148
    endloop
  endfacet
  facet normal 0 -1 0
    outer loop
      vertex 1.5 -37 -2.59808
      vertex 0.0493507 -37 -1.09889
      vertex -1.5 -37 -2.59808
    endloop
  endfacet
  facet normal 0 -1 0
    outer loop
      vertex 0.0493507 -37 -1.09889
      vertex 1.5 -37 -2.59808
      vertex 0.244773 -37 -1.07242
    endloop
  endfacet
  facet normal 0 -1 0
    outer loop
      vertex 0.244773 -37 -1.07242
      vertex 1.5 -37 -2.59808
      vertex 0.432327 -37 -1.01148
    endloop
  endfacet
  facet normal 0 -1 0
    outer loop
      vertex 0.991065 -37 -0.477272
      vertex 1.5 -37 -2.59808
      vertex 3 -37 0
    endloop
  endfacet
  facet normal 0 -1 -0
    outer loop
      vertex -0.147656 -37 1.09004
      vertex -0.293566 -37 0.903503
      vertex -0.0993013 -37 0.944796
    endloop
  endfacet
  facet normal 0 -1 0
    outer loop
      vertex -0.474999 -37 0.822723
      vertex -0.521255 -37 0.968655
      vertex -0.685839 -37 0.860014
    endloop
  endfacet
  facet normal 0 -1 0
    outer loop
      vertex -0.521255 -37 0.968655
      vertex -0.474999 -37 0.822723
      vertex -0.293566 -37 0.903503
    endloop
  endfacet
  facet normal 0 -1 0
    outer loop
      vertex -0.635674 -37 0.705987
      vertex -0.685839 -37 0.860014
      vertex -0.828378 -37 0.723732
    endloop
  endfacet
  facet normal 0 -1 0
    outer loop
      vertex -0.685839 -37 0.860014
      vertex -0.635674 -37 0.705987
      vertex -0.474999 -37 0.822723
    endloop
  endfacet
  facet normal 0 -1 0
    outer loop
      vertex -0.768566 -37 0.558395
      vertex -0.828378 -37 0.723732
      vertex -0.944293 -37 0.564189
    endloop
  endfacet
  facet normal 0 -1 0
    outer loop
      vertex -0.828378 -37 0.723732
      vertex -0.768566 -37 0.558395
      vertex -0.635674 -37 0.705987
    endloop
  endfacet
  facet normal 0 -1 0
    outer loop
      vertex -0.867867 -37 0.386399
      vertex -0.944293 -37 0.564189
      vertex -1.02986 -37 0.386512
    endloop
  endfacet
  facet normal 0 -1 0
    outer loop
      vertex -0.944293 -37 0.564189
      vertex -0.867867 -37 0.386399
      vertex -0.768566 -37 0.558395
    endloop
  endfacet
  facet normal 0 -1 0
    outer loop
      vertex -1.02986 -37 0.386512
      vertex -0.929239 -37 0.197515
      vertex -0.867867 -37 0.386399
    endloop
  endfacet
  facet normal 0 -1 0
    outer loop
      vertex -1.08232 -37 0.196412
      vertex -0.929239 -37 0.197515
      vertex -1.02986 -37 0.386512
    endloop
  endfacet
  facet normal 0 -1 0
    outer loop
      vertex -0.95 -37 0
      vertex -1.08232 -37 0.196412
      vertex -1.1 -37 0
    endloop
  endfacet
  facet normal 0 -1 0
    outer loop
      vertex -1.08232 -37 0.196412
      vertex -0.95 -37 0
      vertex -0.929239 -37 0.197515
    endloop
  endfacet
  facet normal 0 -1 0
    outer loop
      vertex -1.08232 -37 -0.196412
      vertex -0.95 -37 0
      vertex -1.1 -37 0
    endloop
  endfacet
  facet normal 0 -1 0
    outer loop
      vertex -1.08232 -37 -0.196412
      vertex -0.929239 -37 -0.197515
      vertex -0.95 -37 0
    endloop
  endfacet
  facet normal 0 -1 0
    outer loop
      vertex -1.02986 -37 -0.386512
      vertex -0.929239 -37 -0.197515
      vertex -1.08232 -37 -0.196412
    endloop
  endfacet
  facet normal 0 -1 -0
    outer loop
      vertex -0.929239 -37 -0.197515
      vertex -1.02986 -37 -0.386512
      vertex -0.867867 -37 -0.386399
    endloop
  endfacet
  facet normal 0 -1 0
    outer loop
      vertex -0.944293 -37 -0.564189
      vertex -0.867867 -37 -0.386399
      vertex -1.02986 -37 -0.386512
    endloop
  endfacet
  facet normal 0 -1 -0
    outer loop
      vertex -0.867867 -37 -0.386399
      vertex -0.944293 -37 -0.564189
      vertex -0.768566 -37 -0.558395
    endloop
  endfacet
  facet normal 0 -1 0
    outer loop
      vertex -0.828378 -37 -0.723732
      vertex -0.768566 -37 -0.558395
      vertex -0.944293 -37 -0.564189
    endloop
  endfacet
  facet normal 0 -1 -0
    outer loop
      vertex -0.768566 -37 -0.558395
      vertex -0.828378 -37 -0.723732
      vertex -0.635674 -37 -0.705987
    endloop
  endfacet
  facet normal 0 -1 0
    outer loop
      vertex -0.685839 -37 -0.860014
      vertex -0.635674 -37 -0.705987
      vertex -0.828378 -37 -0.723732
    endloop
  endfacet
  facet normal 0 -1 -0
    outer loop
      vertex -0.635674 -37 -0.705987
      vertex -0.685839 -37 -0.860014
      vertex -0.474999 -37 -0.822723
    endloop
  endfacet
  facet normal 0 -1 0
    outer loop
      vertex -0.521255 -37 -0.968655
      vertex -0.474999 -37 -0.822723
      vertex -0.685839 -37 -0.860014
    endloop
  endfacet
  facet normal 0 -1 -0
    outer loop
      vertex -0.474999 -37 -0.822723
      vertex -0.521255 -37 -0.968655
      vertex -0.293566 -37 -0.903503
    endloop
  endfacet
  facet normal 0 -1 0
    outer loop
      vertex -0.147656 -37 -1.09004
      vertex -0.293566 -37 -0.903503
      vertex -0.339918 -37 -1.04616
    endloop
  endfacet
  facet normal 0 -1 0
    outer loop
      vertex -0.339918 -37 -1.04616
      vertex -0.293566 -37 -0.903503
      vertex -0.521255 -37 -0.968655
    endloop
  endfacet
  facet normal 0 -1 0
    outer loop
      vertex -0.0993013 -37 0.944796
      vertex 0.0493507 -37 1.09889
      vertex -0.147656 -37 1.09004
    endloop
  endfacet
  facet normal 0 -1 0
    outer loop
      vertex -0.293566 -37 0.903503
      vertex -0.147656 -37 1.09004
      vertex -0.339918 -37 1.04616
    endloop
  endfacet
  facet normal 0 -1 -0
    outer loop
      vertex 0.0493507 -37 1.09889
      vertex -0.0993013 -37 0.944796
      vertex 0.0993013 -37 0.944796
    endloop
  endfacet
  facet normal 0 -1 0
    outer loop
      vertex -0.293566 -37 0.903503
      vertex -0.339918 -37 1.04616
      vertex -0.521255 -37 0.968655
    endloop
  endfacet
  facet normal 0 -1 0
    outer loop
      vertex 0.0493507 -37 1.09889
      vertex 0.0993013 -37 0.944796
      vertex 0.244773 -37 1.07242
    endloop
  endfacet
  facet normal 0 -1 0
    outer loop
      vertex 0.293566 -37 0.903503
      vertex 0.244773 -37 1.07242
      vertex 0.0993013 -37 0.944796
    endloop
  endfacet
  facet normal 0 -1 0
    outer loop
      vertex 0.244773 -37 1.07242
      vertex 0.293566 -37 0.903503
      vertex 0.432327 -37 1.01148
    endloop
  endfacet
  facet normal 0 -1 0
    outer loop
      vertex 0.474999 -37 0.822723
      vertex 0.432327 -37 1.01148
      vertex 0.293566 -37 0.903503
    endloop
  endfacet
  facet normal 0 -1 0
    outer loop
      vertex 0.432327 -37 1.01148
      vertex 0.474999 -37 0.822723
      vertex 0.605987 -37 0.91803
    endloop
  endfacet
  facet normal 0 -1 0
    outer loop
      vertex 0.635674 -37 0.705987
      vertex 0.605987 -37 0.91803
      vertex 0.474999 -37 0.822723
    endloop
  endfacet
  facet normal 0 -1 0
    outer loop
      vertex 0.605987 -37 0.91803
      vertex 0.635674 -37 0.705987
      vertex 0.760168 -37 0.795074
    endloop
  endfacet
  facet normal 0 -1 0
    outer loop
      vertex 0.768566 -37 0.558395
      vertex 0.760168 -37 0.795074
      vertex 0.635674 -37 0.705987
    endloop
  endfacet
  facet normal 0 -1 0
    outer loop
      vertex 0.760168 -37 0.795074
      vertex 0.768566 -37 0.558395
      vertex 0.889918 -37 0.646564
    endloop
  endfacet
  facet normal 0 -1 0
    outer loop
      vertex 0.768566 -37 0.558395
      vertex 0.991065 -37 0.477272
      vertex 0.889918 -37 0.646564
    endloop
  endfacet
  facet normal 0 -1 0
    outer loop
      vertex 0.867867 -37 0.386399
      vertex 0.991065 -37 0.477272
      vertex 0.768566 -37 0.558395
    endloop
  endfacet
  facet normal 0 -1 0
    outer loop
      vertex 0.867867 -37 0.386399
      vertex 1.06036 -37 0.29264
      vertex 0.991065 -37 0.477272
    endloop
  endfacet
  facet normal 0 -1 0
    outer loop
      vertex 0.929239 -37 0.197515
      vertex 1.06036 -37 0.29264
      vertex 0.867867 -37 0.386399
    endloop
  endfacet
  facet normal 0 -1 0
    outer loop
      vertex 0.929239 -37 0.197515
      vertex 1.09557 -37 0.0986023
      vertex 1.06036 -37 0.29264
    endloop
  endfacet
  facet normal 0 -1 0
    outer loop
      vertex 0.95 -37 0
      vertex 1.09557 -37 0.0986023
      vertex 0.929239 -37 0.197515
    endloop
  endfacet
  facet normal 0 -1 0
    outer loop
      vertex 0.95 -37 0
      vertex 1.09557 -37 -0.0986023
      vertex 1.09557 -37 0.0986023
    endloop
  endfacet
  facet normal 0 -1 0
    outer loop
      vertex 0.929239 -37 -0.197515
      vertex 1.09557 -37 -0.0986023
      vertex 0.95 -37 0
    endloop
  endfacet
  facet normal 0 -1 0
    outer loop
      vertex 0.929239 -37 -0.197515
      vertex 1.06036 -37 -0.29264
      vertex 1.09557 -37 -0.0986023
    endloop
  endfacet
  facet normal 0 -1 0
    outer loop
      vertex 0.867867 -37 -0.386399
      vertex 1.06036 -37 -0.29264
      vertex 0.929239 -37 -0.197515
    endloop
  endfacet
  facet normal 0 -1 0
    outer loop
      vertex 0.867867 -37 -0.386399
      vertex 0.991065 -37 -0.477272
      vertex 1.06036 -37 -0.29264
    endloop
  endfacet
  facet normal 0 -1 0
    outer loop
      vertex 0.768566 -37 -0.558395
      vertex 0.991065 -37 -0.477272
      vertex 0.867867 -37 -0.386399
    endloop
  endfacet
  facet normal 0 -1 0
    outer loop
      vertex 0.768566 -37 -0.558395
      vertex 0.889918 -37 -0.646564
      vertex 0.991065 -37 -0.477272
    endloop
  endfacet
  facet normal 0 -1 0
    outer loop
      vertex 0.760168 -37 -0.795074
      vertex 0.768566 -37 -0.558395
      vertex 0.635674 -37 -0.705987
    endloop
  endfacet
  facet normal 0 -1 -0
    outer loop
      vertex 0.768566 -37 -0.558395
      vertex 0.760168 -37 -0.795074
      vertex 0.889918 -37 -0.646564
    endloop
  endfacet
  facet normal 0 -1 0
    outer loop
      vertex 0.605987 -37 -0.91803
      vertex 0.635674 -37 -0.705987
      vertex 0.474999 -37 -0.822723
    endloop
  endfacet
  facet normal 0 -1 0
    outer loop
      vertex 0.432327 -37 -1.01148
      vertex 0.474999 -37 -0.822723
      vertex 0.293566 -37 -0.903503
    endloop
  endfacet
  facet normal 0 -1 -0
    outer loop
      vertex 0.635674 -37 -0.705987
      vertex 0.605987 -37 -0.91803
      vertex 0.760168 -37 -0.795074
    endloop
  endfacet
  facet normal 0 -1 0
    outer loop
      vertex 0.244773 -37 -1.07242
      vertex 0.293566 -37 -0.903503
      vertex 0.0993013 -37 -0.944796
    endloop
  endfacet
  facet normal 0 -1 -0
    outer loop
      vertex 0.474999 -37 -0.822723
      vertex 0.432327 -37 -1.01148
      vertex 0.605987 -37 -0.91803
    endloop
  endfacet
  facet normal 0 -1 0
    outer loop
      vertex -0.293566 -37 -0.903503
      vertex -0.147656 -37 -1.09004
      vertex -0.0993013 -37 -0.944796
    endloop
  endfacet
  facet normal 0 -1 0
    outer loop
      vertex 0.0493507 -37 -1.09889
      vertex -0.0993013 -37 -0.944796
      vertex -0.147656 -37 -1.09004
    endloop
  endfacet
  facet normal 0 -1 -0
    outer loop
      vertex 0.293566 -37 -0.903503
      vertex 0.244773 -37 -1.07242
      vertex 0.432327 -37 -1.01148
    endloop
  endfacet
  facet normal 0 -1 0
    outer loop
      vertex -0.0993013 -37 -0.944796
      vertex 0.0493507 -37 -1.09889
      vertex 0.0993013 -37 -0.944796
    endloop
  endfacet
  facet normal 0 -1 -0
    outer loop
      vertex 0.0993013 -37 -0.944796
      vertex 0.0493507 -37 -1.09889
      vertex 0.244773 -37 -1.07242
    endloop
  endfacet
  facet normal 0 0 -1
    outer loop
      vertex -1.5 -37 -2.59808
      vertex 1.5 0 -2.59808
      vertex 1.5 -37 -2.59808
    endloop
  endfacet
  facet normal -0 0 -1
    outer loop
      vertex 1.5 0 -2.59808
      vertex -1.5 -37 -2.59808
      vertex -1.5 0 -2.59808
    endloop
  endfacet
  facet normal 0.866026 0 -0.499999
    outer loop
      vertex 3 -37 0
      vertex 1.5 0 -2.59808
      vertex 3 0 0
    endloop
  endfacet
  facet normal 0.866026 0 -0.499999
    outer loop
      vertex 1.5 0 -2.59808
      vertex 3 -37 0
      vertex 1.5 -37 -2.59808
    endloop
  endfacet
  facet normal -0 0 1
    outer loop
      vertex -1.5 0 2.59808
      vertex 1.5 -37 2.59808
      vertex 1.5 0 2.59808
    endloop
  endfacet
  facet normal 0 0 1
    outer loop
      vertex 1.5 -37 2.59808
      vertex -1.5 0 2.59808
      vertex -1.5 -37 2.59808
    endloop
  endfacet
  facet normal 0.866026 -0 0.499999
    outer loop
      vertex 1.5 -37 2.59808
      vertex 3 0 0
      vertex 1.5 0 2.59808
    endloop
  endfacet
  facet normal 0.866026 0 0.499999
    outer loop
      vertex 3 0 0
      vertex 1.5 -37 2.59808
      vertex 3 -37 0
    endloop
  endfacet
  facet normal -0.866026 0 0.499999
    outer loop
      vertex -3 -37 0
      vertex -1.5 0 2.59808
      vertex -3 0 0
    endloop
  endfacet
  facet normal -0.866026 0 0.499999
    outer loop
      vertex -1.5 0 2.59808
      vertex -3 -37 0
      vertex -1.5 -37 2.59808
    endloop
  endfacet
  facet normal -0.866026 0 -0.499999
    outer loop
      vertex -1.5 -37 -2.59808
      vertex -3 0 0
      vertex -1.5 0 -2.59808
    endloop
  endfacet
  facet normal -0.866026 -0 -0.499999
    outer loop
      vertex -3 0 0
      vertex -1.5 -37 -2.59808
      vertex -3 -37 0
    endloop
  endfacet
  facet normal 0 1 0
    outer loop
      vertex 1.5 0 2.59808
      vertex -0.0497932 0 1.29905
      vertex -1.5 0 2.59808
    endloop
  endfacet
  facet normal 0 1 0
    outer loop
      vertex 1.5 0 2.59808
      vertex 0.149088 0 1.29142
      vertex -0.0497932 0 1.29905
    endloop
  endfacet
  facet normal 0 1 0
    outer loop
      vertex 1.5 0 2.59808
      vertex 0.344476 0 1.25353
      vertex 0.149088 0 1.29142
    endloop
  endfacet
  facet normal 0 1 0
    outer loop
      vertex 1.5 0 2.59808
      vertex 0.531789 0 1.18625
      vertex 0.344476 0 1.25353
    endloop
  endfacet
  facet normal 0 1 0
    outer loop
      vertex 1.5 0 2.59808
      vertex 0.706637 0 1.09117
      vertex 0.531789 0 1.18625
    endloop
  endfacet
  facet normal 0 1 0
    outer loop
      vertex 1.5 0 2.59808
      vertex 0.864923 0 0.970519
      vertex 0.706637 0 1.09117
    endloop
  endfacet
  facet normal 0 1 0
    outer loop
      vertex 1.5 0 2.59808
      vertex 1.00294 0 0.827115
      vertex 0.864923 0 0.970519
    endloop
  endfacet
  facet normal 0 1 0
    outer loop
      vertex 1.5 0 2.59808
      vertex 1.11744 0 0.664324
      vertex 1.00294 0 0.827115
    endloop
  endfacet
  facet normal 0 1 0
    outer loop
      vertex 3 0 0
      vertex 1.11744 0 0.664324
      vertex 1.5 0 2.59808
    endloop
  endfacet
  facet normal 0 1 0
    outer loop
      vertex 1.11744 0 0.664324
      vertex 3 0 0
      vertex 1.20575 0 0.485962
    endloop
  endfacet
  facet normal 0 1 0
    outer loop
      vertex 1.20575 0 0.485962
      vertex 3 0 0
      vertex 1.2658 0 0.296209
    endloop
  endfacet
  facet normal 0 1 0
    outer loop
      vertex 1.2658 0 0.296209
      vertex 3 0 0
      vertex 1.29619 0 0.099514
    endloop
  endfacet
  facet normal 0 1 0
    outer loop
      vertex 3 0 0
      vertex 1.29619 0 -0.099514
      vertex 1.29619 0 0.099514
    endloop
  endfacet
  facet normal 0 1 0
    outer loop
      vertex 3 0 0
      vertex 1.2658 0 -0.296209
      vertex 1.29619 0 -0.099514
    endloop
  endfacet
  facet normal 0 1 0
    outer loop
      vertex 3 0 0
      vertex 1.20575 0 -0.485962
      vertex 1.2658 0 -0.296209
    endloop
  endfacet
  facet normal 0 1 0
    outer loop
      vertex 3 0 0
      vertex 1.11744 0 -0.664324
      vertex 1.20575 0 -0.485962
    endloop
  endfacet
  facet normal 0 1 -0
    outer loop
      vertex 1.5 0 -2.59808
      vertex 1.11744 0 -0.664324
      vertex 3 0 0
    endloop
  endfacet
  facet normal 0 1 0
    outer loop
      vertex 1.11744 0 -0.664324
      vertex 1.5 0 -2.59808
      vertex 1.00294 0 -0.827115
    endloop
  endfacet
  facet normal 0 1 0
    outer loop
      vertex 1.00294 0 -0.827115
      vertex 1.5 0 -2.59808
      vertex 0.864923 0 -0.970519
    endloop
  endfacet
  facet normal 0 1 0
    outer loop
      vertex 0.864923 0 -0.970519
      vertex 1.5 0 -2.59808
      vertex 0.706637 0 -1.09117
    endloop
  endfacet
  facet normal 0 1 0
    outer loop
      vertex 0.149088 0 -1.29142
      vertex 1.5 0 -2.59808
      vertex -0.0497932 0 -1.29905
    endloop
  endfacet
  facet normal 0 1 0
    outer loop
      vertex 0.344476 0 -1.25353
      vertex 1.5 0 -2.59808
      vertex 0.149088 0 -1.29142
    endloop
  endfacet
  facet normal 0 1 0
    outer loop
      vertex 0.531789 0 -1.18625
      vertex 1.5 0 -2.59808
      vertex 0.344476 0 -1.25353
    endloop
  endfacet
  facet normal 0 1 0
    outer loop
      vertex 0.706637 0 -1.09117
      vertex 1.5 0 -2.59808
      vertex 0.531789 0 -1.18625
    endloop
  endfacet
  facet normal 0 1 -0
    outer loop
      vertex -0.247508 0 1.27622
      vertex -1.5 0 2.59808
      vertex -0.0497932 0 1.29905
    endloop
  endfacet
  facet normal 0 1 -0
    outer loop
      vertex -0.439422 0 1.22348
      vertex -1.5 0 2.59808
      vertex -0.247508 0 1.27622
    endloop
  endfacet
  facet normal 0 1 -0
    outer loop
      vertex -0.621036 0 1.14207
      vertex -1.5 0 2.59808
      vertex -0.439422 0 1.22348
    endloop
  endfacet
  facet normal 0 1 -0
    outer loop
      vertex -0.788093 0 1.03388
      vertex -1.5 0 2.59808
      vertex -0.621036 0 1.14207
    endloop
  endfacet
  facet normal 0 1 -0
    outer loop
      vertex -0.936678 0 0.901462
      vertex -1.5 0 2.59808
      vertex -0.788093 0 1.03388
    endloop
  endfacet
  facet normal 0 1 -0
    outer loop
      vertex -1.06331 0 0.747913
      vertex -1.5 0 2.59808
      vertex -0.936678 0 0.901462
    endloop
  endfacet
  facet normal 0 1 -0
    outer loop
      vertex -1.16502 0 0.576836
      vertex -1.5 0 2.59808
      vertex -1.06331 0 0.747913
    endloop
  endfacet
  facet normal 0 1 0
    outer loop
      vertex -3 0 0
      vertex -1.16502 0 0.576836
      vertex -1.23942 0 0.392237
    endloop
  endfacet
  facet normal 0 1 0
    outer loop
      vertex -3 0 0
      vertex -1.23942 0 0.392237
      vertex -1.28476 0 0.198443
    endloop
  endfacet
  facet normal 0 1 0
    outer loop
      vertex -3 0 0
      vertex -1.28476 0 0.198443
      vertex -1.3 0 0
    endloop
  endfacet
  facet normal 0 1 0
    outer loop
      vertex -1.16502 0 0.576836
      vertex -3 0 0
      vertex -1.5 0 2.59808
    endloop
  endfacet
  facet normal 0 1 0
    outer loop
      vertex -1.28476 0 -0.198443
      vertex -3 0 0
      vertex -1.3 0 0
    endloop
  endfacet
  facet normal 0 1 0
    outer loop
      vertex -1.23942 0 -0.392237
      vertex -3 0 0
      vertex -1.28476 0 -0.198443
    endloop
  endfacet
  facet normal 0 1 0
    outer loop
      vertex -1.16502 0 -0.576836
      vertex -3 0 0
      vertex -1.23942 0 -0.392237
    endloop
  endfacet
  facet normal 0 1 0
    outer loop
      vertex -1.5 0 -2.59808
      vertex -1.16502 0 -0.576836
      vertex -1.06331 0 -0.747913
    endloop
  endfacet
  facet normal 0 1 0
    outer loop
      vertex -1.5 0 -2.59808
      vertex -1.06331 0 -0.747913
      vertex -0.936678 0 -0.901462
    endloop
  endfacet
  facet normal 0 1 0
    outer loop
      vertex -1.5 0 -2.59808
      vertex -0.936678 0 -0.901462
      vertex -0.788093 0 -1.03388
    endloop
  endfacet
  facet normal 0 1 0
    outer loop
      vertex -1.5 0 -2.59808
      vertex -0.788093 0 -1.03388
      vertex -0.621036 0 -1.14207
    endloop
  endfacet
  facet normal 0 1 0
    outer loop
      vertex -1.5 0 -2.59808
      vertex -0.0497932 0 -1.29905
      vertex 1.5 0 -2.59808
    endloop
  endfacet
  facet normal 0 1 0
    outer loop
      vertex -0.0497932 0 -1.29905
      vertex -1.5 0 -2.59808
      vertex -0.247508 0 -1.27622
    endloop
  endfacet
  facet normal 0 1 0
    outer loop
      vertex -0.247508 0 -1.27622
      vertex -1.5 0 -2.59808
      vertex -0.439422 0 -1.22348
    endloop
  endfacet
  facet normal 0 1 0
    outer loop
      vertex -0.439422 0 -1.22348
      vertex -1.5 0 -2.59808
      vertex -0.621036 0 -1.14207
    endloop
  endfacet
  facet normal 0 1 0
    outer loop
      vertex -1.16502 0 -0.576836
      vertex -1.5 0 -2.59808
      vertex -3 0 0
    endloop
  endfacet
endsolid OpenSCAD_Model
