999
dxfrw 0.6.3
  0
SECTION
  2
HEADER
  9
$ACADVER
  1
AC1021
  9
$DWGCODEPAGE
  3
ANSI_1252
  9
$INSBASE
 10
0
 20
0
 30
0
  9
$EXTMIN
 10
-33.30767850592594
 20
-9.796850830579018e-016
 30
0
  9
$EXTMAX
 10
116.6923214940741
 20
26
 30
0
  9
$LIMMIN
 10
0
 20
0
  9
$LIMMAX
 10
420
 20
297
  9
$ORTHOMODE
 70
    0
  9
$REGENMODE
 70
    1
  9
$FILLMODE
 70
    1
  9
$QTEXTMODE
 70
    0
  9
$MIRRTEXT
 70
    0
  9
$LTSCALE
 40
1
  9
$ATTMODE
 70
    0
  9
$TEXTSIZE
 40
2.5
  9
$TRACEWID
 40
15.68
  9
$TEXTSTYLE
  7
STANDARD
  9
$CLAYER
  8
HotEndBracket
  9
$CELTYPE
  6
BYLAYER
  9
$CECOLOR
 62
  256
  9
$CELTSCALE
 40
1
  9
$DISPSILH
 70
    0
  9
$DIMSCALE
 40
2.5
  9
$DIMASZ
 40
0.25
  9
$DIMEXO
 40
0.0625
  9
$DIMDLI
 40
3.75
  9
$DIMRND
 40
0
  9
$DIMDLE
 40
0
  9
$DIMEXE
 40
0.125
  9
$DIMTP
 40
0
  9
$DIMTM
 40
0
  9
$DIMTXT
 40
0.25
  9
$DIMCEN
 40
2.5
  9
$DIMTSZ
 40
0
  9
$DIMTOL
 70
    0
  9
$DIMLIM
 70
    0
  9
$DIMTIH
 70
    0
  9
$DIMTOH
 70
    0
  9
$DIMSE1
 70
    0
  9
$DIMSE2
 70
    0
  9
$DIMTAD
 70
    1
  9
$DIMZIN
 70
    8
  9
$DIMBLK
  1

  9
$DIMASO
 70
    1
  9
$DIMSHO
 70
    1
  9
$DIMPOST
  1

  9
$DIMAPOST
  1

  9
$DIMALT
 70
    0
  9
$DIMALTD
 70
    3
  9
$DIMALTF
 40
0.03937
  9
$DIMLFAC
 40
1
  9
$DIMTOFL
 70
    1
  9
$DIMTVP
 40
0
  9
$DIMTIX
 70
    0
  9
$DIMSOXD
 70
    0
  9
$DIMSAH
 70
    0
  9
$DIMBLK1
  1

  9
$DIMBLK2
  1

  9
$DIMSTYLE
  2
STANDARD
  9
$DIMCLRD
 70
    0
  9
$DIMCLRE
 70
    0
  9
$DIMCLRT
 70
    0
  9
$DIMTFAC
 40
1
  9
$DIMGAP
 40
0.0625
  9
$DIMJUST
 70
    0
  9
$DIMSD1
 70
    0
  9
$DIMSD2
 70
    0
  9
$DIMTOLJ
 70
    0
  9
$DIMTZIN
 70
    8
  9
$DIMALTZ
 70
    0
  9
$DIMALTTZ
 70
    0
  9
$DIMUPT
 70
    0
  9
$DIMDEC
 70
    2
  9
$DIMTDEC
 70
    2
  9
$DIMALTU
 70
    2
  9
$DIMALTTD
 70
    3
  9
$DIMTXSTY
  7
standard
  9
$DIMAUNIT
 70
    0
  9
$DIMADEC
 70
    0
  9
$DIMALTRND
 40
0
  9
$DIMAZIN
 70
    0
  9
$DIMDSEP
 70
   44
  9
$DIMATFIT
 70
    3
  9
$DIMFRAC
 70
    0
  9
$DIMLDRBLK
  1
STANDARD
  9
$DIMLUNIT
 70
    2
  9
$DIMLWD
 70
   -2
  9
$DIMLWE
 70
   -2
  9
$DIMTMOVE
 70
    0
  9
$DIMFXL
 40
1
  9
$DIMFXLON
 70
    0
  9
$DIMJOGANG
 40
0.7854
  9
$DIMTFILL
 70
    0
  9
$DIMTFILLCLR
 70
    0
  9
$DIMARCSYM
 70
    0
  9
$DIMLTYPE
  6

  9
$DIMLTEX1
  6

  9
$DIMLTEX2
  6

  9
$LUNITS
 70
    2
  9
$LUPREC
 70
    4
  9
$SKETCHINC
 40
1
  9
$FILLETRAD
 40
0
  9
$AUNITS
 70
    0
  9
$AUPREC
 70
    2
  9
$MENU
  1
.
  9
$ELEVATION
 40
0
  9
$PELEVATION
 40
0
  9
$THICKNESS
 40
0
  9
$LIMCHECK
 70
    0
  9
$CHAMFERA
 40
0
  9
$CHAMFERB
 40
0
  9
$CHAMFERC
 40
0
  9
$CHAMFERD
 40
0
  9
$SKPOLY
 70
    0
  9
$USRTIMER
 70
    1
  9
$ANGBASE
 50
0
  9
$ANGDIR
 70
    0
  9
$PDMODE
 70
   34
  9
$PDSIZE
 40
0
  9
$PLINEWID
 40
0
  9
$SPLFRAME
 70
    0
  9
$SPLINETYPE
 70
    2
  9
$SPLINESEGS
 70
    8
  9
$HANDSEED
  5
20000
  9
$SURFTAB1
 70
    6
  9
$SURFTAB2
 70
    6
  9
$SURFTYPE
 70
    6
  9
$SURFU
 70
    6
  9
$SURFV
 70
    6
  9
$UCSBASE
  2

  9
$UCSNAME
  2

  9
$UCSORG
 10
0
 20
0
 30
0
  9
$UCSXDIR
 10
1
 20
0
 30
0
  9
$UCSYDIR
 10
0
 20
1
 30
0
  9
$UCSORTHOREF
  2

  9
$UCSORTHOVIEW
 70
    0
  9
$UCSORGTOP
 10
0
 20
0
 30
0
  9
$UCSORGBOTTOM
 10
0
 20
0
 30
0
  9
$UCSORGLEFT
 10
0
 20
0
 30
0
  9
$UCSORGRIGHT
 10
0
 20
0
 30
0
  9
$UCSORGFRONT
 10
0
 20
0
 30
0
  9
$UCSORGBACK
 10
0
 20
0
 30
0
  9
$PUCSBASE
  2

  9
$PUCSNAME
  2

  9
$PUCSORG
 10
0
 20
0
 30
0
  9
$PUCSXDIR
 10
1
 20
0
 30
0
  9
$PUCSYDIR
 10
0
 20
1
 30
0
  9
$PUCSORTHOREF
  2

  9
$PUCSORTHOVIEW
 70
    0
  9
$PUCSORGTOP
 10
0
 20
0
 30
0
  9
$PUCSORGBOTTOM
 10
0
 20
0
 30
0
  9
$PUCSORGLEFT
 10
0
 20
0
 30
0
  9
$PUCSORGRIGHT
 10
0
 20
0
 30
0
  9
$PUCSORGFRONT
 10
0
 20
0
 30
0
  9
$PUCSORGBACK
 10
0
 20
0
 30
0
  9
$USERI1
 70
    0
  9
$USERI2
 70
    0
  9
$USERI3
 70
    0
  9
$USERI4
 70
    0
  9
$USERI5
 70
    0
  9
$USERR1
 40
0
  9
$USERR2
 40
0
  9
$USERR3
 40
0
  9
$USERR4
 40
0
  9
$USERR5
 40
0
  9
$WORLDVIEW
 70
    1
  9
$SHADEDGE
 70
    3
  9
$SHADEDIF
 70
   70
  9
$TILEMODE
 70
    1
  9
$MAXACTVP
 70
   64
  9
$PINSBASE
 10
0
 20
0
 30
0
  9
$PLIMCHECK
 70
    0
  9
$PEXTMIN
 10
0
 20
0
 30
0
  9
$PEXTMAX
 10
0
 20
0
 30
0
  9
$GRIDMODE
 70
    1
  9
$SNAPSTYLE
 70
    0
  9
$GRIDUNIT
 10
0
 20
0
  9
$PLIMMIN
 10
0
 20
0
  9
$PLIMMAX
 10
0
 20
0
  9
$UNITMODE
 70
    0
  9
$VISRETAIN
 70
    1
  9
$PLINEGEN
 70
    0
  9
$PSLTSCALE
 70
    1
  9
$TREEDEPTH
 70
 3020
  9
$CMLSTYLE
  2
Standard
  9
$CMLJUST
 70
    0
  9
$CMLSCALE
 40
20
  9
$PROXYGRAPHICS
 70
    1
  9
$MEASUREMENT
 70
    1
  9
$CELWEIGHT
370
   -1
  9
$ENDCAPS
280
    0
  9
$JOINSTYLE
280
    0
  9
$LWDISPLAY
290
    0
  9
$INSUNITS
 70
    4
  9
$HYPERLINKBASE
  1

  9
$STYLESHEET
  1

  9
$XEDIT
290
    1
  9
$CEPSNTYPE
380
    0
  9
$PSTYLEMODE
290
    1
  9
$EXTNAMES
290
    1
  9
$PSVPSCALE
 40
1
  9
$OLESTARTUP
290
    0
  9
$SORTENTS
280
  127
  9
$INDEXCTL
280
    0
  9
$HIDETEXT
280
    1
  9
$XCLIPFRAME
290
    0
  9
$HALOGAP
280
    0
  9
$OBSCOLOR
 70
  257
  9
$OBSLTYPE
280
    0
  9
$INTERSECTIONDISPLAY
280
    0
  9
$INTERSECTIONCOLOR
 70
  257
  9
$DIMASSOC
280
    1
  9
$PROJECTNAME
  1

  9
$CAMERADISPLAY
290
    0
  9
$LENSLENGTH
 40
50
  9
$CAMERAHEIGHT
 40
0
  9
$STEPSPERSEC
 40
2
  9
$STEPSIZE
 40
50
  9
$3DDWFPREC
 40
2
  9
$PSOLWIDTH
 40
5
  9
$PSOLHEIGHT
 40
80
  9
$LOFTANG1
 40
1.570796326794897
  9
$LOFTANG2
 40
1.570796326794897
  9
$LOFTMAG1
 40
0
  9
$LOFTMAG2
 40
0
  9
$LOFTPARAM
 70
    7
  9
$LOFTNORMALS
280
    1
  9
$LATITUDE
 40
1
  9
$LONGITUDE
 40
1
  9
$NORTHDIRECTION
 40
0
  9
$TIMEZONE
 70
-8000
  9
$LIGHTGLYPHDISPLAY
280
    1
  9
$TILEMODELIGHTSYNCH
280
    1
  9
$SOLIDHIST
280
    1
  9
$SHOWHIST
280
    1
  9
$DWFFRAME
280
    2
  9
$DGNFRAME
280
    0
  9
$REALWORLDSCALE
290
    1
  9
$INTERFERECOLOR
 62
    1
  9
$CSHADOW
280
    0
  9
$SHADOWPLANELOCATION
 40
0
  0
ENDSEC
  0
SECTION
  2
CLASSES
  0
ENDSEC
  0
SECTION
  2
TABLES
  0
TABLE
  2
VPORT
  5
8
330
0
100
AcDbSymbolTable
 70
    1
  0
VPORT
  5
31
330
2
100
AcDbSymbolTableRecord
100
AcDbViewportTableRecord
  2
*ACTIVE
 70
    0
 10
0
 20
0
 11
1
 21
1
 12
18.09162811276485
 22
23.7703891592716
 13
0
 23
0
 14
10
 24
10
 15
10
 25
10
 16
0
 26
0
 36
1
 17
0
 27
0
 37
0
 40
51.46063107630891
 41
1.833984375
 42
50
 43
0
 44
0
 50
0
 51
0
 71
    0
 72
  100
 73
    1
 74
    3
 75
    0
 76
    1
 77
    0
 78
    0
281
    0
 65
    1
110
0
120
0
130
0
111
1
121
0
131
0
112
0
122
1
132
0
 79
    0
146
0
348
10020
 60
    7
 61
    5
292
1
282
    1
141
0
142
0
 63
  250
421
3358443
  0
ENDTAB
  0
TABLE
  2
LTYPE
  5
5
330
0
100
AcDbSymbolTable
 70
    4
  0
LTYPE
  5
14
330
5
100
AcDbSymbolTableRecord
100
AcDbLinetypeTableRecord
  2
ByBlock
 70
    0
  3

 72
   65
 73
    0
 40
0
  0
LTYPE
  5
15
330
5
100
AcDbSymbolTableRecord
100
AcDbLinetypeTableRecord
  2
ByLayer
 70
    0
  3

 72
   65
 73
    0
 40
0
  0
LTYPE
  5
16
330
5
100
AcDbSymbolTableRecord
100
AcDbLinetypeTableRecord
  2
Continuous
 70
    0
  3
Solid line
 72
   65
 73
    0
 40
0
  0
LTYPE
  5
32
330
5
100
AcDbSymbolTableRecord
100
AcDbLinetypeTableRecord
  2
DOT
 70
    0
  3
Dot . . . . . . . . . . . . . . . . . . . . . .
 72
   65
 73
    2
 40
6.35
 49
0
 74
    0
 49
-6.35
 74
    0
  0
LTYPE
  5
33
330
5
100
AcDbSymbolTableRecord
100
AcDbLinetypeTableRecord
  2
DOTTINY
 70
    0
  3
Dot (.15x) .....................................
 72
   65
 73
    2
 40
0.9525
 49
0
 74
    0
 49
-0.9525
 74
    0
  0
LTYPE
  5
34
330
5
100
AcDbSymbolTableRecord
100
AcDbLinetypeTableRecord
  2
DOT2
 70
    0
  3
Dot (.5x) .....................................
 72
   65
 73
    2
 40
3.175
 49
0
 74
    0
 49
-3.175
 74
    0
  0
LTYPE
  5
35
330
5
100
AcDbSymbolTableRecord
100
AcDbLinetypeTableRecord
  2
DOTX2
 70
    0
  3
Dot (2x) .  .  .  .  .  .  .  .  .  .  .  .  .
 72
   65
 73
    2
 40
12.7
 49
0
 74
    0
 49
-12.7
 74
    0
  0
LTYPE
  5
36
330
5
100
AcDbSymbolTableRecord
100
AcDbLinetypeTableRecord
  2
DASHED
 70
    0
  3
Dashed _ _ _ _ _ _ _ _ _ _ _ _ _ _ _ _ _
 72
   65
 73
    2
 40
19.05
 49
12.7
 74
    0
 49
-6.35
 74
    0
  0
LTYPE
  5
37
330
5
100
AcDbSymbolTableRecord
100
AcDbLinetypeTableRecord
  2
DASHEDTINY
 70
    0
  3
Dashed (.15x) _ _ _ _ _ _ _ _ _ _ _ _ _ _ _ _ _
 72
   65
 73
    2
 40
2.8575
 49
1.905
 74
    0
 49
-0.9525
 74
    0
  0
LTYPE
  5
38
330
5
100
AcDbSymbolTableRecord
100
AcDbLinetypeTableRecord
  2
DASHED2
 70
    0
  3
Dashed (.5x) _ _ _ _ _ _ _ _ _ _ _ _ _ _ _ _ _
 72
   65
 73
    2
 40
9.524999999999999
 49
6.35
 74
    0
 49
-3.175
 74
    0
  0
LTYPE
  5
39
330
5
100
AcDbSymbolTableRecord
100
AcDbLinetypeTableRecord
  2
DASHEDX2
 70
    0
  3
Dashed (2x) ____  ____  ____  ____  ____  ___
 72
   65
 73
    2
 40
38.09999999999999
 49
25.4
 74
    0
 49
-12.7
 74
    0
  0
LTYPE
  5
3A
330
5
100
AcDbSymbolTableRecord
100
AcDbLinetypeTableRecord
  2
DASHDOT
 70
    0
  3
Dash dot __ . __ . __ . __ . __ . __ . __ . __
 72
   65
 73
    4
 40
25.4
 49
12.7
 74
    0
 49
-6.35
 74
    0
 49
0
 74
    0
 49
-6.35
 74
    0
  0
LTYPE
  5
3B
330
5
100
AcDbSymbolTableRecord
100
AcDbLinetypeTableRecord
  2
DASHDOTTINY
 70
    0
  3
Dash dot (.15x) _._._._._._._._._._._._._._._.
 72
   65
 73
    4
 40
3.81
 49
1.905
 74
    0
 49
-0.9525
 74
    0
 49
0
 74
    0
 49
-0.9525
 74
    0
  0
LTYPE
  5
3C
330
5
100
AcDbSymbolTableRecord
100
AcDbLinetypeTableRecord
  2
DASHDOT2
 70
    0
  3
Dash dot (.5x) _._._._._._._._._._._._._._._.
 72
   65
 73
    4
 40
12.7
 49
6.35
 74
    0
 49
-3.175
 74
    0
 49
0
 74
    0
 49
-3.175
 74
    0
  0
LTYPE
  5
3D
330
5
100
AcDbSymbolTableRecord
100
AcDbLinetypeTableRecord
  2
DASHDOTX2
 70
    0
  3
Dash dot (2x) ____  .  ____  .  ____  .  ___
 72
   65
 73
    4
 40
50.8
 49
25.4
 74
    0
 49
-12.7
 74
    0
 49
0
 74
    0
 49
-12.7
 74
    0
  0
LTYPE
  5
3E
330
5
100
AcDbSymbolTableRecord
100
AcDbLinetypeTableRecord
  2
DIVIDE
 70
    0
  3
Divide ____ . . ____ . . ____ . . ____ . . ____
 72
   65
 73
    6
 40
31.75
 49
12.7
 74
    0
 49
-6.35
 74
    0
 49
0
 74
    0
 49
-6.35
 74
    0
 49
0
 74
    0
 49
-6.35
 74
    0
  0
LTYPE
  5
3F
330
5
100
AcDbSymbolTableRecord
100
AcDbLinetypeTableRecord
  2
DIVIDETINY
 70
    0
  3
Divide (.15x) __..__..__..__..__..__..__..__.._
 72
   65
 73
    6
 40
4.7625
 49
1.905
 74
    0
 49
-0.9525
 74
    0
 49
0
 74
    0
 49
-0.9525
 74
    0
 49
0
 74
    0
 49
-0.9525
 74
    0
  0
LTYPE
  5
40
330
5
100
AcDbSymbolTableRecord
100
AcDbLinetypeTableRecord
  2
DIVIDE2
 70
    0
  3
Divide (.5x) __..__..__..__..__..__..__..__.._
 72
   65
 73
    6
 40
15.875
 49
6.35
 74
    0
 49
-3.175
 74
    0
 49
0
 74
    0
 49
-3.175
 74
    0
 49
0
 74
    0
 49
-3.175
 74
    0
  0
LTYPE
  5
41
330
5
100
AcDbSymbolTableRecord
100
AcDbLinetypeTableRecord
  2
DIVIDEX2
 70
    0
  3
Divide (2x) ________  .  .  ________  .  .  _
 72
   65
 73
    6
 40
63.5
 49
25.4
 74
    0
 49
-12.7
 74
    0
 49
0
 74
    0
 49
-12.7
 74
    0
 49
0
 74
    0
 49
-12.7
 74
    0
  0
LTYPE
  5
42
330
5
100
AcDbSymbolTableRecord
100
AcDbLinetypeTableRecord
  2
BORDER
 70
    0
  3
Border __ __ . __ __ . __ __ . __ __ . __ __ .
 72
   65
 73
    6
 40
44.45
 49
12.7
 74
    0
 49
-6.35
 74
    0
 49
12.7
 74
    0
 49
-6.35
 74
    0
 49
0
 74
    0
 49
-6.35
 74
    0
  0
LTYPE
  5
43
330
5
100
AcDbSymbolTableRecord
100
AcDbLinetypeTableRecord
  2
BORDERTINY
 70
    0
  3
Border (.15x) __.__.__.__.__.__.__.__.__.__.__.
 72
   65
 73
    6
 40
6.6675
 49
1.905
 74
    0
 49
-0.9525
 74
    0
 49
1.905
 74
    0
 49
-0.9525
 74
    0
 49
0
 74
    0
 49
-0.9525
 74
    0
  0
LTYPE
  5
44
330
5
100
AcDbSymbolTableRecord
100
AcDbLinetypeTableRecord
  2
BORDER2
 70
    0
  3
Border (.5x) __.__.__.__.__.__.__.__.__.__.__.
 72
   65
 73
    6
 40
22.225
 49
6.35
 74
    0
 49
-3.175
 74
    0
 49
6.35
 74
    0
 49
-3.175
 74
    0
 49
0
 74
    0
 49
-3.175
 74
    0
  0
LTYPE
  5
45
330
5
100
AcDbSymbolTableRecord
100
AcDbLinetypeTableRecord
  2
BORDERX2
 70
    0
  3
Border (2x) ____  ____  .  ____  ____  .  ___
 72
   65
 73
    6
 40
88.89999999999999
 49
25.4
 74
    0
 49
-12.7
 74
    0
 49
25.4
 74
    0
 49
-12.7
 74
    0
 49
0
 74
    0
 49
-12.7
 74
    0
  0
LTYPE
  5
46
330
5
100
AcDbSymbolTableRecord
100
AcDbLinetypeTableRecord
  2
CENTER
 70
    0
  3
Center ____ _ ____ _ ____ _ ____ _ ____ _ ____
 72
   65
 73
    4
 40
50.8
 49
31.75
 74
    0
 49
-6.35
 74
    0
 49
6.35
 74
    0
 49
-6.35
 74
    0
  0
LTYPE
  5
47
330
5
100
AcDbSymbolTableRecord
100
AcDbLinetypeTableRecord
  2
CENTERTINY
 70
    0
  3
Center (.15x) ___ _ ___ _ ___ _ ___ _ ___ _ ___
 72
   65
 73
    4
 40
7.62
 49
4.7625
 74
    0
 49
-0.9525
 74
    0
 49
0.9525
 74
    0
 49
-0.9525
 74
    0
  0
LTYPE
  5
48
330
5
100
AcDbSymbolTableRecord
100
AcDbLinetypeTableRecord
  2
CENTER2
 70
    0
  3
Center (.5x) ___ _ ___ _ ___ _ ___ _ ___ _ ___
 72
   65
 73
    4
 40
28.575
 49
19.05
 74
    0
 49
-3.175
 74
    0
 49
3.175
 74
    0
 49
-3.175
 74
    0
  0
LTYPE
  5
49
330
5
100
AcDbSymbolTableRecord
100
AcDbLinetypeTableRecord
  2
CENTERX2
 70
    0
  3
Center (2x) ________  __  ________  __  _____
 72
   65
 73
    4
 40
101.6
 49
63.5
 74
    0
 49
-12.7
 74
    0
 49
12.7
 74
    0
 49
-12.7
 74
    0
  0
ENDTAB
  0
TABLE
  2
LAYER
  5
2
330
0
100
AcDbSymbolTable
 70
    1
  0
LAYER
  5
10
330
2
100
AcDbSymbolTableRecord
100
AcDbLayerTableRecord
  2
0
 70
    0
 62
    7
  6
CONTINUOUS
370
    0
390
F
  0
LAYER
  5
4A
330
2
100
AcDbSymbolTableRecord
100
AcDbLayerTableRecord
  2
Base
 70
    0
 62
    7
  6
CONTINUOUS
370
   50
390
F
  0
LAYER
  5
4B
330
2
100
AcDbSymbolTableRecord
100
AcDbLayerTableRecord
  2
Holes
 70
    0
 62
  136
420
32896
  6
CONTINUOUS
370
    0
390
F
  0
LAYER
  5
4C
330
2
100
AcDbSymbolTableRecord
100
AcDbLayerTableRecord
  2
HotEndBracket
 70
    0
 62
    2
  6
CONTINUOUS
370
    0
390
F
  0
LAYER
  5
4D
330
2
100
AcDbSymbolTableRecord
100
AcDbLayerTableRecord
  2
Nozzle
 70
    0
 62
    1
  6
CONTINUOUS
370
    0
390
F
  0
LAYER
  5
4E
330
2
100
AcDbSymbolTableRecord
100
AcDbLayerTableRecord
  2
Outline
 70
    0
 62
    5
  6
CONTINUOUS
370
   20
390
F
  0
ENDTAB
  0
TABLE
  2
STYLE
  5
3
330
0
100
AcDbSymbolTable
 70
    3
  0
STYLE
  5
4F
330
2
100
AcDbSymbolTableRecord
100
AcDbTextStyleTableRecord
  2
Standard
 70
    0
 40
0
 41
1
 50
0
 71
    0
 42
1
  3
txt
  4

  0
ENDTAB
  0
TABLE
  2
VIEW
  5
6
330
0
100
AcDbSymbolTable
 70
    0
  0
ENDTAB
  0
TABLE
  2
UCS
  5
7
330
0
100
AcDbSymbolTable
 70
    0
  0
ENDTAB
  0
TABLE
  2
APPID
  5
9
330
0
100
AcDbSymbolTable
 70
    1
  0
APPID
  5
12
330
9
100
AcDbSymbolTableRecord
100
AcDbRegAppTableRecord
  2
ACAD
 70
    0
  0
APPID
  5
50
330
9
100
AcDbSymbolTableRecord
100
AcDbRegAppTableRecord
  2
LibreCad
 70
    0
  0
ENDTAB
  0
TABLE
  2
DIMSTYLE
  5
A
330
0
100
AcDbSymbolTable
 70
    1
100
AcDbDimStyleTable
 71
    1
  0
DIMSTYLE
105
51
330
A
100
AcDbSymbolTableRecord
100
AcDbDimStyleTableRecord
  2
Standard
 70
    0
 40
2.5
 41
0.25
 42
0.0625
 43
0.38
 44
0.125
 45
0
 46
0
 47
0
 48
0
 49
1
140
0.25
141
0.09
142
0
143
25.4
144
1
145
0
146
1
147
0.0625
148
0
 71
    0
 72
    0
 73
    0
 74
    1
 75
    0
 76
    0
 77
    0
 78
    8
 79
    0
170
    0
171
    2
172
    0
173
    0
174
    0
175
    0
176
    0
177
    0
178
    0
179
    0
271
    2
272
    4
273
    2
274
    2
275
    0
276
    0
277
    2
278
   44
279
    0
280
    0
281
    0
282
    0
283
    1
284
    0
285
    0
286
    0
288
    0
289
    3
340
standard
341

371
   -2
372
   -2
  0
ENDTAB
  0
TABLE
  2
BLOCK_RECORD
  5
1
330
0
100
AcDbSymbolTable
 70
    2
  0
BLOCK_RECORD
  5
1F
330
1
100
AcDbSymbolTableRecord
100
AcDbBlockTableRecord
  2
*Model_Space
 70
    0
280
    1
281
    0
  0
BLOCK_RECORD
  5
1E
330
1
100
AcDbSymbolTableRecord
100
AcDbBlockTableRecord
  2
*Paper_Space
 70
    0
280
    1
281
    0
  0
BLOCK_RECORD
  5
52
330
1
100
AcDbSymbolTableRecord
100
AcDbBlockTableRecord
  2
ModifiedHotEnd
 70
    0
280
    1
281
    0
  0
BLOCK_RECORD
  5
55
330
1
100
AcDbSymbolTableRecord
100
AcDbBlockTableRecord
  2
ModifiedNozzle
 70
    0
280
    1
281
    0
  0
BLOCK_RECORD
  5
58
330
1
100
AcDbSymbolTableRecord
100
AcDbBlockTableRecord
  2
ModifiedHotEnd-0
 70
    0
280
    1
281
    0
  0
BLOCK_RECORD
  5
5B
330
1
100
AcDbSymbolTableRecord
100
AcDbBlockTableRecord
  2
ModifiedNozzle-0
 70
    0
280
    1
281
    0
  0
BLOCK_RECORD
  5
5E
330
1
100
AcDbSymbolTableRecord
100
AcDbBlockTableRecord
  2
ModifiedHotEnd-1
 70
    0
280
    1
281
    0
  0
BLOCK_RECORD
  5
61
330
1
100
AcDbSymbolTableRecord
100
AcDbBlockTableRecord
  2
ModifiedNozzle-1
 70
    0
280
    1
281
    0
  0
BLOCK_RECORD
  5
64
330
1
100
AcDbSymbolTableRecord
100
AcDbBlockTableRecord
  2
RadialFan30mm
 70
    0
280
    1
281
    0
  0
BLOCK_RECORD
  5
67
330
1
100
AcDbSymbolTableRecord
100
AcDbBlockTableRecord
  2
RadialFan30mm-0
 70
    0
280
    1
281
    0
  0
BLOCK_RECORD
  5
6A
330
1
100
AcDbSymbolTableRecord
100
AcDbBlockTableRecord
  2
ModifiedHotEnd-2
 70
    0
280
    1
281
    0
  0
BLOCK_RECORD
  5
6D
330
1
100
AcDbSymbolTableRecord
100
AcDbBlockTableRecord
  2
ModifiedNozzle-2
 70
    0
280
    1
281
    0
  0
ENDTAB
  0
ENDSEC
  0
SECTION
  2
BLOCKS
  0
BLOCK
  5
20
330
1F
100
AcDbEntity
  8
0
100
AcDbBlockBegin
  2
*Model_Space
 70
    0
 10
0
 20
0
 30
0
  3
*Model_Space
  1

  0
ENDBLK
  5
21
330
1F
100
AcDbEntity
  8
0
100
AcDbBlockEnd
  0
BLOCK
  5
1C
330
1B
100
AcDbEntity
  8
0
100
AcDbBlockBegin
  2
*Paper_Space
 70
    0
 10
0
 20
0
 30
0
  3
*Paper_Space
  1

  0
ENDBLK
  5
1D
330
1F
100
AcDbEntity
  8
0
100
AcDbBlockEnd
  0
BLOCK
  5
53
330
52
100
AcDbEntity
  8
0
100
AcDbBlockBegin
  2
ModifiedHotEnd
 70
    0
 10
0
 20
0
  3
ModifiedHotEnd
  1

  0
ARC
  5
70
100
AcDbEntity
  8
Outline
  6
ByLayer
 62
  256
370
   -1
100
AcDbCircle
 10
-0.4999999999999996
 20
7
 40
1
100
AcDbArc
 50
90
 51
180
  0
LINE
  5
71
100
AcDbEntity
  8
Outline
  6
CONTINUOUS
 62
  256
370
    0
100
AcDbLine
 10
1.224606353822377e-015
 20
20
 11
-20
 21
20
  0
LINE
  5
72
100
AcDbEntity
  8
Outline
  6
CONTINUOUS
 62
  256
370
    0
100
AcDbLine
 10
-20
 20
20
 11
-20
 21
1.224606353822377e-015
  0
LINE
  5
73
100
AcDbEntity
  8
Outline
  6
CONTINUOUS
 62
  256
370
   20
100
AcDbLine
 10
4.898425415289509e-016
 20
8
 11
1.224606353822377e-015
 21
20
  0
LINE
  5
74
100
AcDbEntity
  8
Outline
  6
ByLayer
 62
  256
370
   -1
100
AcDbLine
 10
-0.4999999999999995
 20
8
 11
4.898425415289509e-016
 21
8
  0
LINE
  5
75
100
AcDbEntity
  8
Outline
  6
ByLayer
 62
  256
370
   -1
100
AcDbLine
 10
4.898425415289509e-016
 20
8
 11
4.898425415289509e-016
 21
8
  0
LINE
  5
76
100
AcDbEntity
  8
Outline
  6
CONTINUOUS
 62
  256
370
    0
100
AcDbLine
 10
-20
 20
1.224606353822377e-015
 11
-1.5
 21
9.184547653667829e-017
  0
LINE
  5
77
100
AcDbEntity
  8
Outline
  6
ByLayer
 62
  256
370
   -1
100
AcDbLine
 10
-1.5
 20
9.184547653667829e-017
 11
-1.5
 21
7
  0
LINE
  5
78
100
AcDbEntity
  8
Outline
  6
ByLayer
 62
  256
370
   -1
100
AcDbLine
 10
-1.5
 20
9.184547653667829e-017
 11
-1.5
 21
9.184547653667829e-017
  0
CIRCLE
  5
79
100
AcDbEntity
  8
Outline
  6
ByLayer
 62
  256
370
   -1
100
AcDbCircle
 10
-5.5
 20
2.5
 40
1.5
  0
CIRCLE
  5
7A
100
AcDbEntity
  8
Outline
  6
ByLayer
 62
  256
370
   -1
100
AcDbCircle
 10
-14.5
 20
2.500000000000001
 40
1.5
  0
CIRCLE
  5
7B
100
AcDbEntity
  8
Outline
  6
ByLayer
 62
  256
370
   -1
100
AcDbCircle
 10
-12
 20
11.5
 40
1.5
  0
CIRCLE
  5
7C
100
AcDbEntity
  8
Outline
  6
ByLayer
 62
  256
370
   -1
100
AcDbCircle
 10
-15.5
 20
11.5
 40
1
  0
LINE
  5
7D
100
AcDbEntity
  8
Holes
  6
ByLayer
 62
  256
370
   -1
100
AcDbLine
 10
1.423604886318514e-015
 20
11.05
 11
-20
 21
11.05
  0
LINE
  5
7E
100
AcDbEntity
  8
Holes
  6
ByLayer
 62
  256
370
   -1
100
AcDbLine
 10
-1.5
 20
4.95
 11
-20
 21
4.950000000000001
  0
LINE
  5
7F
100
AcDbEntity
  8
Holes
  6
ByLayer
 62
  256
370
   -1
100
AcDbLine
 10
4.898425415289509e-016
 20
13
 11
-4.999999999999999
 21
13
  0
LINE
  5
80
100
AcDbEntity
  8
Holes
  6
ByLayer
 62
  256
370
   -1
100
AcDbLine
 10
-4.999999999999999
 20
13
 11
-4.999999999999999
 21
13
  0
LINE
  5
81
100
AcDbEntity
  8
Holes
  6
ByLayer
 62
  256
370
   -1
100
AcDbLine
 10
-4.999999999999999
 20
13
 11
-4.999999999999999
 21
12.75
  0
LINE
  5
82
100
AcDbEntity
  8
Holes
  6
ByLayer
 62
  256
370
   -1
100
AcDbLine
 10
-4.999999999999999
 20
12.75
 11
-4.999999999999999
 21
12.75
  0
LINE
  5
83
100
AcDbEntity
  8
Holes
  6
ByLayer
 62
  256
370
   -1
100
AcDbLine
 10
-4.999999999999999
 20
12.75
 11
-7.999999999999999
 21
12.75
  0
LINE
  5
84
100
AcDbEntity
  8
Holes
  6
ByLayer
 62
  256
370
   -1
100
AcDbLine
 10
-7.999999999999999
 20
12.75
 11
-7.999999999999999
 21
12.75
  0
LINE
  5
85
100
AcDbEntity
  8
Holes
  6
ByLayer
 62
  256
370
   -1
100
AcDbLine
 10
-7.999999999999999
 20
12.75
 11
-7.999999999999999
 21
12.5
  0
LINE
  5
86
100
AcDbEntity
  8
Holes
  6
ByLayer
 62
  256
370
   -1
100
AcDbLine
 10
-7.999999999999999
 20
12.5
 11
-7.999999999999999
 21
12.5
  0
LINE
  5
87
100
AcDbEntity
  8
Holes
  6
ByLayer
 62
  256
370
   -1
100
AcDbLine
 10
-7.999999999999999
 20
12.5
 11
-11
 21
12.5
  0
LINE
  5
88
100
AcDbEntity
  8
Holes
  6
ByLayer
 62
  256
370
   -1
100
AcDbLine
 10
-11
 20
12.5
 11
-11
 21
12.5
  0
LINE
  5
89
100
AcDbEntity
  8
Holes
  6
ByLayer
 62
  256
370
   -1
100
AcDbLine
 10
-11
 20
12.5
 11
-11
 21
12.25
  0
LINE
  5
8A
100
AcDbEntity
  8
Holes
  6
ByLayer
 62
  256
370
   -1
100
AcDbLine
 10
-11
 20
12.25
 11
-11
 21
12.25
  0
LINE
  5
8B
100
AcDbEntity
  8
Holes
  6
ByLayer
 62
  256
370
   -1
100
AcDbLine
 10
-11
 20
12.25
 11
-14
 21
12.25
  0
LINE
  5
8C
100
AcDbEntity
  8
Holes
  6
ByLayer
 62
  256
370
   -1
100
AcDbLine
 10
-14
 20
12.25
 11
-14
 21
12.25
  0
LINE
  5
8D
100
AcDbEntity
  8
Holes
  6
ByLayer
 62
  256
370
   -1
100
AcDbLine
 10
-14
 20
12.25
 11
-14
 21
12
  0
LINE
  5
8E
100
AcDbEntity
  8
Holes
  6
ByLayer
 62
  256
370
   -1
100
AcDbLine
 10
-14
 20
12
 11
-14
 21
12
  0
LINE
  5
8F
100
AcDbEntity
  8
Holes
  6
ByLayer
 62
  256
370
   -1
100
AcDbLine
 10
-14
 20
12
 11
-17
 21
12
  0
LINE
  5
90
100
AcDbEntity
  8
Holes
  6
ByLayer
 62
  256
370
   -1
100
AcDbLine
 10
-17
 20
12
 11
-17
 21
12
  0
LINE
  5
91
100
AcDbEntity
  8
Holes
  6
ByLayer
 62
  256
370
   -1
100
AcDbLine
 10
-17
 20
12
 11
-17
 21
11.75
  0
LINE
  5
92
100
AcDbEntity
  8
Holes
  6
ByLayer
 62
  256
370
   -1
100
AcDbLine
 10
-17
 20
11.75
 11
-20
 21
11.75
  0
LINE
  5
93
100
AcDbEntity
  8
Holes
  6
ByLayer
 62
  256
370
   -1
100
AcDbLine
 10
-17
 20
11.75
 11
-17
 21
11.75
  0
LINE
  5
94
100
AcDbEntity
  8
Holes
  6
ByLayer
 62
  256
370
   -1
100
AcDbLine
 10
7.959941299845452e-016
 20
18
 11
-4.999999999999999
 21
18
  0
LINE
  5
95
100
AcDbEntity
  8
Holes
  6
ByLayer
 62
  256
370
   -1
100
AcDbLine
 10
-4.999999999999999
 20
18
 11
-4.999999999999999
 21
18
  0
LINE
  5
96
100
AcDbEntity
  8
Holes
  6
ByLayer
 62
  256
370
   -1
100
AcDbLine
 10
-4.999999999999999
 20
18
 11
-4.999999999999999
 21
18.25
  0
LINE
  5
97
100
AcDbEntity
  8
Holes
  6
ByLayer
 62
  256
370
   -1
100
AcDbLine
 10
-4.999999999999999
 20
18.25
 11
-4.999999999999999
 21
18.25
  0
LINE
  5
98
100
AcDbEntity
  8
Holes
  6
ByLayer
 62
  256
370
   -1
100
AcDbLine
 10
-4.999999999999999
 20
18.25
 11
-7.999999999999999
 21
18.25
  0
LINE
  5
99
100
AcDbEntity
  8
Holes
  6
ByLayer
 62
  256
370
   -1
100
AcDbLine
 10
-7.999999999999999
 20
18.25
 11
-7.999999999999999
 21
18.25
  0
LINE
  5
9A
100
AcDbEntity
  8
Holes
  6
ByLayer
 62
  256
370
   -1
100
AcDbLine
 10
-7.999999999999999
 20
18.25
 11
-7.999999999999999
 21
18.5
  0
LINE
  5
9B
100
AcDbEntity
  8
Holes
  6
ByLayer
 62
  256
370
   -1
100
AcDbLine
 10
-7.999999999999999
 20
18.5
 11
-7.999999999999999
 21
18.5
  0
LINE
  5
9C
100
AcDbEntity
  8
Holes
  6
ByLayer
 62
  256
370
   -1
100
AcDbLine
 10
-7.999999999999999
 20
18.5
 11
-11
 21
18.5
  0
LINE
  5
9D
100
AcDbEntity
  8
Holes
  6
ByLayer
 62
  256
370
   -1
100
AcDbLine
 10
-11
 20
18.5
 11
-11
 21
18.5
  0
LINE
  5
9E
100
AcDbEntity
  8
Holes
  6
ByLayer
 62
  256
370
   -1
100
AcDbLine
 10
-11
 20
18.5
 11
-11
 21
18.75
  0
LINE
  5
9F
100
AcDbEntity
  8
Holes
  6
ByLayer
 62
  256
370
   -1
100
AcDbLine
 10
-11
 20
18.75
 11
-11
 21
18.75
  0
LINE
  5
A0
100
AcDbEntity
  8
Holes
  6
ByLayer
 62
  256
370
   -1
100
AcDbLine
 10
-11
 20
18.75
 11
-14
 21
18.75
  0
LINE
  5
A1
100
AcDbEntity
  8
Holes
  6
ByLayer
 62
  256
370
   -1
100
AcDbLine
 10
-14
 20
18.75
 11
-14
 21
18.75
  0
LINE
  5
A2
100
AcDbEntity
  8
Holes
  6
ByLayer
 62
  256
370
   -1
100
AcDbLine
 10
-14
 20
18.75
 11
-14
 21
19
  0
LINE
  5
A3
100
AcDbEntity
  8
Holes
  6
ByLayer
 62
  256
370
   -1
100
AcDbLine
 10
-14
 20
19
 11
-14
 21
19
  0
LINE
  5
A4
100
AcDbEntity
  8
Holes
  6
ByLayer
 62
  256
370
   -1
100
AcDbLine
 10
-14
 20
19
 11
-17
 21
19
  0
LINE
  5
A5
100
AcDbEntity
  8
Holes
  6
ByLayer
 62
  256
370
   -1
100
AcDbLine
 10
-17
 20
19
 11
-17
 21
19
  0
LINE
  5
A6
100
AcDbEntity
  8
Holes
  6
ByLayer
 62
  256
370
   -1
100
AcDbLine
 10
-17
 20
19
 11
-17
 21
19.25
  0
LINE
  5
A7
100
AcDbEntity
  8
Holes
  6
ByLayer
 62
  256
370
   -1
100
AcDbLine
 10
-17
 20
19.25
 11
-20
 21
19.25
  0
LINE
  5
A8
100
AcDbEntity
  8
Holes
  6
ByLayer
 62
  256
370
   -1
100
AcDbLine
 10
-17
 20
19.25
 11
-17
 21
19.25
  0
INSERT
  5
A9
100
AcDbEntity
  8
Nozzle
  6
ByLayer
 62
  256
370
   -1
100
AcDbBlockReference
  2
ModifiedNozzle
 10
0
 20
0
 30
0
 41
1
 42
1
 43
0
 50
90
 70
    1
 71
    1
 44
0
 45
0
  0
ENDBLK
  5
54
330
52
100
AcDbEntity
  8
0
100
AcDbBlockEnd
  0
BLOCK
  5
56
330
55
100
AcDbEntity
  8
0
100
AcDbBlockBegin
  2
ModifiedNozzle
 70
    0
 10
0
 20
0
  3
ModifiedNozzle
  1

  0
LINE
  5
AA
100
AcDbEntity
  8
Nozzle
  6
ByLayer
 62
  256
370
   -1
100
AcDbLine
 10
4.000000000000001
 20
12.03584919243112
 11
4.000000000000001
 21
12.03584919243112
  0
LINE
  5
AB
100
AcDbEntity
  8
Nozzle
  6
ByLayer
 62
  256
370
   -1
100
AcDbLine
 10
4.000000000000001
 20
12.03584919243112
 11
4.000000000000001
 21
18.99995080756887
  0
LINE
  5
AC
100
AcDbEntity
  8
Nozzle
  6
ByLayer
 62
  256
370
   -1
100
AcDbLine
 10
4.000000000000001
 20
18.99995080756887
 11
4.000000000000001
 21
18.99995080756887
  0
LINE
  5
AD
100
AcDbEntity
  8
Nozzle
  6
ByLayer
 62
  256
370
   -1
100
AcDbLine
 10
4.000000000000001
 20
13.7679
 11
8.430128909395555e-016
 21
13.7679
  0
LINE
  5
AE
100
AcDbEntity
  8
Nozzle
  6
ByLayer
 62
  256
370
   -1
100
AcDbLine
 10
4.000000000000001
 20
12.03584919243112
 11
7.369588697349541e-016
 21
12.03584919243112
  0
LINE
  5
AF
100
AcDbEntity
  8
Nozzle
  6
ByLayer
 62
  256
370
   -1
100
AcDbLine
 10
4.000000000000001
 20
17.23200161513775
 11
1.055120933348758e-015
 21
17.23200161513775
  0
LINE
  5
B0
100
AcDbEntity
  8
Nozzle
  6
ByLayer
 62
  256
370
   -1
100
AcDbLine
 10
4.000000000000001
 20
18.99995080756887
 11
1.163373024063073e-015
 21
18.99995080756887
  0
LINE
  5
B1
100
AcDbEntity
  8
Nozzle
  6
ByLayer
 62
  256
370
   -1
100
AcDbLine
 10
7.369588697349541e-016
 20
12.03584919243112
 11
1.163373024063073e-015
 21
18.99995080756887
  0
LINE
  5
B2
100
AcDbEntity
  8
Nozzle
  6
ByLayer
 62
  256
370
   -1
100
AcDbLine
 10
6.500000000000001
 20
14.5179
 11
4.000000000000001
 21
11.99995080756887
  0
LINE
  5
B3
100
AcDbEntity
  8
Nozzle
  6
ByLayer
 62
  256
370
   -1
100
AcDbLine
 10
6.500000000000001
 20
14.5179
 11
6.500000000000001
 21
14.5179
  0
LINE
  5
B4
100
AcDbEntity
  8
Nozzle
  6
ByLayer
 62
  256
370
   -1
100
AcDbLine
 10
6.500000000000001
 20
14.5179
 11
6.500000000000001
 21
16.5179
  0
LINE
  5
B5
100
AcDbEntity
  8
Nozzle
  6
ByLayer
 62
  256
370
   -1
100
AcDbLine
 10
6.500000000000001
 20
16.5179
 11
4.000000000000001
 21
18.99995080756887
  0
LINE
  5
B6
100
AcDbEntity
  8
Nozzle
  6
ByLayer
 62
  256
370
   -1
100
AcDbLine
 10
6.500000000000001
 20
16.5179
 11
6.500000000000001
 21
16.5179
  0
LINE
  5
B7
100
AcDbEntity
  8
Nozzle
  6
ByLayer
 62
  256
370
   -1
100
AcDbLine
 10
-4.999999999999997
 20
13.0179
 11
-9.792666867290342e-016
 21
13.0179
  0
LINE
  5
B8
100
AcDbEntity
  8
Nozzle
  6
ByLayer
 62
  256
370
   -1
100
AcDbLine
 10
-4.999999999999997
 20
13.0179
 11
-4.999999999999997
 21
13.0179
  0
LINE
  5
B9
100
AcDbEntity
  8
Nozzle
  6
ByLayer
 62
  256
370
   -1
100
AcDbLine
 10
-4.999999999999997
 20
18.0179
 11
1.103241741126811e-015
 21
18.0179
  0
LINE
  5
BA
100
AcDbEntity
  8
Nozzle
  6
ByLayer
 62
  256
370
   -1
100
AcDbLine
 10
-4.999999999999997
 20
13.0179
 11
-4.999999999999997
 21
18.0179
  0
LINE
  5
BB
100
AcDbEntity
  8
Nozzle
  6
ByLayer
 62
  256
370
   -1
100
AcDbLine
 10
-4.999999999999997
 20
18.0179
 11
-4.999999999999997
 21
18.0179
  0
LINE
  5
BC
100
AcDbEntity
  8
Nozzle
  6
ByLayer
 62
  256
370
   -1
100
AcDbLine
 10
4.000000000000001
 20
13.0179
 11
4.000000000000001
 21
18.0179
  0
LINE
  5
BD
100
AcDbEntity
  8
Holes
  6
ByLayer
 62
  256
370
   -1
100
AcDbLine
 10
4.000000000000001
 20
16.3679
 11
6.500000000000001
 21
16.3679
  0
LINE
  5
BE
100
AcDbEntity
  8
Holes
  6
ByLayer
 62
  256
370
   -1
100
AcDbLine
 10
4.000000000000001
 20
16.3679
 11
4.000000000000001
 21
16.3679
  0
LINE
  5
BF
100
AcDbEntity
  8
Holes
  6
ByLayer
 62
  256
370
   -1
100
AcDbLine
 10
4.000000000000001
 20
16.3679
 11
4.000000000000001
 21
16.5179
  0
LINE
  5
C0
100
AcDbEntity
  8
Holes
  6
ByLayer
 62
  256
370
   -1
100
AcDbLine
 10
4.000000000000001
 20
16.5179
 11
4.000000000000001
 21
16.5179
  0
LINE
  5
C1
100
AcDbEntity
  8
Holes
  6
ByLayer
 62
  256
370
   -1
100
AcDbLine
 10
1.000000000000001
 20
16.5179
 11
4.000000000000001
 21
16.5179
  0
LINE
  5
C2
100
AcDbEntity
  8
Holes
  6
ByLayer
 62
  256
370
   -1
100
AcDbLine
 10
1.000000000000001
 20
16.5179
 11
1.000000000000001
 21
16.5179
  0
LINE
  5
C3
100
AcDbEntity
  8
Holes
  6
ByLayer
 62
  256
370
   -1
100
AcDbLine
 10
1.000000000000001
 20
16.5179
 11
1.000000000000001
 21
16.7679
  0
LINE
  5
C4
100
AcDbEntity
  8
Holes
  6
ByLayer
 62
  256
370
   -1
100
AcDbLine
 10
1.000000000000001
 20
16.7679
 11
1.000000000000001
 21
16.7679
  0
LINE
  5
C5
100
AcDbEntity
  8
Holes
  6
ByLayer
 62
  256
370
   -1
100
AcDbLine
 10
-1.999999999999997
 20
16.7679
 11
1.000000000000001
 21
16.7679
  0
LINE
  5
C6
100
AcDbEntity
  8
Holes
  6
ByLayer
 62
  256
370
   -1
100
AcDbLine
 10
-1.999999999999997
 20
16.7679
 11
-1.999999999999997
 21
16.7679
  0
LINE
  5
C7
100
AcDbEntity
  8
Holes
  6
ByLayer
 62
  256
370
   -1
100
AcDbLine
 10
-1.999999999999997
 20
16.7679
 11
-1.999999999999997
 21
17.0179
  0
LINE
  5
C8
100
AcDbEntity
  8
Holes
  6
ByLayer
 62
  256
370
   -1
100
AcDbLine
 10
-4.999999999999997
 20
17.0179
 11
-1.999999999999997
 21
17.0179
  0
LINE
  5
C9
100
AcDbEntity
  8
Holes
  6
ByLayer
 62
  256
370
   -1
100
AcDbLine
 10
-1.999999999999997
 20
17.0179
 11
-1.999999999999997
 21
17.0179
  0
LINE
  5
CA
100
AcDbEntity
  8
Holes
  6
ByLayer
 62
  256
370
   -1
100
AcDbLine
 10
4.000000000000001
 20
14.6679
 11
6.500000000000001
 21
14.6679
  0
LINE
  5
CB
100
AcDbEntity
  8
Holes
  6
ByLayer
 62
  256
370
   -1
100
AcDbLine
 10
4.000000000000001
 20
14.6679
 11
4.000000000000001
 21
14.6679
  0
LINE
  5
CC
100
AcDbEntity
  8
Holes
  6
ByLayer
 62
  256
370
   -1
100
AcDbLine
 10
4.000000000000001
 20
14.6679
 11
4.000000000000001
 21
14.5179
  0
LINE
  5
CD
100
AcDbEntity
  8
Holes
  6
ByLayer
 62
  256
370
   -1
100
AcDbLine
 10
4.000000000000001
 20
14.5179
 11
4.000000000000001
 21
14.5179
  0
LINE
  5
CE
100
AcDbEntity
  8
Holes
  6
ByLayer
 62
  256
370
   -1
100
AcDbLine
 10
1.000000000000001
 20
14.5179
 11
4.000000000000001
 21
14.5179
  0
LINE
  5
CF
100
AcDbEntity
  8
Holes
  6
ByLayer
 62
  256
370
   -1
100
AcDbLine
 10
1.000000000000001
 20
14.5179
 11
1.000000000000001
 21
14.5179
  0
LINE
  5
D0
100
AcDbEntity
  8
Holes
  6
ByLayer
 62
  256
370
   -1
100
AcDbLine
 10
1.000000000000001
 20
14.5179
 11
1.000000000000001
 21
14.2679
  0
LINE
  5
D1
100
AcDbEntity
  8
Holes
  6
ByLayer
 62
  256
370
   -1
100
AcDbLine
 10
1.000000000000001
 20
14.2679
 11
1.000000000000001
 21
14.2679
  0
LINE
  5
D2
100
AcDbEntity
  8
Holes
  6
ByLayer
 62
  256
370
   -1
100
AcDbLine
 10
-1.999999999999997
 20
14.2679
 11
1.000000000000001
 21
14.2679
  0
LINE
  5
D3
100
AcDbEntity
  8
Holes
  6
ByLayer
 62
  256
370
   -1
100
AcDbLine
 10
-1.999999999999997
 20
14.2679
 11
-1.999999999999997
 21
14.2679
  0
LINE
  5
D4
100
AcDbEntity
  8
Holes
  6
ByLayer
 62
  256
370
   -1
100
AcDbLine
 10
-1.999999999999997
 20
14.2679
 11
-1.999999999999997
 21
14.0179
  0
LINE
  5
D5
100
AcDbEntity
  8
Holes
  6
ByLayer
 62
  256
370
   -1
100
AcDbLine
 10
-4.999999999999997
 20
14.0179
 11
-1.999999999999997
 21
14.0179
  0
LINE
  5
D6
100
AcDbEntity
  8
Holes
  6
ByLayer
 62
  256
370
   -1
100
AcDbLine
 10
-1.999999999999997
 20
14.0179
 11
-1.999999999999997
 21
14.0179
  0
ENDBLK
  5
57
330
55
100
AcDbEntity
  8
0
100
AcDbBlockEnd
  0
BLOCK
  5
59
330
58
100
AcDbEntity
  8
0
100
AcDbBlockBegin
  2
ModifiedHotEnd-0
 70
    0
 10
0
 20
0
  3
ModifiedHotEnd-0
  1

  0
ARC
  5
D7
100
AcDbEntity
  8
Outline
  6
ByLayer
 62
  256
370
   -1
100
AcDbCircle
 10
-0.4999999999999996
 20
7
 40
1
100
AcDbArc
 50
90
 51
180
  0
LINE
  5
D8
100
AcDbEntity
  8
Outline
  6
CONTINUOUS
 62
  256
370
    0
100
AcDbLine
 10
1.224606353822377e-015
 20
20
 11
-20
 21
20
  0
LINE
  5
D9
100
AcDbEntity
  8
Outline
  6
CONTINUOUS
 62
  256
370
    0
100
AcDbLine
 10
-20
 20
20
 11
-20
 21
1.224606353822377e-015
  0
LINE
  5
DA
100
AcDbEntity
  8
Outline
  6
CONTINUOUS
 62
  256
370
   20
100
AcDbLine
 10
4.898425415289509e-016
 20
8
 11
1.224606353822377e-015
 21
20
  0
LINE
  5
DB
100
AcDbEntity
  8
Outline
  6
ByLayer
 62
  256
370
   -1
100
AcDbLine
 10
-0.4999999999999995
 20
8
 11
4.898425415289509e-016
 21
8
  0
LINE
  5
DC
100
AcDbEntity
  8
Outline
  6
ByLayer
 62
  256
370
   -1
100
AcDbLine
 10
4.898425415289509e-016
 20
8
 11
4.898425415289509e-016
 21
8
  0
LINE
  5
DD
100
AcDbEntity
  8
Outline
  6
CONTINUOUS
 62
  256
370
    0
100
AcDbLine
 10
-20
 20
1.224606353822377e-015
 11
-1.5
 21
9.184547653667829e-017
  0
LINE
  5
DE
100
AcDbEntity
  8
Outline
  6
ByLayer
 62
  256
370
   -1
100
AcDbLine
 10
-1.5
 20
9.184547653667829e-017
 11
-1.5
 21
7
  0
LINE
  5
DF
100
AcDbEntity
  8
Outline
  6
ByLayer
 62
  256
370
   -1
100
AcDbLine
 10
-1.5
 20
9.184547653667829e-017
 11
-1.5
 21
9.184547653667829e-017
  0
CIRCLE
  5
E0
100
AcDbEntity
  8
Outline
  6
ByLayer
 62
  256
370
   -1
100
AcDbCircle
 10
-5.5
 20
2.5
 40
1.5
  0
CIRCLE
  5
E1
100
AcDbEntity
  8
Outline
  6
ByLayer
 62
  256
370
   -1
100
AcDbCircle
 10
-14.5
 20
2.500000000000001
 40
1.5
  0
CIRCLE
  5
E2
100
AcDbEntity
  8
Outline
  6
ByLayer
 62
  256
370
   -1
100
AcDbCircle
 10
-12
 20
11.5
 40
1.5
  0
CIRCLE
  5
E3
100
AcDbEntity
  8
Outline
  6
ByLayer
 62
  256
370
   -1
100
AcDbCircle
 10
-15.5
 20
11.5
 40
1
  0
LINE
  5
E4
100
AcDbEntity
  8
Holes
  6
ByLayer
 62
  256
370
   -1
100
AcDbLine
 10
1.423604886318514e-015
 20
11.05
 11
-20
 21
11.05
  0
LINE
  5
E5
100
AcDbEntity
  8
Holes
  6
ByLayer
 62
  256
370
   -1
100
AcDbLine
 10
-1.5
 20
4.95
 11
-20
 21
4.950000000000001
  0
LINE
  5
E6
100
AcDbEntity
  8
Holes
  6
ByLayer
 62
  256
370
   -1
100
AcDbLine
 10
4.898425415289509e-016
 20
13
 11
-4.999999999999999
 21
13
  0
LINE
  5
E7
100
AcDbEntity
  8
Holes
  6
ByLayer
 62
  256
370
   -1
100
AcDbLine
 10
-4.999999999999999
 20
13
 11
-4.999999999999999
 21
13
  0
LINE
  5
E8
100
AcDbEntity
  8
Holes
  6
ByLayer
 62
  256
370
   -1
100
AcDbLine
 10
-4.999999999999999
 20
13
 11
-4.999999999999999
 21
12.75
  0
LINE
  5
E9
100
AcDbEntity
  8
Holes
  6
ByLayer
 62
  256
370
   -1
100
AcDbLine
 10
-4.999999999999999
 20
12.75
 11
-4.999999999999999
 21
12.75
  0
LINE
  5
EA
100
AcDbEntity
  8
Holes
  6
ByLayer
 62
  256
370
   -1
100
AcDbLine
 10
-4.999999999999999
 20
12.75
 11
-7.999999999999999
 21
12.75
  0
LINE
  5
EB
100
AcDbEntity
  8
Holes
  6
ByLayer
 62
  256
370
   -1
100
AcDbLine
 10
-7.999999999999999
 20
12.75
 11
-7.999999999999999
 21
12.75
  0
LINE
  5
EC
100
AcDbEntity
  8
Holes
  6
ByLayer
 62
  256
370
   -1
100
AcDbLine
 10
-7.999999999999999
 20
12.75
 11
-7.999999999999999
 21
12.5
  0
LINE
  5
ED
100
AcDbEntity
  8
Holes
  6
ByLayer
 62
  256
370
   -1
100
AcDbLine
 10
-7.999999999999999
 20
12.5
 11
-7.999999999999999
 21
12.5
  0
LINE
  5
EE
100
AcDbEntity
  8
Holes
  6
ByLayer
 62
  256
370
   -1
100
AcDbLine
 10
-7.999999999999999
 20
12.5
 11
-11
 21
12.5
  0
LINE
  5
EF
100
AcDbEntity
  8
Holes
  6
ByLayer
 62
  256
370
   -1
100
AcDbLine
 10
-11
 20
12.5
 11
-11
 21
12.5
  0
LINE
  5
F0
100
AcDbEntity
  8
Holes
  6
ByLayer
 62
  256
370
   -1
100
AcDbLine
 10
-11
 20
12.5
 11
-11
 21
12.25
  0
LINE
  5
F1
100
AcDbEntity
  8
Holes
  6
ByLayer
 62
  256
370
   -1
100
AcDbLine
 10
-11
 20
12.25
 11
-11
 21
12.25
  0
LINE
  5
F2
100
AcDbEntity
  8
Holes
  6
ByLayer
 62
  256
370
   -1
100
AcDbLine
 10
-11
 20
12.25
 11
-14
 21
12.25
  0
LINE
  5
F3
100
AcDbEntity
  8
Holes
  6
ByLayer
 62
  256
370
   -1
100
AcDbLine
 10
-14
 20
12.25
 11
-14
 21
12.25
  0
LINE
  5
F4
100
AcDbEntity
  8
Holes
  6
ByLayer
 62
  256
370
   -1
100
AcDbLine
 10
-14
 20
12.25
 11
-14
 21
12
  0
LINE
  5
F5
100
AcDbEntity
  8
Holes
  6
ByLayer
 62
  256
370
   -1
100
AcDbLine
 10
-14
 20
12
 11
-14
 21
12
  0
LINE
  5
F6
100
AcDbEntity
  8
Holes
  6
ByLayer
 62
  256
370
   -1
100
AcDbLine
 10
-14
 20
12
 11
-17
 21
12
  0
LINE
  5
F7
100
AcDbEntity
  8
Holes
  6
ByLayer
 62
  256
370
   -1
100
AcDbLine
 10
-17
 20
12
 11
-17
 21
12
  0
LINE
  5
F8
100
AcDbEntity
  8
Holes
  6
ByLayer
 62
  256
370
   -1
100
AcDbLine
 10
-17
 20
12
 11
-17
 21
11.75
  0
LINE
  5
F9
100
AcDbEntity
  8
Holes
  6
ByLayer
 62
  256
370
   -1
100
AcDbLine
 10
-17
 20
11.75
 11
-20
 21
11.75
  0
LINE
  5
FA
100
AcDbEntity
  8
Holes
  6
ByLayer
 62
  256
370
   -1
100
AcDbLine
 10
-17
 20
11.75
 11
-17
 21
11.75
  0
LINE
  5
FB
100
AcDbEntity
  8
Holes
  6
ByLayer
 62
  256
370
   -1
100
AcDbLine
 10
7.959941299845452e-016
 20
18
 11
-4.999999999999999
 21
18
  0
LINE
  5
FC
100
AcDbEntity
  8
Holes
  6
ByLayer
 62
  256
370
   -1
100
AcDbLine
 10
-4.999999999999999
 20
18
 11
-4.999999999999999
 21
18
  0
LINE
  5
FD
100
AcDbEntity
  8
Holes
  6
ByLayer
 62
  256
370
   -1
100
AcDbLine
 10
-4.999999999999999
 20
18
 11
-4.999999999999999
 21
18.25
  0
LINE
  5
FE
100
AcDbEntity
  8
Holes
  6
ByLayer
 62
  256
370
   -1
100
AcDbLine
 10
-4.999999999999999
 20
18.25
 11
-4.999999999999999
 21
18.25
  0
LINE
  5
FF
100
AcDbEntity
  8
Holes
  6
ByLayer
 62
  256
370
   -1
100
AcDbLine
 10
-4.999999999999999
 20
18.25
 11
-7.999999999999999
 21
18.25
  0
LINE
  5
100
100
AcDbEntity
  8
Holes
  6
ByLayer
 62
  256
370
   -1
100
AcDbLine
 10
-7.999999999999999
 20
18.25
 11
-7.999999999999999
 21
18.25
  0
LINE
  5
101
100
AcDbEntity
  8
Holes
  6
ByLayer
 62
  256
370
   -1
100
AcDbLine
 10
-7.999999999999999
 20
18.25
 11
-7.999999999999999
 21
18.5
  0
LINE
  5
102
100
AcDbEntity
  8
Holes
  6
ByLayer
 62
  256
370
   -1
100
AcDbLine
 10
-7.999999999999999
 20
18.5
 11
-7.999999999999999
 21
18.5
  0
LINE
  5
103
100
AcDbEntity
  8
Holes
  6
ByLayer
 62
  256
370
   -1
100
AcDbLine
 10
-7.999999999999999
 20
18.5
 11
-11
 21
18.5
  0
LINE
  5
104
100
AcDbEntity
  8
Holes
  6
ByLayer
 62
  256
370
   -1
100
AcDbLine
 10
-11
 20
18.5
 11
-11
 21
18.5
  0
LINE
  5
105
100
AcDbEntity
  8
Holes
  6
ByLayer
 62
  256
370
   -1
100
AcDbLine
 10
-11
 20
18.5
 11
-11
 21
18.75
  0
LINE
  5
106
100
AcDbEntity
  8
Holes
  6
ByLayer
 62
  256
370
   -1
100
AcDbLine
 10
-11
 20
18.75
 11
-11
 21
18.75
  0
LINE
  5
107
100
AcDbEntity
  8
Holes
  6
ByLayer
 62
  256
370
   -1
100
AcDbLine
 10
-11
 20
18.75
 11
-14
 21
18.75
  0
LINE
  5
108
100
AcDbEntity
  8
Holes
  6
ByLayer
 62
  256
370
   -1
100
AcDbLine
 10
-14
 20
18.75
 11
-14
 21
18.75
  0
LINE
  5
109
100
AcDbEntity
  8
Holes
  6
ByLayer
 62
  256
370
   -1
100
AcDbLine
 10
-14
 20
18.75
 11
-14
 21
19
  0
LINE
  5
10A
100
AcDbEntity
  8
Holes
  6
ByLayer
 62
  256
370
   -1
100
AcDbLine
 10
-14
 20
19
 11
-14
 21
19
  0
LINE
  5
10B
100
AcDbEntity
  8
Holes
  6
ByLayer
 62
  256
370
   -1
100
AcDbLine
 10
-14
 20
19
 11
-17
 21
19
  0
LINE
  5
10C
100
AcDbEntity
  8
Holes
  6
ByLayer
 62
  256
370
   -1
100
AcDbLine
 10
-17
 20
19
 11
-17
 21
19
  0
LINE
  5
10D
100
AcDbEntity
  8
Holes
  6
ByLayer
 62
  256
370
   -1
100
AcDbLine
 10
-17
 20
19
 11
-17
 21
19.25
  0
LINE
  5
10E
100
AcDbEntity
  8
Holes
  6
ByLayer
 62
  256
370
   -1
100
AcDbLine
 10
-17
 20
19.25
 11
-20
 21
19.25
  0
LINE
  5
10F
100
AcDbEntity
  8
Holes
  6
ByLayer
 62
  256
370
   -1
100
AcDbLine
 10
-17
 20
19.25
 11
-17
 21
19.25
  0
INSERT
  5
110
100
AcDbEntity
  8
Holes
  6
ByLayer
 62
  256
370
   -1
100
AcDbBlockReference
  2
ModifiedNozzle-0
 10
0
 20
0
 30
0
 41
1
 42
1
 43
0
 50
0
 70
    1
 71
    1
 44
0
 45
0
  0
ENDBLK
  5
5A
330
58
100
AcDbEntity
  8
0
100
AcDbBlockEnd
  0
BLOCK
  5
5C
330
5B
100
AcDbEntity
  8
0
100
AcDbBlockBegin
  2
ModifiedNozzle-0
 70
    0
 10
0
 20
0
  3
ModifiedNozzle-0
  1

  0
LINE
  5
111
100
AcDbEntity
  8
Nozzle
  6
ByLayer
 62
  256
370
   -1
100
AcDbLine
 10
4
 20
12.01794919243112
 11
4
 21
12.01794919243112
  0
LINE
  5
112
100
AcDbEntity
  8
Nozzle
  6
ByLayer
 62
  256
370
   -1
100
AcDbLine
 10
4
 20
12.01794919243112
 11
4
 21
18.98205080756887
  0
LINE
  5
113
100
AcDbEntity
  8
Nozzle
  6
ByLayer
 62
  256
370
   -1
100
AcDbLine
 10
4
 20
18.98205080756887
 11
4
 21
18.98205080756887
  0
LINE
  5
114
100
AcDbEntity
  8
Nozzle
  6
ByLayer
 62
  256
370
   -1
100
AcDbLine
 10
4
 20
13.75
 11
-1.071530559594579e-016
 21
13.75
  0
LINE
  5
115
100
AcDbEntity
  8
Nozzle
  6
ByLayer
 62
  256
370
   -1
100
AcDbLine
 10
4
 20
12.01794919243112
 11
-2.132070771640592e-016
 21
12.01794919243113
  0
LINE
  5
116
100
AcDbEntity
  8
Nozzle
  6
ByLayer
 62
  256
370
   -1
100
AcDbLine
 10
4
 20
17.21410161513775
 11
1.049549864497446e-016
 21
17.21410161513775
  0
LINE
  5
117
100
AcDbEntity
  8
Nozzle
  6
ByLayer
 62
  256
370
   -1
100
AcDbLine
 10
4
 20
18.98205080756887
 11
2.132070771640592e-016
 21
18.98205080756887
  0
LINE
  5
118
100
AcDbEntity
  8
Nozzle
  6
ByLayer
 62
  256
370
   -1
100
AcDbLine
 10
-2.132070771640592e-016
 20
12.01794919243113
 11
2.132070771640592e-016
 21
18.98205080756887
  0
LINE
  5
119
100
AcDbEntity
  8
Nozzle
  6
ByLayer
 62
  256
370
   -1
100
AcDbLine
 10
6.5
 20
14.5
 11
4
 21
11.98205080756887
  0
LINE
  5
11A
100
AcDbEntity
  8
Nozzle
  6
ByLayer
 62
  256
370
   -1
100
AcDbLine
 10
6.5
 20
14.5
 11
6.5
 21
14.5
  0
LINE
  5
11B
100
AcDbEntity
  8
Nozzle
  6
ByLayer
 62
  256
370
   -1
100
AcDbLine
 10
6.5
 20
14.5
 11
6.5
 21
16.5
  0
LINE
  5
11C
100
AcDbEntity
  8
Nozzle
  6
ByLayer
 62
  256
370
   -1
100
AcDbLine
 10
6.5
 20
16.5
 11
4
 21
18.98205080756887
  0
LINE
  5
11D
100
AcDbEntity
  8
Nozzle
  6
ByLayer
 62
  256
370
   -1
100
AcDbLine
 10
6.5
 20
16.5
 11
6.5
 21
16.5
  0
LINE
  5
11E
100
AcDbEntity
  8
Nozzle
  6
ByLayer
 62
  256
370
   -1
100
AcDbLine
 10
-5
 20
13
 11
-1.07153055959458e-015
 21
13
  0
LINE
  5
11F
100
AcDbEntity
  8
Nozzle
  6
ByLayer
 62
  256
370
   -1
100
AcDbLine
 10
-5
 20
13
 11
-5
 21
13
  0
LINE
  5
120
100
AcDbEntity
  8
Nozzle
  6
ByLayer
 62
  256
370
   -1
100
AcDbLine
 10
-5
 20
18
 11
7.653789711389858e-016
 21
18
  0
LINE
  5
121
100
AcDbEntity
  8
Nozzle
  6
ByLayer
 62
  256
370
   -1
100
AcDbLine
 10
-5
 20
13
 11
-5
 21
18
  0
LINE
  5
122
100
AcDbEntity
  8
Nozzle
  6
ByLayer
 62
  256
370
   -1
100
AcDbLine
 10
-5
 20
18
 11
-5
 21
18
  0
LINE
  5
123
100
AcDbEntity
  8
Nozzle
  6
ByLayer
 62
  256
370
   -1
100
AcDbLine
 10
4
 20
13
 11
4
 21
18
  0
LINE
  5
124
100
AcDbEntity
  8
Holes
  6
ByLayer
 62
  256
370
   -1
100
AcDbLine
 10
4
 20
16.35
 11
6.5
 21
16.35
  0
LINE
  5
125
100
AcDbEntity
  8
Holes
  6
ByLayer
 62
  256
370
   -1
100
AcDbLine
 10
4
 20
16.35
 11
4
 21
16.35
  0
LINE
  5
126
100
AcDbEntity
  8
Holes
  6
ByLayer
 62
  256
370
   -1
100
AcDbLine
 10
4
 20
16.35
 11
4
 21
16.5
  0
LINE
  5
127
100
AcDbEntity
  8
Holes
  6
ByLayer
 62
  256
370
   -1
100
AcDbLine
 10
4
 20
16.5
 11
4
 21
16.5
  0
LINE
  5
128
100
AcDbEntity
  8
Holes
  6
ByLayer
 62
  256
370
   -1
100
AcDbLine
 10
1
 20
16.5
 11
4
 21
16.5
  0
LINE
  5
129
100
AcDbEntity
  8
Holes
  6
ByLayer
 62
  256
370
   -1
100
AcDbLine
 10
1
 20
16.5
 11
1
 21
16.5
  0
LINE
  5
12A
100
AcDbEntity
  8
Holes
  6
ByLayer
 62
  256
370
   -1
100
AcDbLine
 10
1
 20
16.5
 11
1
 21
16.75
  0
LINE
  5
12B
100
AcDbEntity
  8
Holes
  6
ByLayer
 62
  256
370
   -1
100
AcDbLine
 10
1
 20
16.75
 11
1
 21
16.75
  0
LINE
  5
12C
100
AcDbEntity
  8
Holes
  6
ByLayer
 62
  256
370
   -1
100
AcDbLine
 10
-2
 20
16.75
 11
1
 21
16.75
  0
LINE
  5
12D
100
AcDbEntity
  8
Holes
  6
ByLayer
 62
  256
370
   -1
100
AcDbLine
 10
-2
 20
16.75
 11
-2
 21
16.75
  0
LINE
  5
12E
100
AcDbEntity
  8
Holes
  6
ByLayer
 62
  256
370
   -1
100
AcDbLine
 10
-2
 20
16.75
 11
-2
 21
17
  0
LINE
  5
12F
100
AcDbEntity
  8
Holes
  6
ByLayer
 62
  256
370
   -1
100
AcDbLine
 10
-5
 20
17
 11
-2
 21
17
  0
LINE
  5
130
100
AcDbEntity
  8
Holes
  6
ByLayer
 62
  256
370
   -1
100
AcDbLine
 10
-2
 20
17
 11
-2
 21
17
  0
LINE
  5
131
100
AcDbEntity
  8
Holes
  6
ByLayer
 62
  256
370
   -1
100
AcDbLine
 10
4
 20
14.65
 11
6.5
 21
14.65
  0
LINE
  5
132
100
AcDbEntity
  8
Holes
  6
ByLayer
 62
  256
370
   -1
100
AcDbLine
 10
4
 20
14.65
 11
4
 21
14.65
  0
LINE
  5
133
100
AcDbEntity
  8
Holes
  6
ByLayer
 62
  256
370
   -1
100
AcDbLine
 10
4
 20
14.65
 11
4
 21
14.5
  0
LINE
  5
134
100
AcDbEntity
  8
Holes
  6
ByLayer
 62
  256
370
   -1
100
AcDbLine
 10
4
 20
14.5
 11
4
 21
14.5
  0
LINE
  5
135
100
AcDbEntity
  8
Holes
  6
ByLayer
 62
  256
370
   -1
100
AcDbLine
 10
0.9999999999999999
 20
14.5
 11
4
 21
14.5
  0
LINE
  5
136
100
AcDbEntity
  8
Holes
  6
ByLayer
 62
  256
370
   -1
100
AcDbLine
 10
0.9999999999999999
 20
14.5
 11
0.9999999999999999
 21
14.5
  0
LINE
  5
137
100
AcDbEntity
  8
Holes
  6
ByLayer
 62
  256
370
   -1
100
AcDbLine
 10
0.9999999999999999
 20
14.5
 11
0.9999999999999999
 21
14.25
  0
LINE
  5
138
100
AcDbEntity
  8
Holes
  6
ByLayer
 62
  256
370
   -1
100
AcDbLine
 10
0.9999999999999999
 20
14.25
 11
0.9999999999999999
 21
14.25
  0
LINE
  5
139
100
AcDbEntity
  8
Holes
  6
ByLayer
 62
  256
370
   -1
100
AcDbLine
 10
-2
 20
14.25
 11
0.9999999999999999
 21
14.25
  0
LINE
  5
13A
100
AcDbEntity
  8
Holes
  6
ByLayer
 62
  256
370
   -1
100
AcDbLine
 10
-2
 20
14.25
 11
-2
 21
14.25
  0
LINE
  5
13B
100
AcDbEntity
  8
Holes
  6
ByLayer
 62
  256
370
   -1
100
AcDbLine
 10
-2
 20
14.25
 11
-2
 21
14
  0
LINE
  5
13C
100
AcDbEntity
  8
Holes
  6
ByLayer
 62
  256
370
   -1
100
AcDbLine
 10
-5
 20
14
 11
-2
 21
14
  0
LINE
  5
13D
100
AcDbEntity
  8
Holes
  6
ByLayer
 62
  256
370
   -1
100
AcDbLine
 10
-2
 20
14
 11
-2
 21
14
  0
ENDBLK
  5
5D
330
5B
100
AcDbEntity
  8
0
100
AcDbBlockEnd
  0
BLOCK
  5
5F
330
5E
100
AcDbEntity
  8
0
100
AcDbBlockBegin
  2
ModifiedHotEnd-1
 70
    0
 10
0
 20
0
  3
ModifiedHotEnd-1
  1

  0
ARC
  5
13E
100
AcDbEntity
  8
Outline
  6
ByLayer
 62
  256
370
   -1
100
AcDbCircle
 10
-0.4999999999999996
 20
7
 40
1
100
AcDbArc
 50
90
 51
180
  0
LINE
  5
13F
100
AcDbEntity
  8
Outline
  6
CONTINUOUS
 62
  256
370
    0
100
AcDbLine
 10
1.224606353822377e-015
 20
20
 11
-20
 21
20
  0
LINE
  5
140
100
AcDbEntity
  8
Outline
  6
CONTINUOUS
 62
  256
370
    0
100
AcDbLine
 10
-20
 20
20
 11
-20
 21
1.224606353822377e-015
  0
LINE
  5
141
100
AcDbEntity
  8
Outline
  6
CONTINUOUS
 62
  256
370
   20
100
AcDbLine
 10
4.898425415289509e-016
 20
8
 11
1.224606353822377e-015
 21
20
  0
LINE
  5
142
100
AcDbEntity
  8
Outline
  6
ByLayer
 62
  256
370
   -1
100
AcDbLine
 10
-0.4999999999999995
 20
8
 11
4.898425415289509e-016
 21
8
  0
LINE
  5
143
100
AcDbEntity
  8
Outline
  6
ByLayer
 62
  256
370
   -1
100
AcDbLine
 10
4.898425415289509e-016
 20
8
 11
4.898425415289509e-016
 21
8
  0
LINE
  5
144
100
AcDbEntity
  8
Outline
  6
CONTINUOUS
 62
  256
370
    0
100
AcDbLine
 10
-20
 20
1.224606353822377e-015
 11
-1.5
 21
9.184547653667829e-017
  0
LINE
  5
145
100
AcDbEntity
  8
Outline
  6
ByLayer
 62
  256
370
   -1
100
AcDbLine
 10
-1.5
 20
9.184547653667829e-017
 11
-1.5
 21
7
  0
LINE
  5
146
100
AcDbEntity
  8
Outline
  6
ByLayer
 62
  256
370
   -1
100
AcDbLine
 10
-1.5
 20
9.184547653667829e-017
 11
-1.5
 21
9.184547653667829e-017
  0
CIRCLE
  5
147
100
AcDbEntity
  8
Outline
  6
ByLayer
 62
  256
370
   -1
100
AcDbCircle
 10
-5.5
 20
2.5
 40
1.5
  0
CIRCLE
  5
148
100
AcDbEntity
  8
Outline
  6
ByLayer
 62
  256
370
   -1
100
AcDbCircle
 10
-14.5
 20
2.500000000000001
 40
1.5
  0
CIRCLE
  5
149
100
AcDbEntity
  8
Outline
  6
ByLayer
 62
  256
370
   -1
100
AcDbCircle
 10
-12
 20
11.5
 40
1.5
  0
CIRCLE
  5
14A
100
AcDbEntity
  8
Outline
  6
ByLayer
 62
  256
370
   -1
100
AcDbCircle
 10
-15.5
 20
11.5
 40
1
  0
LINE
  5
14B
100
AcDbEntity
  8
Holes
  6
ByLayer
 62
  256
370
   -1
100
AcDbLine
 10
1.423604886318514e-015
 20
11.05
 11
-20
 21
11.05
  0
LINE
  5
14C
100
AcDbEntity
  8
Holes
  6
ByLayer
 62
  256
370
   -1
100
AcDbLine
 10
-1.5
 20
4.95
 11
-20
 21
4.950000000000001
  0
LINE
  5
14D
100
AcDbEntity
  8
Holes
  6
ByLayer
 62
  256
370
   -1
100
AcDbLine
 10
4.898425415289509e-016
 20
13
 11
-4.999999999999999
 21
13
  0
LINE
  5
14E
100
AcDbEntity
  8
Holes
  6
ByLayer
 62
  256
370
   -1
100
AcDbLine
 10
-4.999999999999999
 20
13
 11
-4.999999999999999
 21
13
  0
LINE
  5
14F
100
AcDbEntity
  8
Holes
  6
ByLayer
 62
  256
370
   -1
100
AcDbLine
 10
-4.999999999999999
 20
13
 11
-4.999999999999999
 21
12.75
  0
LINE
  5
150
100
AcDbEntity
  8
Holes
  6
ByLayer
 62
  256
370
   -1
100
AcDbLine
 10
-4.999999999999999
 20
12.75
 11
-4.999999999999999
 21
12.75
  0
LINE
  5
151
100
AcDbEntity
  8
Holes
  6
ByLayer
 62
  256
370
   -1
100
AcDbLine
 10
-4.999999999999999
 20
12.75
 11
-7.999999999999999
 21
12.75
  0
LINE
  5
152
100
AcDbEntity
  8
Holes
  6
ByLayer
 62
  256
370
   -1
100
AcDbLine
 10
-7.999999999999999
 20
12.75
 11
-7.999999999999999
 21
12.75
  0
LINE
  5
153
100
AcDbEntity
  8
Holes
  6
ByLayer
 62
  256
370
   -1
100
AcDbLine
 10
-7.999999999999999
 20
12.75
 11
-7.999999999999999
 21
12.5
  0
LINE
  5
154
100
AcDbEntity
  8
Holes
  6
ByLayer
 62
  256
370
   -1
100
AcDbLine
 10
-7.999999999999999
 20
12.5
 11
-7.999999999999999
 21
12.5
  0
LINE
  5
155
100
AcDbEntity
  8
Holes
  6
ByLayer
 62
  256
370
   -1
100
AcDbLine
 10
-7.999999999999999
 20
12.5
 11
-11
 21
12.5
  0
LINE
  5
156
100
AcDbEntity
  8
Holes
  6
ByLayer
 62
  256
370
   -1
100
AcDbLine
 10
-11
 20
12.5
 11
-11
 21
12.5
  0
LINE
  5
157
100
AcDbEntity
  8
Holes
  6
ByLayer
 62
  256
370
   -1
100
AcDbLine
 10
-11
 20
12.5
 11
-11
 21
12.25
  0
LINE
  5
158
100
AcDbEntity
  8
Holes
  6
ByLayer
 62
  256
370
   -1
100
AcDbLine
 10
-11
 20
12.25
 11
-11
 21
12.25
  0
LINE
  5
159
100
AcDbEntity
  8
Holes
  6
ByLayer
 62
  256
370
   -1
100
AcDbLine
 10
-11
 20
12.25
 11
-14
 21
12.25
  0
LINE
  5
15A
100
AcDbEntity
  8
Holes
  6
ByLayer
 62
  256
370
   -1
100
AcDbLine
 10
-14
 20
12.25
 11
-14
 21
12.25
  0
LINE
  5
15B
100
AcDbEntity
  8
Holes
  6
ByLayer
 62
  256
370
   -1
100
AcDbLine
 10
-14
 20
12.25
 11
-14
 21
12
  0
LINE
  5
15C
100
AcDbEntity
  8
Holes
  6
ByLayer
 62
  256
370
   -1
100
AcDbLine
 10
-14
 20
12
 11
-14
 21
12
  0
LINE
  5
15D
100
AcDbEntity
  8
Holes
  6
ByLayer
 62
  256
370
   -1
100
AcDbLine
 10
-14
 20
12
 11
-17
 21
12
  0
LINE
  5
15E
100
AcDbEntity
  8
Holes
  6
ByLayer
 62
  256
370
   -1
100
AcDbLine
 10
-17
 20
12
 11
-17
 21
12
  0
LINE
  5
15F
100
AcDbEntity
  8
Holes
  6
ByLayer
 62
  256
370
   -1
100
AcDbLine
 10
-17
 20
12
 11
-17
 21
11.75
  0
LINE
  5
160
100
AcDbEntity
  8
Holes
  6
ByLayer
 62
  256
370
   -1
100
AcDbLine
 10
-17
 20
11.75
 11
-20
 21
11.75
  0
LINE
  5
161
100
AcDbEntity
  8
Holes
  6
ByLayer
 62
  256
370
   -1
100
AcDbLine
 10
-17
 20
11.75
 11
-17
 21
11.75
  0
LINE
  5
162
100
AcDbEntity
  8
Holes
  6
ByLayer
 62
  256
370
   -1
100
AcDbLine
 10
7.959941299845452e-016
 20
18
 11
-4.999999999999999
 21
18
  0
LINE
  5
163
100
AcDbEntity
  8
Holes
  6
ByLayer
 62
  256
370
   -1
100
AcDbLine
 10
-4.999999999999999
 20
18
 11
-4.999999999999999
 21
18
  0
LINE
  5
164
100
AcDbEntity
  8
Holes
  6
ByLayer
 62
  256
370
   -1
100
AcDbLine
 10
-4.999999999999999
 20
18
 11
-4.999999999999999
 21
18.25
  0
LINE
  5
165
100
AcDbEntity
  8
Holes
  6
ByLayer
 62
  256
370
   -1
100
AcDbLine
 10
-4.999999999999999
 20
18.25
 11
-4.999999999999999
 21
18.25
  0
LINE
  5
166
100
AcDbEntity
  8
Holes
  6
ByLayer
 62
  256
370
   -1
100
AcDbLine
 10
-4.999999999999999
 20
18.25
 11
-7.999999999999999
 21
18.25
  0
LINE
  5
167
100
AcDbEntity
  8
Holes
  6
ByLayer
 62
  256
370
   -1
100
AcDbLine
 10
-7.999999999999999
 20
18.25
 11
-7.999999999999999
 21
18.25
  0
LINE
  5
168
100
AcDbEntity
  8
Holes
  6
ByLayer
 62
  256
370
   -1
100
AcDbLine
 10
-7.999999999999999
 20
18.25
 11
-7.999999999999999
 21
18.5
  0
LINE
  5
169
100
AcDbEntity
  8
Holes
  6
ByLayer
 62
  256
370
   -1
100
AcDbLine
 10
-7.999999999999999
 20
18.5
 11
-7.999999999999999
 21
18.5
  0
LINE
  5
16A
100
AcDbEntity
  8
Holes
  6
ByLayer
 62
  256
370
   -1
100
AcDbLine
 10
-7.999999999999999
 20
18.5
 11
-11
 21
18.5
  0
LINE
  5
16B
100
AcDbEntity
  8
Holes
  6
ByLayer
 62
  256
370
   -1
100
AcDbLine
 10
-11
 20
18.5
 11
-11
 21
18.5
  0
LINE
  5
16C
100
AcDbEntity
  8
Holes
  6
ByLayer
 62
  256
370
   -1
100
AcDbLine
 10
-11
 20
18.5
 11
-11
 21
18.75
  0
LINE
  5
16D
100
AcDbEntity
  8
Holes
  6
ByLayer
 62
  256
370
   -1
100
AcDbLine
 10
-11
 20
18.75
 11
-11
 21
18.75
  0
LINE
  5
16E
100
AcDbEntity
  8
Holes
  6
ByLayer
 62
  256
370
   -1
100
AcDbLine
 10
-11
 20
18.75
 11
-14
 21
18.75
  0
LINE
  5
16F
100
AcDbEntity
  8
Holes
  6
ByLayer
 62
  256
370
   -1
100
AcDbLine
 10
-14
 20
18.75
 11
-14
 21
18.75
  0
LINE
  5
170
100
AcDbEntity
  8
Holes
  6
ByLayer
 62
  256
370
   -1
100
AcDbLine
 10
-14
 20
18.75
 11
-14
 21
19
  0
LINE
  5
171
100
AcDbEntity
  8
Holes
  6
ByLayer
 62
  256
370
   -1
100
AcDbLine
 10
-14
 20
19
 11
-14
 21
19
  0
LINE
  5
172
100
AcDbEntity
  8
Holes
  6
ByLayer
 62
  256
370
   -1
100
AcDbLine
 10
-14
 20
19
 11
-17
 21
19
  0
LINE
  5
173
100
AcDbEntity
  8
Holes
  6
ByLayer
 62
  256
370
   -1
100
AcDbLine
 10
-17
 20
19
 11
-17
 21
19
  0
LINE
  5
174
100
AcDbEntity
  8
Holes
  6
ByLayer
 62
  256
370
   -1
100
AcDbLine
 10
-17
 20
19
 11
-17
 21
19.25
  0
LINE
  5
175
100
AcDbEntity
  8
Holes
  6
ByLayer
 62
  256
370
   -1
100
AcDbLine
 10
-17
 20
19.25
 11
-20
 21
19.25
  0
LINE
  5
176
100
AcDbEntity
  8
Holes
  6
ByLayer
 62
  256
370
   -1
100
AcDbLine
 10
-17
 20
19.25
 11
-17
 21
19.25
  0
INSERT
  5
177
100
AcDbEntity
  8
Holes
  6
ByLayer
 62
  256
370
   -1
100
AcDbBlockReference
  2
ModifiedNozzle-1
 10
0
 20
0
 30
0
 41
1
 42
1
 43
0
 50
0
 70
    1
 71
    1
 44
0
 45
0
  0
ENDBLK
  5
60
330
5E
100
AcDbEntity
  8
0
100
AcDbBlockEnd
  0
BLOCK
  5
62
330
61
100
AcDbEntity
  8
0
100
AcDbBlockBegin
  2
ModifiedNozzle-1
 70
    0
 10
0
 20
0
  3
ModifiedNozzle-1
  1

  0
LINE
  5
178
100
AcDbEntity
  8
Nozzle
  6
ByLayer
 62
  256
370
   -1
100
AcDbLine
 10
4
 20
12.01794919243112
 11
4
 21
12.01794919243112
  0
LINE
  5
179
100
AcDbEntity
  8
Nozzle
  6
ByLayer
 62
  256
370
   -1
100
AcDbLine
 10
4
 20
12.01794919243112
 11
4
 21
18.98205080756887
  0
LINE
  5
17A
100
AcDbEntity
  8
Nozzle
  6
ByLayer
 62
  256
370
   -1
100
AcDbLine
 10
4
 20
18.98205080756887
 11
4
 21
18.98205080756887
  0
LINE
  5
17B
100
AcDbEntity
  8
Nozzle
  6
ByLayer
 62
  256
370
   -1
100
AcDbLine
 10
4
 20
13.75
 11
-1.071530559594579e-016
 21
13.75
  0
LINE
  5
17C
100
AcDbEntity
  8
Nozzle
  6
ByLayer
 62
  256
370
   -1
100
AcDbLine
 10
4
 20
12.01794919243112
 11
-2.132070771640592e-016
 21
12.01794919243113
  0
LINE
  5
17D
100
AcDbEntity
  8
Nozzle
  6
ByLayer
 62
  256
370
   -1
100
AcDbLine
 10
4
 20
17.21410161513775
 11
1.049549864497446e-016
 21
17.21410161513775
  0
LINE
  5
17E
100
AcDbEntity
  8
Nozzle
  6
ByLayer
 62
  256
370
   -1
100
AcDbLine
 10
4
 20
18.98205080756887
 11
2.132070771640592e-016
 21
18.98205080756887
  0
LINE
  5
17F
100
AcDbEntity
  8
Nozzle
  6
ByLayer
 62
  256
370
   -1
100
AcDbLine
 10
-2.132070771640592e-016
 20
12.01794919243113
 11
2.132070771640592e-016
 21
18.98205080756887
  0
LINE
  5
180
100
AcDbEntity
  8
Nozzle
  6
ByLayer
 62
  256
370
   -1
100
AcDbLine
 10
6.5
 20
14.5
 11
4
 21
11.98205080756887
  0
LINE
  5
181
100
AcDbEntity
  8
Nozzle
  6
ByLayer
 62
  256
370
   -1
100
AcDbLine
 10
6.5
 20
14.5
 11
6.5
 21
14.5
  0
LINE
  5
182
100
AcDbEntity
  8
Nozzle
  6
ByLayer
 62
  256
370
   -1
100
AcDbLine
 10
6.5
 20
14.5
 11
6.5
 21
16.5
  0
LINE
  5
183
100
AcDbEntity
  8
Nozzle
  6
ByLayer
 62
  256
370
   -1
100
AcDbLine
 10
6.5
 20
16.5
 11
4
 21
18.98205080756887
  0
LINE
  5
184
100
AcDbEntity
  8
Nozzle
  6
ByLayer
 62
  256
370
   -1
100
AcDbLine
 10
6.5
 20
16.5
 11
6.5
 21
16.5
  0
LINE
  5
185
100
AcDbEntity
  8
Nozzle
  6
ByLayer
 62
  256
370
   -1
100
AcDbLine
 10
-5
 20
13
 11
-1.07153055959458e-015
 21
13
  0
LINE
  5
186
100
AcDbEntity
  8
Nozzle
  6
ByLayer
 62
  256
370
   -1
100
AcDbLine
 10
-5
 20
13
 11
-5
 21
13
  0
LINE
  5
187
100
AcDbEntity
  8
Nozzle
  6
ByLayer
 62
  256
370
   -1
100
AcDbLine
 10
-5
 20
18
 11
7.653789711389858e-016
 21
18
  0
LINE
  5
188
100
AcDbEntity
  8
Nozzle
  6
ByLayer
 62
  256
370
   -1
100
AcDbLine
 10
-5
 20
13
 11
-5
 21
18
  0
LINE
  5
189
100
AcDbEntity
  8
Nozzle
  6
ByLayer
 62
  256
370
   -1
100
AcDbLine
 10
-5
 20
18
 11
-5
 21
18
  0
LINE
  5
18A
100
AcDbEntity
  8
Nozzle
  6
ByLayer
 62
  256
370
   -1
100
AcDbLine
 10
4
 20
13
 11
4
 21
18
  0
LINE
  5
18B
100
AcDbEntity
  8
Holes
  6
ByLayer
 62
  256
370
   -1
100
AcDbLine
 10
4
 20
16.35
 11
6.5
 21
16.35
  0
LINE
  5
18C
100
AcDbEntity
  8
Holes
  6
ByLayer
 62
  256
370
   -1
100
AcDbLine
 10
4
 20
16.35
 11
4
 21
16.35
  0
LINE
  5
18D
100
AcDbEntity
  8
Holes
  6
ByLayer
 62
  256
370
   -1
100
AcDbLine
 10
4
 20
16.35
 11
4
 21
16.5
  0
LINE
  5
18E
100
AcDbEntity
  8
Holes
  6
ByLayer
 62
  256
370
   -1
100
AcDbLine
 10
4
 20
16.5
 11
4
 21
16.5
  0
LINE
  5
18F
100
AcDbEntity
  8
Holes
  6
ByLayer
 62
  256
370
   -1
100
AcDbLine
 10
1
 20
16.5
 11
4
 21
16.5
  0
LINE
  5
190
100
AcDbEntity
  8
Holes
  6
ByLayer
 62
  256
370
   -1
100
AcDbLine
 10
1
 20
16.5
 11
1
 21
16.5
  0
LINE
  5
191
100
AcDbEntity
  8
Holes
  6
ByLayer
 62
  256
370
   -1
100
AcDbLine
 10
1
 20
16.5
 11
1
 21
16.75
  0
LINE
  5
192
100
AcDbEntity
  8
Holes
  6
ByLayer
 62
  256
370
   -1
100
AcDbLine
 10
1
 20
16.75
 11
1
 21
16.75
  0
LINE
  5
193
100
AcDbEntity
  8
Holes
  6
ByLayer
 62
  256
370
   -1
100
AcDbLine
 10
-2
 20
16.75
 11
1
 21
16.75
  0
LINE
  5
194
100
AcDbEntity
  8
Holes
  6
ByLayer
 62
  256
370
   -1
100
AcDbLine
 10
-2
 20
16.75
 11
-2
 21
16.75
  0
LINE
  5
195
100
AcDbEntity
  8
Holes
  6
ByLayer
 62
  256
370
   -1
100
AcDbLine
 10
-2
 20
16.75
 11
-2
 21
17
  0
LINE
  5
196
100
AcDbEntity
  8
Holes
  6
ByLayer
 62
  256
370
   -1
100
AcDbLine
 10
-5
 20
17
 11
-2
 21
17
  0
LINE
  5
197
100
AcDbEntity
  8
Holes
  6
ByLayer
 62
  256
370
   -1
100
AcDbLine
 10
-2
 20
17
 11
-2
 21
17
  0
LINE
  5
198
100
AcDbEntity
  8
Holes
  6
ByLayer
 62
  256
370
   -1
100
AcDbLine
 10
4
 20
14.65
 11
6.5
 21
14.65
  0
LINE
  5
199
100
AcDbEntity
  8
Holes
  6
ByLayer
 62
  256
370
   -1
100
AcDbLine
 10
4
 20
14.65
 11
4
 21
14.65
  0
LINE
  5
19A
100
AcDbEntity
  8
Holes
  6
ByLayer
 62
  256
370
   -1
100
AcDbLine
 10
4
 20
14.65
 11
4
 21
14.5
  0
LINE
  5
19B
100
AcDbEntity
  8
Holes
  6
ByLayer
 62
  256
370
   -1
100
AcDbLine
 10
4
 20
14.5
 11
4
 21
14.5
  0
LINE
  5
19C
100
AcDbEntity
  8
Holes
  6
ByLayer
 62
  256
370
   -1
100
AcDbLine
 10
0.9999999999999999
 20
14.5
 11
4
 21
14.5
  0
LINE
  5
19D
100
AcDbEntity
  8
Holes
  6
ByLayer
 62
  256
370
   -1
100
AcDbLine
 10
0.9999999999999999
 20
14.5
 11
0.9999999999999999
 21
14.5
  0
LINE
  5
19E
100
AcDbEntity
  8
Holes
  6
ByLayer
 62
  256
370
   -1
100
AcDbLine
 10
0.9999999999999999
 20
14.5
 11
0.9999999999999999
 21
14.25
  0
LINE
  5
19F
100
AcDbEntity
  8
Holes
  6
ByLayer
 62
  256
370
   -1
100
AcDbLine
 10
0.9999999999999999
 20
14.25
 11
0.9999999999999999
 21
14.25
  0
LINE
  5
1A0
100
AcDbEntity
  8
Holes
  6
ByLayer
 62
  256
370
   -1
100
AcDbLine
 10
-2
 20
14.25
 11
0.9999999999999999
 21
14.25
  0
LINE
  5
1A1
100
AcDbEntity
  8
Holes
  6
ByLayer
 62
  256
370
   -1
100
AcDbLine
 10
-2
 20
14.25
 11
-2
 21
14.25
  0
LINE
  5
1A2
100
AcDbEntity
  8
Holes
  6
ByLayer
 62
  256
370
   -1
100
AcDbLine
 10
-2
 20
14.25
 11
-2
 21
14
  0
LINE
  5
1A3
100
AcDbEntity
  8
Holes
  6
ByLayer
 62
  256
370
   -1
100
AcDbLine
 10
-5
 20
14
 11
-2
 21
14
  0
LINE
  5
1A4
100
AcDbEntity
  8
Holes
  6
ByLayer
 62
  256
370
   -1
100
AcDbLine
 10
-2
 20
14
 11
-2
 21
14
  0
ENDBLK
  5
63
330
61
100
AcDbEntity
  8
0
100
AcDbBlockEnd
  0
BLOCK
  5
65
330
64
100
AcDbEntity
  8
0
100
AcDbBlockBegin
  2
RadialFan30mm
 70
    0
 10
0
 20
0
  3
RadialFan30mm
  1

  0
CIRCLE
  5
1A5
100
AcDbEntity
  8
Outline
  6
ByLayer
 62
  256
370
   -1
100
AcDbCircle
 10
3
 20
27.2
 40
1.25
  0
CIRCLE
  5
1A6
100
AcDbEntity
  8
Outline
  6
ByLayer
 62
  256
370
   -1
100
AcDbCircle
 10
27.2
 20
3
 40
1.25
  0
CIRCLE
  5
1A7
100
AcDbEntity
  8
Outline
  6
ByLayer
 62
  256
370
   -1
100
AcDbCircle
 10
14
 20
14
 40
11.5
  0
CIRCLE
  5
1A8
100
AcDbEntity
  8
Outline
  6
ByLayer
 62
  256
370
   -1
100
AcDbCircle
 10
14
 20
14
 40
8.5
  0
LWPOLYLINE
  5
1A9
100
AcDbEntity
  8
Outline
  6
ByLayer
 62
  256
370
   -1
100
AcDbPolyline
 90
    4
 70
    1
 43
0
 10
14
 20
25
 10
15
 20
25
 10
15
 20
23
 10
14
 20
23
  0
LWPOLYLINE
  5
1AA
100
AcDbEntity
  8
Outline
  6
ByLayer
 62
  256
370
   -1
100
AcDbPolyline
 90
    4
 70
    1
 43
0
 10
11.15299050387227
 20
24.62518408917975
 10
12.11891633016134
 20
24.88400313428227
 10
12.63655442036638
 20
22.95215148170413
 10
11.67062859407731
 20
22.69333243660162
  0
LWPOLYLINE
  5
1AB
100
AcDbEntity
  8
Outline
  6
ByLayer
 62
  256
370
   -1
100
AcDbPolyline
 90
    4
 70
    1
 43
0
 10
8.5
 20
23.52627944162883
 10
9.366025403784439
 20
24.02627944162883
 10
10.36602540378444
 20
22.29422863405995
 10
9.5
 20
21.79422863405995
  0
LWPOLYLINE
  5
1AC
100
AcDbEntity
  8
Outline
  6
ByLayer
 62
  256
370
   -1
100
AcDbPolyline
 90
    4
 70
    1
 43
0
 10
6.221825406947978
 20
21.77817459305202
 10
6.928932188134525
 20
22.48528137423857
 10
8.34314575050762
 20
21.07106781186548
 10
7.636038969321072
 20
20.36396103067893
  0
LWPOLYLINE
  5
1AD
100
AcDbEntity
  8
Outline
  6
ByLayer
 62
  256
370
   -1
100
AcDbPolyline
 90
    4
 70
    1
 43
0
 10
4.473720558371175
 20
19.5
 10
4.973720558371175
 20
20.36602540378444
 10
6.705771365940053
 20
19.36602540378444
 10
6.205771365940053
 20
18.5
  0
LWPOLYLINE
  5
1AE
100
AcDbEntity
  8
Outline
  6
ByLayer
 62
  256
370
   -1
100
AcDbPolyline
 90
    4
 70
    1
 43
0
 10
3.37481591082025
 20
16.84700949612773
 10
3.633634955922771
 20
17.8129353224168
 10
5.565486608500907
 20
17.29529723221176
 10
5.306667563398387
 20
16.32937140592269
  0
LWPOLYLINE
  5
1AF
100
AcDbEntity
  8
Outline
  6
ByLayer
 62
  256
370
   -1
100
AcDbPolyline
 90
    4
 70
    1
 43
0
 10
3
 20
14
 10
3
 20
15
 10
5
 20
15
 10
5
 20
14
  0
LWPOLYLINE
  5
1B0
100
AcDbEntity
  8
Outline
  6
ByLayer
 62
  256
370
   -1
100
AcDbPolyline
 90
    4
 70
    1
 43
0
 10
3.374815910820248
 20
11.15299050387227
 10
3.115996865717728
 20
12.11891633016134
 10
5.047848518295865
 20
12.63655442036638
 10
5.306667563398385
 20
11.67062859407731
  0
LWPOLYLINE
  5
1B1
100
AcDbEntity
  8
Outline
  6
ByLayer
 62
  256
370
   -1
100
AcDbPolyline
 90
    4
 70
    1
 43
0
 10
4.473720558371174
 20
8.500000000000002
 10
3.973720558371174
 20
9.366025403784441
 10
5.705771365940052
 20
10.36602540378444
 10
6.205771365940052
 20
9.500000000000002
  0
LWPOLYLINE
  5
1B2
100
AcDbEntity
  8
Outline
  6
ByLayer
 62
  256
370
   -1
100
AcDbPolyline
 90
    4
 70
    1
 43
0
 10
6.221825406947977
 20
6.221825406947978
 10
5.51471862576143
 20
6.928932188134525
 10
6.928932188134524
 20
8.34314575050762
 10
7.636038969321072
 20
7.636038969321072
  0
LWPOLYLINE
  5
1B3
100
AcDbEntity
  8
Outline
  6
ByLayer
 62
  256
370
   -1
100
AcDbPolyline
 90
    4
 70
    1
 43
0
 10
8.499999999999996
 20
4.473720558371177
 10
7.633974596215558
 20
4.973720558371177
 10
8.633974596215559
 20
6.705771365940054
 10
9.499999999999996
 20
6.205771365940054
  0
LWPOLYLINE
  5
1B4
100
AcDbEntity
  8
Outline
  6
ByLayer
 62
  256
370
   -1
100
AcDbPolyline
 90
    4
 70
    1
 43
0
 10
11.15299050387227
 20
3.37481591082025
 10
10.1870646775832
 20
3.633634955922771
 10
10.70470276778824
 20
5.565486608500907
 10
11.67062859407731
 20
5.306667563398387
  0
LWPOLYLINE
  5
1B5
100
AcDbEntity
  8
Outline
  6
ByLayer
 62
  256
370
   -1
100
AcDbPolyline
 90
    4
 70
    1
 43
0
 10
14
 20
3
 10
13
 20
3
 10
13
 20
5
 10
14
 20
5
  0
LWPOLYLINE
  5
1B6
100
AcDbEntity
  8
Outline
  6
ByLayer
 62
  256
370
   -1
100
AcDbPolyline
 90
    4
 70
    1
 43
0
 10
16.84700949612773
 20
3.374815910820248
 10
15.88108366983866
 20
3.115996865717727
 10
15.36344557963361
 20
5.047848518295864
 10
16.32937140592268
 20
5.306667563398384
  0
LWPOLYLINE
  5
1B7
100
AcDbEntity
  8
Outline
  6
ByLayer
 62
  256
370
   -1
100
AcDbPolyline
 90
    4
 70
    1
 43
0
 10
19.5
 20
4.473720558371173
 10
18.63397459621556
 20
3.973720558371173
 10
17.63397459621556
 20
5.705771365940051
 10
18.5
 20
6.20577136594005
  0
LWPOLYLINE
  5
1B8
100
AcDbEntity
  8
Outline
  6
ByLayer
 62
  256
370
   -1
100
AcDbPolyline
 90
    4
 70
    1
 43
0
 10
21.77817459305202
 20
6.221825406947973
 10
21.07106781186547
 20
5.514718625761426
 10
19.65685424949238
 20
6.928932188134522
 10
20.36396103067893
 20
7.636038969321069
  0
LWPOLYLINE
  5
1B9
100
AcDbEntity
  8
Outline
  6
ByLayer
 62
  256
370
   -1
100
AcDbPolyline
 90
    4
 70
    1
 43
0
 10
23.52627944162882
 20
8.499999999999995
 10
23.02627944162882
 20
7.633974596215557
 10
21.29422863405994
 20
8.633974596215557
 10
21.79422863405994
 20
9.499999999999996
  0
LWPOLYLINE
  5
1BA
100
AcDbEntity
  8
Outline
  6
ByLayer
 62
  256
370
   -1
100
AcDbPolyline
 90
    4
 70
    1
 43
0
 10
24.62518408917975
 20
11.15299050387226
 10
24.36636504407723
 20
10.18706467758319
 10
22.43451339149909
 20
10.70470276778824
 10
22.69333243660161
 20
11.67062859407731
  0
LWPOLYLINE
  5
1BB
100
AcDbEntity
  8
Outline
  6
ByLayer
 62
  256
370
   -1
100
AcDbPolyline
 90
    4
 70
    1
 43
0
 10
25
 20
14
 10
25
 20
13
 10
23
 20
13
 10
23
 20
14
  0
LWPOLYLINE
  5
1BC
100
AcDbEntity
  8
Outline
  6
ByLayer
 62
  256
370
   -1
100
AcDbPolyline
 90
    4
 70
    1
 43
0
 10
24.62518408917975
 20
16.84700949612772
 10
24.88400313428227
 20
15.88108366983865
 10
22.95215148170413
 20
15.36344557963361
 10
22.69333243660162
 20
16.32937140592268
  0
LWPOLYLINE
  5
1BD
100
AcDbEntity
  8
Outline
  6
ByLayer
 62
  256
370
   -1
100
AcDbPolyline
 90
    4
 70
    1
 43
0
 10
23.52627944162883
 20
19.49999999999999
 10
24.02627944162883
 20
18.63397459621555
 10
22.29422863405995
 20
17.63397459621556
 10
21.79422863405995
 20
18.49999999999999
  0
LWPOLYLINE
  5
1BE
100
AcDbEntity
  8
Outline
  6
ByLayer
 62
  256
370
   -1
100
AcDbPolyline
 90
    4
 70
    1
 43
0
 10
21.77817459305203
 20
21.77817459305202
 10
22.48528137423857
 20
21.07106781186547
 10
21.07106781186548
 20
19.65685424949238
 10
20.36396103067893
 20
20.36396103067893
  0
LWPOLYLINE
  5
1BF
100
AcDbEntity
  8
Outline
  6
ByLayer
 62
  256
370
   -1
100
AcDbPolyline
 90
    4
 70
    1
 43
0
 10
19.5
 20
23.52627944162882
 10
20.36602540378444
 20
23.02627944162882
 10
19.36602540378444
 20
21.29422863405994
 10
18.5
 20
21.79422863405994
  0
LWPOLYLINE
  5
1C0
100
AcDbEntity
  8
Outline
  6
ByLayer
 62
  256
370
   -1
100
AcDbPolyline
 90
    4
 70
    1
 43
0
 10
16.84700949612774
 20
24.62518408917975
 10
17.81293532241681
 20
24.36636504407723
 10
17.29529723221176
 20
22.43451339149909
 10
16.32937140592269
 20
22.69333243660161
  0
LWPOLYLINE
  5
1C1
100
AcDbEntity
  8
Outline
  6
ByLayer
 62
  256
370
   -1
100
AcDbPolyline
 90
    4
 70
    1
 43
0
 10
14
 20
25
 10
15
 20
25
 10
15
 20
23
 10
14
 20
23
  0
LINE
  5
1C2
100
AcDbEntity
  8
Outline
  6
ByLayer
 62
  256
370
   -1
100
AcDbLine
 10
25
 20
29
 11
23
 21
27
  0
LINE
  5
1C3
100
AcDbEntity
  8
Outline
  6
ByLayer
 62
  256
370
   -1
100
AcDbLine
 10
23
 20
27
 11
24
 21
27
  0
LINE
  5
1C4
100
AcDbEntity
  8
Outline
  6
ByLayer
 62
  256
370
   -1
100
AcDbLine
 10
24
 20
27
 11
24
 21
24
  0
LINE
  5
1C5
100
AcDbEntity
  8
Outline
  6
ByLayer
 62
  256
370
   -1
100
AcDbLine
 10
24
 20
24
 11
26
 21
24
  0
LINE
  5
1C6
100
AcDbEntity
  8
Outline
  6
ByLayer
 62
  256
370
   -1
100
AcDbLine
 10
26
 20
24
 11
26
 21
27
  0
LINE
  5
1C7
100
AcDbEntity
  8
Outline
  6
ByLayer
 62
  256
370
   -1
100
AcDbLine
 10
26
 20
27
 11
27
 21
27
  0
LINE
  5
1C8
100
AcDbEntity
  8
Outline
  6
ByLayer
 62
  256
370
   -1
100
AcDbLine
 10
27
 20
27
 11
25
 21
29
  0
ARC
  5
1C9
100
AcDbEntity
  8
Outline
  6
ByLayer
 62
  256
370
   -1
100
AcDbCircle
 10
2
 20
28
 40
2
100
AcDbArc
 50
90
 51
180
  0
LINE
  5
1CA
100
AcDbEntity
  8
Outline
  6
ByLayer
 62
  256
370
   -1
100
AcDbLine
 10
0
 20
2
 11
0
 21
28
  0
ARC
  5
1CB
100
AcDbEntity
  8
Outline
  6
ByLayer
 62
  256
370
   -1
100
AcDbCircle
 10
2
 20
2
 40
2
100
AcDbArc
 50
180
 51
270
  0
LINE
  5
1CC
100
AcDbEntity
  8
Outline
  6
ByLayer
 62
  256
370
   -1
100
AcDbLine
 10
28
 20
0
 11
2
 21
0
  0
ARC
  5
1CD
100
AcDbEntity
  8
Outline
  6
ByLayer
 62
  256
370
   -1
100
AcDbCircle
 10
28
 20
2
 40
2
100
AcDbArc
 50
270
 51
0
  0
LINE
  5
1CE
100
AcDbEntity
  8
Outline
  6
ByLayer
 62
  256
370
   -1
100
AcDbLine
 10
30
 20
28
 11
30
 21
2
  0
LINE
  5
1CF
100
AcDbEntity
  8
Outline
  6
ByLayer
 62
  256
370
   -1
100
AcDbLine
 10
2
 20
30
 11
28
 21
30
  0
ARC
  5
1D0
100
AcDbEntity
  8
Outline
  6
ByLayer
 62
  256
370
   -1
100
AcDbCircle
 10
28
 20
28
 40
2
100
AcDbArc
 50
0
 51
90
  0
ENDBLK
  5
66
330
64
100
AcDbEntity
  8
0
100
AcDbBlockEnd
  0
BLOCK
  5
68
330
67
100
AcDbEntity
  8
0
100
AcDbBlockBegin
  2
RadialFan30mm-0
 70
    0
 10
0
 20
0
  3
RadialFan30mm-0
  1

  0
CIRCLE
  5
1D1
100
AcDbEntity
  8
Outline
  6
ByLayer
 62
  256
370
   -1
100
AcDbCircle
 10
3
 20
27.2
 40
1.25
  0
CIRCLE
  5
1D2
100
AcDbEntity
  8
Outline
  6
ByLayer
 62
  256
370
   -1
100
AcDbCircle
 10
27.2
 20
3
 40
1.25
  0
CIRCLE
  5
1D3
100
AcDbEntity
  8
Outline
  6
ByLayer
 62
  256
370
   -1
100
AcDbCircle
 10
14
 20
14
 40
11.5
  0
CIRCLE
  5
1D4
100
AcDbEntity
  8
Outline
  6
ByLayer
 62
  256
370
   -1
100
AcDbCircle
 10
14
 20
14
 40
8.5
  0
LWPOLYLINE
  5
1D5
100
AcDbEntity
  8
Outline
  6
ByLayer
 62
  256
370
   -1
100
AcDbPolyline
 90
    4
 70
    1
 43
0
 10
14
 20
25
 10
15
 20
25
 10
15
 20
23
 10
14
 20
23
  0
LWPOLYLINE
  5
1D6
100
AcDbEntity
  8
Outline
  6
ByLayer
 62
  256
370
   -1
100
AcDbPolyline
 90
    4
 70
    1
 43
0
 10
11.15299050387227
 20
24.62518408917975
 10
12.11891633016134
 20
24.88400313428227
 10
12.63655442036638
 20
22.95215148170413
 10
11.67062859407731
 20
22.69333243660162
  0
LWPOLYLINE
  5
1D7
100
AcDbEntity
  8
Outline
  6
ByLayer
 62
  256
370
   -1
100
AcDbPolyline
 90
    4
 70
    1
 43
0
 10
8.5
 20
23.52627944162883
 10
9.366025403784439
 20
24.02627944162883
 10
10.36602540378444
 20
22.29422863405995
 10
9.5
 20
21.79422863405995
  0
LWPOLYLINE
  5
1D8
100
AcDbEntity
  8
Outline
  6
ByLayer
 62
  256
370
   -1
100
AcDbPolyline
 90
    4
 70
    1
 43
0
 10
6.221825406947978
 20
21.77817459305202
 10
6.928932188134525
 20
22.48528137423857
 10
8.34314575050762
 20
21.07106781186548
 10
7.636038969321072
 20
20.36396103067893
  0
LWPOLYLINE
  5
1D9
100
AcDbEntity
  8
Outline
  6
ByLayer
 62
  256
370
   -1
100
AcDbPolyline
 90
    4
 70
    1
 43
0
 10
4.473720558371175
 20
19.5
 10
4.973720558371175
 20
20.36602540378444
 10
6.705771365940053
 20
19.36602540378444
 10
6.205771365940053
 20
18.5
  0
LWPOLYLINE
  5
1DA
100
AcDbEntity
  8
Outline
  6
ByLayer
 62
  256
370
   -1
100
AcDbPolyline
 90
    4
 70
    1
 43
0
 10
3.37481591082025
 20
16.84700949612773
 10
3.633634955922771
 20
17.8129353224168
 10
5.565486608500907
 20
17.29529723221176
 10
5.306667563398387
 20
16.32937140592269
  0
LWPOLYLINE
  5
1DB
100
AcDbEntity
  8
Outline
  6
ByLayer
 62
  256
370
   -1
100
AcDbPolyline
 90
    4
 70
    1
 43
0
 10
3
 20
14
 10
3
 20
15
 10
5
 20
15
 10
5
 20
14
  0
LWPOLYLINE
  5
1DC
100
AcDbEntity
  8
Outline
  6
ByLayer
 62
  256
370
   -1
100
AcDbPolyline
 90
    4
 70
    1
 43
0
 10
3.374815910820248
 20
11.15299050387227
 10
3.115996865717728
 20
12.11891633016134
 10
5.047848518295865
 20
12.63655442036638
 10
5.306667563398385
 20
11.67062859407731
  0
LWPOLYLINE
  5
1DD
100
AcDbEntity
  8
Outline
  6
ByLayer
 62
  256
370
   -1
100
AcDbPolyline
 90
    4
 70
    1
 43
0
 10
4.473720558371174
 20
8.500000000000002
 10
3.973720558371174
 20
9.366025403784441
 10
5.705771365940052
 20
10.36602540378444
 10
6.205771365940052
 20
9.500000000000002
  0
LWPOLYLINE
  5
1DE
100
AcDbEntity
  8
Outline
  6
ByLayer
 62
  256
370
   -1
100
AcDbPolyline
 90
    4
 70
    1
 43
0
 10
6.221825406947977
 20
6.221825406947978
 10
5.51471862576143
 20
6.928932188134525
 10
6.928932188134524
 20
8.34314575050762
 10
7.636038969321072
 20
7.636038969321072
  0
LWPOLYLINE
  5
1DF
100
AcDbEntity
  8
Outline
  6
ByLayer
 62
  256
370
   -1
100
AcDbPolyline
 90
    4
 70
    1
 43
0
 10
8.499999999999996
 20
4.473720558371177
 10
7.633974596215558
 20
4.973720558371177
 10
8.633974596215559
 20
6.705771365940054
 10
9.499999999999996
 20
6.205771365940054
  0
LWPOLYLINE
  5
1E0
100
AcDbEntity
  8
Outline
  6
ByLayer
 62
  256
370
   -1
100
AcDbPolyline
 90
    4
 70
    1
 43
0
 10
11.15299050387227
 20
3.37481591082025
 10
10.1870646775832
 20
3.633634955922771
 10
10.70470276778824
 20
5.565486608500907
 10
11.67062859407731
 20
5.306667563398387
  0
LWPOLYLINE
  5
1E1
100
AcDbEntity
  8
Outline
  6
ByLayer
 62
  256
370
   -1
100
AcDbPolyline
 90
    4
 70
    1
 43
0
 10
14
 20
3
 10
13
 20
3
 10
13
 20
5
 10
14
 20
5
  0
LWPOLYLINE
  5
1E2
100
AcDbEntity
  8
Outline
  6
ByLayer
 62
  256
370
   -1
100
AcDbPolyline
 90
    4
 70
    1
 43
0
 10
16.84700949612773
 20
3.374815910820248
 10
15.88108366983866
 20
3.115996865717727
 10
15.36344557963361
 20
5.047848518295864
 10
16.32937140592268
 20
5.306667563398384
  0
LWPOLYLINE
  5
1E3
100
AcDbEntity
  8
Outline
  6
ByLayer
 62
  256
370
   -1
100
AcDbPolyline
 90
    4
 70
    1
 43
0
 10
19.5
 20
4.473720558371173
 10
18.63397459621556
 20
3.973720558371173
 10
17.63397459621556
 20
5.705771365940051
 10
18.5
 20
6.20577136594005
  0
LWPOLYLINE
  5
1E4
100
AcDbEntity
  8
Outline
  6
ByLayer
 62
  256
370
   -1
100
AcDbPolyline
 90
    4
 70
    1
 43
0
 10
21.77817459305202
 20
6.221825406947973
 10
21.07106781186547
 20
5.514718625761426
 10
19.65685424949238
 20
6.928932188134522
 10
20.36396103067893
 20
7.636038969321069
  0
LWPOLYLINE
  5
1E5
100
AcDbEntity
  8
Outline
  6
ByLayer
 62
  256
370
   -1
100
AcDbPolyline
 90
    4
 70
    1
 43
0
 10
23.52627944162882
 20
8.499999999999995
 10
23.02627944162882
 20
7.633974596215557
 10
21.29422863405994
 20
8.633974596215557
 10
21.79422863405994
 20
9.499999999999996
  0
LWPOLYLINE
  5
1E6
100
AcDbEntity
  8
Outline
  6
ByLayer
 62
  256
370
   -1
100
AcDbPolyline
 90
    4
 70
    1
 43
0
 10
24.62518408917975
 20
11.15299050387226
 10
24.36636504407723
 20
10.18706467758319
 10
22.43451339149909
 20
10.70470276778824
 10
22.69333243660161
 20
11.67062859407731
  0
LWPOLYLINE
  5
1E7
100
AcDbEntity
  8
Outline
  6
ByLayer
 62
  256
370
   -1
100
AcDbPolyline
 90
    4
 70
    1
 43
0
 10
25
 20
14
 10
25
 20
13
 10
23
 20
13
 10
23
 20
14
  0
LWPOLYLINE
  5
1E8
100
AcDbEntity
  8
Outline
  6
ByLayer
 62
  256
370
   -1
100
AcDbPolyline
 90
    4
 70
    1
 43
0
 10
24.62518408917975
 20
16.84700949612772
 10
24.88400313428227
 20
15.88108366983865
 10
22.95215148170413
 20
15.36344557963361
 10
22.69333243660162
 20
16.32937140592268
  0
LWPOLYLINE
  5
1E9
100
AcDbEntity
  8
Outline
  6
ByLayer
 62
  256
370
   -1
100
AcDbPolyline
 90
    4
 70
    1
 43
0
 10
23.52627944162883
 20
19.49999999999999
 10
24.02627944162883
 20
18.63397459621555
 10
22.29422863405995
 20
17.63397459621556
 10
21.79422863405995
 20
18.49999999999999
  0
LWPOLYLINE
  5
1EA
100
AcDbEntity
  8
Outline
  6
ByLayer
 62
  256
370
   -1
100
AcDbPolyline
 90
    4
 70
    1
 43
0
 10
21.77817459305203
 20
21.77817459305202
 10
22.48528137423857
 20
21.07106781186547
 10
21.07106781186548
 20
19.65685424949238
 10
20.36396103067893
 20
20.36396103067893
  0
LWPOLYLINE
  5
1EB
100
AcDbEntity
  8
Outline
  6
ByLayer
 62
  256
370
   -1
100
AcDbPolyline
 90
    4
 70
    1
 43
0
 10
19.5
 20
23.52627944162882
 10
20.36602540378444
 20
23.02627944162882
 10
19.36602540378444
 20
21.29422863405994
 10
18.5
 20
21.79422863405994
  0
LWPOLYLINE
  5
1EC
100
AcDbEntity
  8
Outline
  6
ByLayer
 62
  256
370
   -1
100
AcDbPolyline
 90
    4
 70
    1
 43
0
 10
16.84700949612774
 20
24.62518408917975
 10
17.81293532241681
 20
24.36636504407723
 10
17.29529723221176
 20
22.43451339149909
 10
16.32937140592269
 20
22.69333243660161
  0
LWPOLYLINE
  5
1ED
100
AcDbEntity
  8
Outline
  6
ByLayer
 62
  256
370
   -1
100
AcDbPolyline
 90
    4
 70
    1
 43
0
 10
14
 20
25
 10
15
 20
25
 10
15
 20
23
 10
14
 20
23
  0
LINE
  5
1EE
100
AcDbEntity
  8
Outline
  6
ByLayer
 62
  256
370
   -1
100
AcDbLine
 10
25
 20
29
 11
23
 21
27
  0
LINE
  5
1EF
100
AcDbEntity
  8
Outline
  6
ByLayer
 62
  256
370
   -1
100
AcDbLine
 10
23
 20
27
 11
24
 21
27
  0
LINE
  5
1F0
100
AcDbEntity
  8
Outline
  6
ByLayer
 62
  256
370
   -1
100
AcDbLine
 10
24
 20
27
 11
24
 21
24
  0
LINE
  5
1F1
100
AcDbEntity
  8
Outline
  6
ByLayer
 62
  256
370
   -1
100
AcDbLine
 10
24
 20
24
 11
26
 21
24
  0
LINE
  5
1F2
100
AcDbEntity
  8
Outline
  6
ByLayer
 62
  256
370
   -1
100
AcDbLine
 10
26
 20
24
 11
26
 21
27
  0
LINE
  5
1F3
100
AcDbEntity
  8
Outline
  6
ByLayer
 62
  256
370
   -1
100
AcDbLine
 10
26
 20
27
 11
27
 21
27
  0
LINE
  5
1F4
100
AcDbEntity
  8
Outline
  6
ByLayer
 62
  256
370
   -1
100
AcDbLine
 10
27
 20
27
 11
25
 21
29
  0
ARC
  5
1F5
100
AcDbEntity
  8
Outline
  6
ByLayer
 62
  256
370
   -1
100
AcDbCircle
 10
2
 20
28
 40
2
100
AcDbArc
 50
90
 51
180
  0
LINE
  5
1F6
100
AcDbEntity
  8
Outline
  6
ByLayer
 62
  256
370
   -1
100
AcDbLine
 10
0
 20
2
 11
0
 21
28
  0
ARC
  5
1F7
100
AcDbEntity
  8
Outline
  6
ByLayer
 62
  256
370
   -1
100
AcDbCircle
 10
2
 20
2
 40
2
100
AcDbArc
 50
180
 51
270
  0
LINE
  5
1F8
100
AcDbEntity
  8
Outline
  6
ByLayer
 62
  256
370
   -1
100
AcDbLine
 10
28
 20
0
 11
2
 21
0
  0
ARC
  5
1F9
100
AcDbEntity
  8
Outline
  6
ByLayer
 62
  256
370
   -1
100
AcDbCircle
 10
28
 20
2
 40
2
100
AcDbArc
 50
270
 51
0
  0
LINE
  5
1FA
100
AcDbEntity
  8
Outline
  6
ByLayer
 62
  256
370
   -1
100
AcDbLine
 10
30
 20
28
 11
30
 21
2
  0
LINE
  5
1FB
100
AcDbEntity
  8
Outline
  6
ByLayer
 62
  256
370
   -1
100
AcDbLine
 10
2
 20
30
 11
28
 21
30
  0
ARC
  5
1FC
100
AcDbEntity
  8
Outline
  6
ByLayer
 62
  256
370
   -1
100
AcDbCircle
 10
28
 20
28
 40
2
100
AcDbArc
 50
0
 51
90
  0
ENDBLK
  5
69
330
67
100
AcDbEntity
  8
0
100
AcDbBlockEnd
  0
BLOCK
  5
6B
330
6A
100
AcDbEntity
  8
0
100
AcDbBlockBegin
  2
ModifiedHotEnd-2
 70
    0
 10
0
 20
0
  3
ModifiedHotEnd-2
  1

  0
ARC
  5
1FD
100
AcDbEntity
  8
Outline
  6
ByLayer
 62
  256
370
   -1
100
AcDbCircle
 10
-0.4999999999999996
 20
7
 40
1
100
AcDbArc
 50
90
 51
180
  0
LINE
  5
1FE
100
AcDbEntity
  8
Outline
  6
CONTINUOUS
 62
  256
370
    0
100
AcDbLine
 10
1.224606353822377e-015
 20
20
 11
-20
 21
20
  0
LINE
  5
1FF
100
AcDbEntity
  8
Outline
  6
CONTINUOUS
 62
  256
370
    0
100
AcDbLine
 10
-20
 20
20
 11
-20
 21
1.224606353822377e-015
  0
LINE
  5
200
100
AcDbEntity
  8
Outline
  6
CONTINUOUS
 62
  256
370
   20
100
AcDbLine
 10
4.898425415289509e-016
 20
8
 11
1.224606353822377e-015
 21
20
  0
LINE
  5
201
100
AcDbEntity
  8
Outline
  6
ByLayer
 62
  256
370
   -1
100
AcDbLine
 10
-0.4999999999999995
 20
8
 11
4.898425415289509e-016
 21
8
  0
LINE
  5
202
100
AcDbEntity
  8
Outline
  6
ByLayer
 62
  256
370
   -1
100
AcDbLine
 10
4.898425415289509e-016
 20
8
 11
4.898425415289509e-016
 21
8
  0
LINE
  5
203
100
AcDbEntity
  8
Outline
  6
CONTINUOUS
 62
  256
370
    0
100
AcDbLine
 10
-20
 20
1.224606353822377e-015
 11
-1.5
 21
9.184547653667829e-017
  0
LINE
  5
204
100
AcDbEntity
  8
Outline
  6
ByLayer
 62
  256
370
   -1
100
AcDbLine
 10
-1.5
 20
9.184547653667829e-017
 11
-1.5
 21
7
  0
LINE
  5
205
100
AcDbEntity
  8
Outline
  6
ByLayer
 62
  256
370
   -1
100
AcDbLine
 10
-1.5
 20
9.184547653667829e-017
 11
-1.5
 21
9.184547653667829e-017
  0
CIRCLE
  5
206
100
AcDbEntity
  8
Outline
  6
ByLayer
 62
  256
370
   -1
100
AcDbCircle
 10
-12
 20
11.5
 40
1.5
  0
CIRCLE
  5
207
100
AcDbEntity
  8
Outline
  6
ByLayer
 62
  256
370
   -1
100
AcDbCircle
 10
-15.5
 20
11.5
 40
1
  0
LINE
  5
208
100
AcDbEntity
  8
Holes
  6
ByLayer
 62
  256
370
   -1
100
AcDbLine
 10
1.423604886318514e-015
 20
11.05
 11
-20
 21
11.05
  0
LINE
  5
209
100
AcDbEntity
  8
Holes
  6
ByLayer
 62
  256
370
   -1
100
AcDbLine
 10
-1.5
 20
4.95
 11
-20
 21
4.950000000000001
  0
LINE
  5
20A
100
AcDbEntity
  8
Holes
  6
ByLayer
 62
  256
370
   -1
100
AcDbLine
 10
4.898425415289509e-016
 20
13
 11
-4.999999999999999
 21
13
  0
LINE
  5
20B
100
AcDbEntity
  8
Holes
  6
ByLayer
 62
  256
370
   -1
100
AcDbLine
 10
-4.999999999999999
 20
13
 11
-4.999999999999999
 21
13
  0
LINE
  5
20C
100
AcDbEntity
  8
Holes
  6
ByLayer
 62
  256
370
   -1
100
AcDbLine
 10
-4.999999999999999
 20
13
 11
-4.999999999999999
 21
12.75
  0
LINE
  5
20D
100
AcDbEntity
  8
Holes
  6
ByLayer
 62
  256
370
   -1
100
AcDbLine
 10
-4.999999999999999
 20
12.75
 11
-4.999999999999999
 21
12.75
  0
LINE
  5
20E
100
AcDbEntity
  8
Holes
  6
ByLayer
 62
  256
370
   -1
100
AcDbLine
 10
-4.999999999999999
 20
12.75
 11
-7.999999999999999
 21
12.75
  0
LINE
  5
20F
100
AcDbEntity
  8
Holes
  6
ByLayer
 62
  256
370
   -1
100
AcDbLine
 10
-7.999999999999999
 20
12.75
 11
-7.999999999999999
 21
12.75
  0
LINE
  5
210
100
AcDbEntity
  8
Holes
  6
ByLayer
 62
  256
370
   -1
100
AcDbLine
 10
-7.999999999999999
 20
12.75
 11
-7.999999999999999
 21
12.5
  0
LINE
  5
211
100
AcDbEntity
  8
Holes
  6
ByLayer
 62
  256
370
   -1
100
AcDbLine
 10
-7.999999999999999
 20
12.5
 11
-7.999999999999999
 21
12.5
  0
LINE
  5
212
100
AcDbEntity
  8
Holes
  6
ByLayer
 62
  256
370
   -1
100
AcDbLine
 10
-7.999999999999999
 20
12.5
 11
-11
 21
12.5
  0
LINE
  5
213
100
AcDbEntity
  8
Holes
  6
ByLayer
 62
  256
370
   -1
100
AcDbLine
 10
-11
 20
12.5
 11
-11
 21
12.5
  0
LINE
  5
214
100
AcDbEntity
  8
Holes
  6
ByLayer
 62
  256
370
   -1
100
AcDbLine
 10
-11
 20
12.5
 11
-11
 21
12.25
  0
LINE
  5
215
100
AcDbEntity
  8
Holes
  6
ByLayer
 62
  256
370
   -1
100
AcDbLine
 10
-11
 20
12.25
 11
-11
 21
12.25
  0
LINE
  5
216
100
AcDbEntity
  8
Holes
  6
ByLayer
 62
  256
370
   -1
100
AcDbLine
 10
-11
 20
12.25
 11
-14
 21
12.25
  0
LINE
  5
217
100
AcDbEntity
  8
Holes
  6
ByLayer
 62
  256
370
   -1
100
AcDbLine
 10
-14
 20
12.25
 11
-14
 21
12.25
  0
LINE
  5
218
100
AcDbEntity
  8
Holes
  6
ByLayer
 62
  256
370
   -1
100
AcDbLine
 10
-14
 20
12.25
 11
-14
 21
12
  0
LINE
  5
219
100
AcDbEntity
  8
Holes
  6
ByLayer
 62
  256
370
   -1
100
AcDbLine
 10
-14
 20
12
 11
-14
 21
12
  0
LINE
  5
21A
100
AcDbEntity
  8
Holes
  6
ByLayer
 62
  256
370
   -1
100
AcDbLine
 10
-14
 20
12
 11
-17
 21
12
  0
LINE
  5
21B
100
AcDbEntity
  8
Holes
  6
ByLayer
 62
  256
370
   -1
100
AcDbLine
 10
-17
 20
12
 11
-17
 21
12
  0
LINE
  5
21C
100
AcDbEntity
  8
Holes
  6
ByLayer
 62
  256
370
   -1
100
AcDbLine
 10
-17
 20
12
 11
-17
 21
11.75
  0
LINE
  5
21D
100
AcDbEntity
  8
Holes
  6
ByLayer
 62
  256
370
   -1
100
AcDbLine
 10
-17
 20
11.75
 11
-20
 21
11.75
  0
LINE
  5
21E
100
AcDbEntity
  8
Holes
  6
ByLayer
 62
  256
370
   -1
100
AcDbLine
 10
-17
 20
11.75
 11
-17
 21
11.75
  0
LINE
  5
21F
100
AcDbEntity
  8
Holes
  6
ByLayer
 62
  256
370
   -1
100
AcDbLine
 10
7.959941299845452e-016
 20
18
 11
-4.999999999999999
 21
18
  0
LINE
  5
220
100
AcDbEntity
  8
Holes
  6
ByLayer
 62
  256
370
   -1
100
AcDbLine
 10
-4.999999999999999
 20
18
 11
-4.999999999999999
 21
18
  0
LINE
  5
221
100
AcDbEntity
  8
Holes
  6
ByLayer
 62
  256
370
   -1
100
AcDbLine
 10
-4.999999999999999
 20
18
 11
-4.999999999999999
 21
18.25
  0
LINE
  5
222
100
AcDbEntity
  8
Holes
  6
ByLayer
 62
  256
370
   -1
100
AcDbLine
 10
-4.999999999999999
 20
18.25
 11
-4.999999999999999
 21
18.25
  0
LINE
  5
223
100
AcDbEntity
  8
Holes
  6
ByLayer
 62
  256
370
   -1
100
AcDbLine
 10
-4.999999999999999
 20
18.25
 11
-7.999999999999999
 21
18.25
  0
LINE
  5
224
100
AcDbEntity
  8
Holes
  6
ByLayer
 62
  256
370
   -1
100
AcDbLine
 10
-7.999999999999999
 20
18.25
 11
-7.999999999999999
 21
18.25
  0
LINE
  5
225
100
AcDbEntity
  8
Holes
  6
ByLayer
 62
  256
370
   -1
100
AcDbLine
 10
-7.999999999999999
 20
18.25
 11
-7.999999999999999
 21
18.5
  0
LINE
  5
226
100
AcDbEntity
  8
Holes
  6
ByLayer
 62
  256
370
   -1
100
AcDbLine
 10
-7.999999999999999
 20
18.5
 11
-7.999999999999999
 21
18.5
  0
LINE
  5
227
100
AcDbEntity
  8
Holes
  6
ByLayer
 62
  256
370
   -1
100
AcDbLine
 10
-7.999999999999999
 20
18.5
 11
-11
 21
18.5
  0
LINE
  5
228
100
AcDbEntity
  8
Holes
  6
ByLayer
 62
  256
370
   -1
100
AcDbLine
 10
-11
 20
18.5
 11
-11
 21
18.5
  0
LINE
  5
229
100
AcDbEntity
  8
Holes
  6
ByLayer
 62
  256
370
   -1
100
AcDbLine
 10
-11
 20
18.5
 11
-11
 21
18.75
  0
LINE
  5
22A
100
AcDbEntity
  8
Holes
  6
ByLayer
 62
  256
370
   -1
100
AcDbLine
 10
-11
 20
18.75
 11
-11
 21
18.75
  0
LINE
  5
22B
100
AcDbEntity
  8
Holes
  6
ByLayer
 62
  256
370
   -1
100
AcDbLine
 10
-11
 20
18.75
 11
-14
 21
18.75
  0
LINE
  5
22C
100
AcDbEntity
  8
Holes
  6
ByLayer
 62
  256
370
   -1
100
AcDbLine
 10
-14
 20
18.75
 11
-14
 21
18.75
  0
LINE
  5
22D
100
AcDbEntity
  8
Holes
  6
ByLayer
 62
  256
370
   -1
100
AcDbLine
 10
-14
 20
18.75
 11
-14
 21
19
  0
LINE
  5
22E
100
AcDbEntity
  8
Holes
  6
ByLayer
 62
  256
370
   -1
100
AcDbLine
 10
-14
 20
19
 11
-14
 21
19
  0
LINE
  5
22F
100
AcDbEntity
  8
Holes
  6
ByLayer
 62
  256
370
   -1
100
AcDbLine
 10
-14
 20
19
 11
-17
 21
19
  0
LINE
  5
230
100
AcDbEntity
  8
Holes
  6
ByLayer
 62
  256
370
   -1
100
AcDbLine
 10
-17
 20
19
 11
-17
 21
19
  0
LINE
  5
231
100
AcDbEntity
  8
Holes
  6
ByLayer
 62
  256
370
   -1
100
AcDbLine
 10
-17
 20
19
 11
-17
 21
19.25
  0
LINE
  5
232
100
AcDbEntity
  8
Holes
  6
ByLayer
 62
  256
370
   -1
100
AcDbLine
 10
-17
 20
19.25
 11
-20
 21
19.25
  0
LINE
  5
233
100
AcDbEntity
  8
Holes
  6
ByLayer
 62
  256
370
   -1
100
AcDbLine
 10
-17
 20
19.25
 11
-17
 21
19.25
  0
INSERT
  5
234
100
AcDbEntity
  8
Holes
  6
ByLayer
 62
  256
370
   -1
100
AcDbBlockReference
  2
ModifiedNozzle-2
 10
0
 20
0
 30
0
 41
1
 42
1
 43
0
 50
0
 70
    1
 71
    1
 44
0
 45
0
  0
CIRCLE
  5
235
100
AcDbEntity
  8
Outline
  6
ByLayer
 62
  256
370
   -1
100
AcDbCircle
 10
-15.5
 20
2.500000000000001
 40
1.5
  0
CIRCLE
  5
236
100
AcDbEntity
  8
Outline
  6
ByLayer
 62
  256
370
   -1
100
AcDbCircle
 10
-4
 20
2.500000000000001
 40
1.5
  0
ENDBLK
  5
6C
330
6A
100
AcDbEntity
  8
0
100
AcDbBlockEnd
  0
BLOCK
  5
6E
330
6D
100
AcDbEntity
  8
0
100
AcDbBlockBegin
  2
ModifiedNozzle-2
 70
    0
 10
0
 20
0
  3
ModifiedNozzle-2
  1

  0
LINE
  5
237
100
AcDbEntity
  8
Nozzle
  6
ByLayer
 62
  256
370
   -1
100
AcDbLine
 10
4
 20
12.01794919243112
 11
4
 21
12.01794919243112
  0
LINE
  5
238
100
AcDbEntity
  8
Nozzle
  6
ByLayer
 62
  256
370
   -1
100
AcDbLine
 10
4
 20
12.01794919243112
 11
4
 21
18.98205080756887
  0
LINE
  5
239
100
AcDbEntity
  8
Nozzle
  6
ByLayer
 62
  256
370
   -1
100
AcDbLine
 10
4
 20
18.98205080756887
 11
4
 21
18.98205080756887
  0
LINE
  5
23A
100
AcDbEntity
  8
Nozzle
  6
ByLayer
 62
  256
370
   -1
100
AcDbLine
 10
4
 20
13.75
 11
-1.071530559594579e-016
 21
13.75
  0
LINE
  5
23B
100
AcDbEntity
  8
Nozzle
  6
ByLayer
 62
  256
370
   -1
100
AcDbLine
 10
4
 20
12.01794919243112
 11
-2.132070771640592e-016
 21
12.01794919243113
  0
LINE
  5
23C
100
AcDbEntity
  8
Nozzle
  6
ByLayer
 62
  256
370
   -1
100
AcDbLine
 10
4
 20
17.21410161513775
 11
1.049549864497446e-016
 21
17.21410161513775
  0
LINE
  5
23D
100
AcDbEntity
  8
Nozzle
  6
ByLayer
 62
  256
370
   -1
100
AcDbLine
 10
4
 20
18.98205080756887
 11
2.132070771640592e-016
 21
18.98205080756887
  0
LINE
  5
23E
100
AcDbEntity
  8
Nozzle
  6
ByLayer
 62
  256
370
   -1
100
AcDbLine
 10
-2.132070771640592e-016
 20
12.01794919243113
 11
2.132070771640592e-016
 21
18.98205080756887
  0
LINE
  5
23F
100
AcDbEntity
  8
Nozzle
  6
ByLayer
 62
  256
370
   -1
100
AcDbLine
 10
6.5
 20
14.5
 11
4
 21
11.98205080756887
  0
LINE
  5
240
100
AcDbEntity
  8
Nozzle
  6
ByLayer
 62
  256
370
   -1
100
AcDbLine
 10
6.5
 20
14.5
 11
6.5
 21
14.5
  0
LINE
  5
241
100
AcDbEntity
  8
Nozzle
  6
ByLayer
 62
  256
370
   -1
100
AcDbLine
 10
6.5
 20
14.5
 11
6.5
 21
16.5
  0
LINE
  5
242
100
AcDbEntity
  8
Nozzle
  6
ByLayer
 62
  256
370
   -1
100
AcDbLine
 10
6.5
 20
16.5
 11
4
 21
18.98205080756887
  0
LINE
  5
243
100
AcDbEntity
  8
Nozzle
  6
ByLayer
 62
  256
370
   -1
100
AcDbLine
 10
6.5
 20
16.5
 11
6.5
 21
16.5
  0
LINE
  5
244
100
AcDbEntity
  8
Nozzle
  6
ByLayer
 62
  256
370
   -1
100
AcDbLine
 10
-5
 20
13
 11
-1.07153055959458e-015
 21
13
  0
LINE
  5
245
100
AcDbEntity
  8
Nozzle
  6
ByLayer
 62
  256
370
   -1
100
AcDbLine
 10
-5
 20
13
 11
-5
 21
13
  0
LINE
  5
246
100
AcDbEntity
  8
Nozzle
  6
ByLayer
 62
  256
370
   -1
100
AcDbLine
 10
-5
 20
18
 11
7.653789711389858e-016
 21
18
  0
LINE
  5
247
100
AcDbEntity
  8
Nozzle
  6
ByLayer
 62
  256
370
   -1
100
AcDbLine
 10
-5
 20
13
 11
-5
 21
18
  0
LINE
  5
248
100
AcDbEntity
  8
Nozzle
  6
ByLayer
 62
  256
370
   -1
100
AcDbLine
 10
-5
 20
18
 11
-5
 21
18
  0
LINE
  5
249
100
AcDbEntity
  8
Nozzle
  6
ByLayer
 62
  256
370
   -1
100
AcDbLine
 10
4
 20
13
 11
4
 21
18
  0
LINE
  5
24A
100
AcDbEntity
  8
Holes
  6
ByLayer
 62
  256
370
   -1
100
AcDbLine
 10
4
 20
16.35
 11
6.5
 21
16.35
  0
LINE
  5
24B
100
AcDbEntity
  8
Holes
  6
ByLayer
 62
  256
370
   -1
100
AcDbLine
 10
4
 20
16.35
 11
4
 21
16.35
  0
LINE
  5
24C
100
AcDbEntity
  8
Holes
  6
ByLayer
 62
  256
370
   -1
100
AcDbLine
 10
4
 20
16.35
 11
4
 21
16.5
  0
LINE
  5
24D
100
AcDbEntity
  8
Holes
  6
ByLayer
 62
  256
370
   -1
100
AcDbLine
 10
4
 20
16.5
 11
4
 21
16.5
  0
LINE
  5
24E
100
AcDbEntity
  8
Holes
  6
ByLayer
 62
  256
370
   -1
100
AcDbLine
 10
1
 20
16.5
 11
4
 21
16.5
  0
LINE
  5
24F
100
AcDbEntity
  8
Holes
  6
ByLayer
 62
  256
370
   -1
100
AcDbLine
 10
1
 20
16.5
 11
1
 21
16.5
  0
LINE
  5
250
100
AcDbEntity
  8
Holes
  6
ByLayer
 62
  256
370
   -1
100
AcDbLine
 10
1
 20
16.5
 11
1
 21
16.75
  0
LINE
  5
251
100
AcDbEntity
  8
Holes
  6
ByLayer
 62
  256
370
   -1
100
AcDbLine
 10
1
 20
16.75
 11
1
 21
16.75
  0
LINE
  5
252
100
AcDbEntity
  8
Holes
  6
ByLayer
 62
  256
370
   -1
100
AcDbLine
 10
-2
 20
16.75
 11
1
 21
16.75
  0
LINE
  5
253
100
AcDbEntity
  8
Holes
  6
ByLayer
 62
  256
370
   -1
100
AcDbLine
 10
-2
 20
16.75
 11
-2
 21
16.75
  0
LINE
  5
254
100
AcDbEntity
  8
Holes
  6
ByLayer
 62
  256
370
   -1
100
AcDbLine
 10
-2
 20
16.75
 11
-2
 21
17
  0
LINE
  5
255
100
AcDbEntity
  8
Holes
  6
ByLayer
 62
  256
370
   -1
100
AcDbLine
 10
-5
 20
17
 11
-2
 21
17
  0
LINE
  5
256
100
AcDbEntity
  8
Holes
  6
ByLayer
 62
  256
370
   -1
100
AcDbLine
 10
-2
 20
17
 11
-2
 21
17
  0
LINE
  5
257
100
AcDbEntity
  8
Holes
  6
ByLayer
 62
  256
370
   -1
100
AcDbLine
 10
4
 20
14.65
 11
6.5
 21
14.65
  0
LINE
  5
258
100
AcDbEntity
  8
Holes
  6
ByLayer
 62
  256
370
   -1
100
AcDbLine
 10
4
 20
14.65
 11
4
 21
14.65
  0
LINE
  5
259
100
AcDbEntity
  8
Holes
  6
ByLayer
 62
  256
370
   -1
100
AcDbLine
 10
4
 20
14.65
 11
4
 21
14.5
  0
LINE
  5
25A
100
AcDbEntity
  8
Holes
  6
ByLayer
 62
  256
370
   -1
100
AcDbLine
 10
4
 20
14.5
 11
4
 21
14.5
  0
LINE
  5
25B
100
AcDbEntity
  8
Holes
  6
ByLayer
 62
  256
370
   -1
100
AcDbLine
 10
0.9999999999999999
 20
14.5
 11
4
 21
14.5
  0
LINE
  5
25C
100
AcDbEntity
  8
Holes
  6
ByLayer
 62
  256
370
   -1
100
AcDbLine
 10
0.9999999999999999
 20
14.5
 11
0.9999999999999999
 21
14.5
  0
LINE
  5
25D
100
AcDbEntity
  8
Holes
  6
ByLayer
 62
  256
370
   -1
100
AcDbLine
 10
0.9999999999999999
 20
14.5
 11
0.9999999999999999
 21
14.25
  0
LINE
  5
25E
100
AcDbEntity
  8
Holes
  6
ByLayer
 62
  256
370
   -1
100
AcDbLine
 10
0.9999999999999999
 20
14.25
 11
0.9999999999999999
 21
14.25
  0
LINE
  5
25F
100
AcDbEntity
  8
Holes
  6
ByLayer
 62
  256
370
   -1
100
AcDbLine
 10
-2
 20
14.25
 11
0.9999999999999999
 21
14.25
  0
LINE
  5
260
100
AcDbEntity
  8
Holes
  6
ByLayer
 62
  256
370
   -1
100
AcDbLine
 10
-2
 20
14.25
 11
-2
 21
14.25
  0
LINE
  5
261
100
AcDbEntity
  8
Holes
  6
ByLayer
 62
  256
370
   -1
100
AcDbLine
 10
-2
 20
14.25
 11
-2
 21
14
  0
LINE
  5
262
100
AcDbEntity
  8
Holes
  6
ByLayer
 62
  256
370
   -1
100
AcDbLine
 10
-5
 20
14
 11
-2
 21
14
  0
LINE
  5
263
100
AcDbEntity
  8
Holes
  6
ByLayer
 62
  256
370
   -1
100
AcDbLine
 10
-2
 20
14
 11
-2
 21
14
  0
ENDBLK
  5
6F
330
6D
100
AcDbEntity
  8
0
100
AcDbBlockEnd
  0
ENDSEC
  0
SECTION
  2
ENTITIES
  0
INSERT
  5
264
100
AcDbEntity
  8
Outline
  6
ByLayer
 62
  256
370
   -1
100
AcDbBlockReference
  2
RadialFan30mm
 10
26.5
 20
0
 30
0
 41
1
 42
1
 43
0
 50
0
 70
    1
 71
    1
 44
0
 45
0
  0
INSERT
  5
265
100
AcDbEntity
  8
Outline
  6
ByLayer
 62
  256
370
   -1
100
AcDbBlockReference
  2
RadialFan30mm-0
 10
56.5
 20
0
 30
0
 41
1
 42
1
 43
0
 50
0
 70
    1
 71
    1
 44
0
 45
0
  0
LINE
  5
266
100
AcDbEntity
  8
Base
  6
ByLayer
 62
  256
370
   -1
100
AcDbLine
 10
-33.30767850592594
 20
0
 11
116.6923214940741
 21
0
  0
INSERT
  5
267
100
AcDbEntity
  8
Holes
  6
ByLayer
 62
  256
370
   -1
100
AcDbBlockReference
  2
ModifiedHotEnd-2
 10
0
 20
19.5
 30
0
 41
1
 42
1
 43
0
 50
0
 70
    1
 71
    1
 44
0
 45
0
  0
LINE
  5
268
100
AcDbEntity
  8
HotEndBracket
  6
ByLayer
 62
  256
370
   -1
100
AcDbLine
 10
-19.5
 20
22
 11
-19.5
 21
1.469527624586853e-015
  0
ARC
  5
269
100
AcDbEntity
  8
HotEndBracket
  6
ByLayer
 62
  256
370
   -1
100
AcDbCircle
 10
-15.5
 20
22
 40
4
100
AcDbArc
 50
90
 51
180
  0
LINE
  5
26A
100
AcDbEntity
  8
HotEndBracket
  6
ByLayer
 62
  256
370
   -1
100
AcDbLine
 10
-15.5
 20
26
 11
-4
 21
26
  0
LINE
  5
26B
100
AcDbEntity
  8
HotEndBracket
  6
ByLayer
 62
  256
370
   -1
100
AcDbLine
 10
0
 20
22
 11
0
 21
-9.796850830579018e-016
  0
ARC
  5
26C
100
AcDbEntity
  8
HotEndBracket
  6
ByLayer
 62
  256
370
   -1
100
AcDbCircle
 10
-4
 20
22
 40
4
100
AcDbArc
 50
0
 51
90
  0
ENDSEC
  0
SECTION
  2
OBJECTS
  0
DICTIONARY
  5
C
330
0
100
AcDbDictionary
281
    1
  3
ACAD_GROUP
350
D
  0
DICTIONARY
  5
D
330
C
100
AcDbDictionary
281
    1
  0
ENDSEC
  0
EOF
